NotoAmalgamated-CondensedLightItalic.ufo
<glyph name="exclam" format="2">
  <advance width="202"/>
  <unicode hex="0021"/>
  <outline>
    <contour>
      <point x="58" y="166" type="line"/>
      <point x="82" y="166" type="line"/>
      <point x="206" y="714" type="line"/>
      <point x="178" y="714" type="line"/>
    </contour>
    <contour>
      <point x="33" y="-1" type="curve" smooth="yes"/>
      <point x="53" y="-1"/>
      <point x="62" y="26"/>
      <point x="62" y="43" type="curve" smooth="yes"/>
      <point x="62" y="60"/>
      <point x="55" y="68"/>
      <point x="44" y="68" type="curve" smooth="yes"/>
      <point x="24" y="68"/>
      <point x="15" y="42"/>
      <point x="15" y="23" type="curve" smooth="yes"/>
      <point x="15" y="8"/>
      <point x="22" y="-1"/>
    </contour>
  </outline>
</glyph>
<glyph name="quotedbl" format="2">
  <advance width="257"/>
  <unicode hex="0022"/>
  <outline>
    <contour>
      <point x="210" y="456" type="line"/>
      <point x="228" y="456" type="line"/>
      <point x="289" y="714" type="line"/>
      <point x="260" y="714" type="line"/>
    </contour>
    <contour>
      <point x="95" y="456" type="line"/>
      <point x="113" y="456" type="line"/>
      <point x="174" y="714" type="line"/>
      <point x="145" y="714" type="line"/>
    </contour>
  </outline>
</glyph>
<glyph name="numbersign" format="2">
  <advance width="366"/>
  <unicode hex="0023"/>
  <outline>
    <contour>
      <point x="2" y="0" type="line"/>
      <point x="28" y="0" type="line"/>
      <point x="100" y="235" type="line"/>
      <point x="206" y="235" type="line"/>
      <point x="134" y="0" type="line"/>
      <point x="160" y="0" type="line"/>
      <point x="232" y="235" type="line"/>
      <point x="311" y="235" type="line"/>
      <point x="311" y="260" type="line"/>
      <point x="240" y="260" type="line"/>
      <point x="308" y="481" type="line"/>
      <point x="382" y="481" type="line"/>
      <point x="382" y="506" type="line"/>
      <point x="316" y="506" type="line"/>
      <point x="380" y="714" type="line"/>
      <point x="354" y="714" type="line"/>
      <point x="290" y="506" type="line"/>
      <point x="184" y="506" type="line"/>
      <point x="248" y="714" type="line"/>
      <point x="222" y="714" type="line"/>
      <point x="158" y="506" type="line"/>
      <point x="74" y="506" type="line"/>
      <point x="74" y="481" type="line"/>
      <point x="150" y="481" type="line"/>
      <point x="82" y="260" type="line"/>
      <point x="3" y="260" type="line"/>
      <point x="3" y="235" type="line"/>
      <point x="74" y="235" type="line"/>
    </contour>
    <contour>
      <point x="108" y="260" type="line"/>
      <point x="176" y="481" type="line"/>
      <point x="282" y="481" type="line"/>
      <point x="214" y="260" type="line"/>
    </contour>
  </outline>
</glyph>
<glyph name="dollar" format="2">
  <advance width="341"/>
  <unicode hex="0024"/>
  <outline>
    <contour>
      <point x="100" y="38" type="curve"/>
      <point x="80" y="-58" type="line"/>
      <point x="104" y="-58" type="line"/>
      <point x="125" y="38" type="line"/>
      <point x="224" y="44"/>
      <point x="281" y="104"/>
      <point x="281" y="206" type="curve" smooth="yes"/>
      <point x="281" y="264"/>
      <point x="243" y="309"/>
      <point x="193" y="362" type="curve"/>
      <point x="255" y="653" type="line"/>
      <point x="301" y="651"/>
      <point x="332" y="636"/>
      <point x="351" y="624" type="curve"/>
      <point x="363" y="647" type="line"/>
      <point x="345" y="658"/>
      <point x="309" y="674"/>
      <point x="260" y="677" type="curve"/>
      <point x="278" y="760" type="line"/>
      <point x="254" y="760" type="line"/>
      <point x="236" y="677" type="line"/>
      <point x="142" y="673"/>
      <point x="82" y="620"/>
      <point x="82" y="517" type="curve" smooth="yes"/>
      <point x="82" y="447"/>
      <point x="122" y="405"/>
      <point x="168" y="354" type="curve"/>
      <point x="106" y="62" type="line"/>
      <point x="52" y="63"/>
      <point x="15" y="74"/>
      <point x="-10" y="89" type="curve"/>
      <point x="-10" y="62" type="line"/>
      <point x="12" y="52"/>
      <point x="48" y="39"/>
    </contour>
    <contour>
      <point x="130" y="63" type="curve"/>
      <point x="187" y="332" type="line"/>
      <point x="229" y="286"/>
      <point x="255" y="254"/>
      <point x="255" y="206" type="curve" smooth="yes"/>
      <point x="255" y="118"/>
      <point x="213" y="69"/>
    </contour>
    <contour>
      <point x="231" y="653" type="curve"/>
      <point x="174" y="383" type="line"/>
      <point x="134" y="427"/>
      <point x="108" y="463"/>
      <point x="108" y="519" type="curve" smooth="yes"/>
      <point x="108" y="603"/>
      <point x="152" y="648"/>
    </contour>
  </outline>
</glyph>
<glyph name="dollar.serif" format="2">
  <advance width="424"/>
  <unicode hex="0024"/>
  <outline>
    <contour>
      <point x="151" y="36" type="curve"/>
      <point x="127" y="-78" type="line"/>
      <point x="152" y="-78" type="line"/>
      <point x="176" y="35" type="line"/>
      <point x="284" y="37"/>
      <point x="349" y="104"/>
      <point x="349" y="212" type="curve" smooth="yes"/>
      <point x="349" y="272"/>
      <point x="319" y="321"/>
      <point x="256" y="368" type="curve" smooth="yes"/>
      <point x="248" y="374" type="line"/>
      <point x="309" y="659" type="line"/>
      <point x="376" y="652"/>
      <point x="390" y="602"/>
      <point x="388" y="554" type="curve"/>
      <point x="402" y="554"/>
      <point x="415" y="566"/>
      <point x="415" y="583" type="curve" smooth="yes"/>
      <point x="415" y="632"/>
      <point x="378" y="676"/>
      <point x="314" y="684" type="curve"/>
      <point x="330" y="760" type="line"/>
      <point x="305" y="760" type="line"/>
      <point x="289" y="685" type="line"/>
      <point x="197" y="682"/>
      <point x="134" y="607"/>
      <point x="134" y="511" type="curve" smooth="yes"/>
      <point x="134" y="444"/>
      <point x="164" y="403"/>
      <point x="220" y="361" type="curve"/>
      <point x="156" y="61" type="line"/>
      <point x="74" y="67"/>
      <point x="46" y="123"/>
      <point x="46" y="214" type="curve"/>
      <point x="35" y="211"/>
      <point x="23" y="199"/>
      <point x="23" y="176" type="curve" smooth="yes"/>
      <point x="23" y="108"/>
      <point x="56" y="43"/>
    </contour>
    <contour>
      <point x="181" y="60" type="curve"/>
      <point x="242" y="344" type="line"/>
      <point x="305" y="292"/>
      <point x="321" y="255"/>
      <point x="321" y="212" type="curve" smooth="yes"/>
      <point x="321" y="122"/>
      <point x="271" y="64"/>
    </contour>
    <contour>
      <point x="284" y="660" type="curve"/>
      <point x="226" y="390" type="line"/>
      <point x="178" y="429"/>
      <point x="162" y="457"/>
      <point x="162" y="511" type="curve" smooth="yes"/>
      <point x="162" y="598"/>
      <point x="216" y="655"/>
    </contour>
  </outline>
</glyph>
<glyph name="ampersand" format="2">
  <advance width="323"/>
  <unicode hex="0026"/>
  <outline>
    <contour>
      <point x="85" y="-10" type="curve" smooth="yes"/>
      <point x="151" y="-10"/>
      <point x="187" y="38"/>
      <point x="214" y="85" type="curve"/>
      <point x="235" y="0" type="line"/>
      <point x="258" y="0" type="line"/>
      <point x="233" y="109" type="line"/>
      <point x="265" y="171"/>
      <point x="290" y="239"/>
      <point x="303" y="299" type="curve"/>
      <point x="278" y="299" type="line"/>
      <point x="265" y="242"/>
      <point x="244" y="186"/>
      <point x="224" y="144" type="curve"/>
      <point x="165" y="380" type="line"/>
      <point x="237" y="447"/>
      <point x="287" y="534"/>
      <point x="287" y="638" type="curve" smooth="yes"/>
      <point x="287" y="694"/>
      <point x="262" y="724"/>
      <point x="222" y="724" type="curve" smooth="yes"/>
      <point x="153" y="724"/>
      <point x="115" y="647"/>
      <point x="115" y="537" type="curve" smooth="yes"/>
      <point x="115" y="487"/>
      <point x="122" y="432"/>
      <point x="134" y="387" type="curve"/>
      <point x="46" y="307"/>
      <point x="-12" y="222"/>
      <point x="-12" y="110" type="curve" smooth="yes"/>
      <point x="-12" y="31"/>
      <point x="25" y="-10"/>
    </contour>
    <contour>
      <point x="87" y="15" type="curve" smooth="yes"/>
      <point x="43" y="15"/>
      <point x="15" y="49"/>
      <point x="15" y="114" type="curve" smooth="yes"/>
      <point x="15" y="211"/>
      <point x="65" y="286"/>
      <point x="143" y="362" type="curve"/>
      <point x="206" y="114" type="line"/>
      <point x="178" y="64"/>
      <point x="147" y="15"/>
    </contour>
    <contour>
      <point x="158" y="407" type="curve"/>
      <point x="147" y="444"/>
      <point x="142" y="486"/>
      <point x="142" y="538" type="curve" smooth="yes"/>
      <point x="142" y="621"/>
      <point x="170" y="699"/>
      <point x="219" y="699" type="curve" smooth="yes"/>
      <point x="244" y="699"/>
      <point x="259" y="676"/>
      <point x="259" y="637" type="curve" smooth="yes"/>
      <point x="259" y="546"/>
      <point x="216" y="464"/>
    </contour>
  </outline>
</glyph>
<glyph name="ampersand.serif" format="2">
  <advance width="530"/>
  <unicode hex="0026"/>
  <outline>
    <contour>
      <point x="164" y="-10" type="curve" smooth="yes"/>
      <point x="243" y="-10"/>
      <point x="302" y="39"/>
      <point x="346" y="104" type="curve"/>
      <point x="402" y="0" type="line"/>
      <point x="478" y="0" type="line"/>
      <point x="483" y="20" type="line"/>
      <point x="473" y="20" type="line" smooth="yes"/>
      <point x="423" y="20"/>
      <point x="420" y="23"/>
      <point x="403" y="55" type="curve" smooth="yes"/>
      <point x="363" y="129" type="line"/>
      <point x="396" y="191"/>
      <point x="424" y="271"/>
      <point x="439" y="325" type="curve" smooth="yes"/>
      <point x="457" y="392"/>
      <point x="461" y="395"/>
      <point x="520" y="395" type="curve" smooth="yes"/>
      <point x="534" y="395" type="line"/>
      <point x="539" y="415" type="line"/>
      <point x="433" y="415" type="line"/>
      <point x="424" y="374" type="line" smooth="yes"/>
      <point x="408" y="301"/>
      <point x="383" y="220"/>
      <point x="349" y="153" type="curve"/>
      <point x="225" y="393" type="line"/>
      <point x="372" y="459"/>
      <point x="421" y="506"/>
      <point x="421" y="601" type="curve" smooth="yes"/>
      <point x="421" y="670"/>
      <point x="379" y="724"/>
      <point x="301" y="724" type="curve" smooth="yes"/>
      <point x="211" y="724"/>
      <point x="153" y="661"/>
      <point x="153" y="548" type="curve" smooth="yes"/>
      <point x="153" y="504"/>
      <point x="167" y="453"/>
      <point x="191" y="405" type="curve"/>
      <point x="87" y="360"/>
      <point x="17" y="301"/>
      <point x="17" y="164" type="curve" smooth="yes"/>
      <point x="17" y="71"/>
      <point x="63" y="-10"/>
    </contour>
    <contour>
      <point x="166" y="15" type="curve" smooth="yes"/>
      <point x="87" y="15"/>
      <point x="45" y="86"/>
      <point x="45" y="162" type="curve" smooth="yes"/>
      <point x="45" y="274"/>
      <point x="77" y="326"/>
      <point x="202" y="382" type="curve"/>
      <point x="333" y="127" type="line"/>
      <point x="291" y="61"/>
      <point x="238" y="15"/>
    </contour>
    <contour>
      <point x="214" y="416" type="curve"/>
      <point x="188" y="468"/>
      <point x="181" y="510"/>
      <point x="181" y="548" type="curve" smooth="yes"/>
      <point x="181" y="648"/>
      <point x="230" y="699"/>
      <point x="300" y="699" type="curve" smooth="yes"/>
      <point x="360" y="699"/>
      <point x="393" y="657"/>
      <point x="393" y="601" type="curve" smooth="yes"/>
      <point x="393" y="517"/>
      <point x="349" y="474"/>
    </contour>
  </outline>
</glyph>
<glyph name="parenleft" format="2">
  <advance width="241"/>
  <unicode hex="0028"/>
  <outline>
    <contour>
      <point x="88" y="-158" type="curve"/>
      <point x="112" y="-158" type="line"/>
      <point x="74" y="-80"/>
      <point x="53" y="28"/>
      <point x="53" y="133" type="curve" smooth="yes"/>
      <point x="53" y="356"/>
      <point x="135" y="523"/>
      <point x="296" y="710" type="curve"/>
      <point x="272" y="710" type="line"/>
      <point x="113" y="537"/>
      <point x="26" y="363"/>
      <point x="26" y="134" type="curve" smooth="yes"/>
      <point x="26" y="29"/>
      <point x="51" y="-81"/>
    </contour>
  </outline>
</glyph>
<glyph name="parenright" format="2">
  <advance width="242"/>
  <unicode hex="0029"/>
  <outline>
    <contour>
      <point x="-69" y="-158" type="curve"/>
      <point x="-45" y="-158" type="line"/>
      <point x="114" y="14"/>
      <point x="201" y="189"/>
      <point x="201" y="418" type="curve" smooth="yes"/>
      <point x="201" y="523"/>
      <point x="176" y="633"/>
      <point x="139" y="710" type="curve"/>
      <point x="115" y="710" type="line"/>
      <point x="153" y="632"/>
      <point x="174" y="524"/>
      <point x="174" y="419" type="curve" smooth="yes"/>
      <point x="174" y="196"/>
      <point x="92" y="29"/>
    </contour>
  </outline>
</glyph>
<glyph name="asterisk" format="2">
  <advance width="317"/>
  <unicode hex="002A"/>
  <outline>
    <contour>
      <point x="296" y="490" type="line"/>
      <point x="314" y="500" type="line"/>
      <point x="249" y="612" type="line"/>
      <point x="365" y="636" type="line"/>
      <point x="362" y="655" type="line"/>
      <point x="247" y="626" type="line"/>
      <point x="273" y="753" type="line"/>
      <point x="252" y="757" type="line"/>
      <point x="232" y="628" type="line"/>
      <point x="131" y="693" type="line"/>
      <point x="120" y="677" type="line"/>
      <point x="227" y="616" type="line"/>
      <point x="124" y="531" type="line"/>
      <point x="137" y="517" type="line"/>
      <point x="237" y="604" type="line"/>
    </contour>
  </outline>
</glyph>
<glyph name="comma" format="2">
  <advance width="156"/>
  <unicode hex="002C"/>
  <outline>
    <contour>
      <point x="-39" y="-127" type="curve"/>
      <point x="-20" y="-127" type="line"/>
      <point x="18" y="-72"/>
      <point x="62" y="22"/>
      <point x="80" y="80" type="curve"/>
      <point x="76" y="91" type="line"/>
      <point x="52" y="91" type="line"/>
      <point x="36" y="26"/>
      <point x="-6" y="-69"/>
    </contour>
  </outline>
</glyph>
<glyph name="hyphen" format="2">
  <advance width="262"/>
  <unicode hex="002D"/>
  <outline>
    <contour>
      <point x="24" y="259" type="line"/>
      <point x="235" y="259" type="line"/>
      <point x="235" y="284" type="line"/>
      <point x="24" y="284" type="line"/>
    </contour>
  </outline>
</glyph>
<glyph name="period" format="2">
  <advance width="154"/>
  <unicode hex="002E"/>
  <outline>
    <contour>
      <point x="34" y="-1" type="curve" smooth="yes"/>
      <point x="54" y="-1"/>
      <point x="63" y="26"/>
      <point x="63" y="43" type="curve" smooth="yes"/>
      <point x="63" y="60"/>
      <point x="56" y="68"/>
      <point x="45" y="68" type="curve" smooth="yes"/>
      <point x="25" y="68"/>
      <point x="16" y="42"/>
      <point x="16" y="23" type="curve" smooth="yes"/>
      <point x="16" y="8"/>
      <point x="23" y="-1"/>
    </contour>
  </outline>
</glyph>
<glyph name="slash" format="2">
  <advance width="292"/>
  <unicode hex="002F"/>
  <outline>
    <contour>
      <point x="-45" y="2" type="line"/>
      <point x="-19" y="2" type="line"/>
      <point x="358" y="712" type="line"/>
      <point x="332" y="712" type="line"/>
    </contour>
  </outline>
</glyph>
<glyph name="zero" format="2">
  <advance width="343"/>
  <unicode hex="0030"/>
  <outline>
    <contour>
      <point x="111" y="-10" type="curve" smooth="yes"/>
      <point x="260" y="-10"/>
      <point x="340" y="390"/>
      <point x="340" y="575" type="curve" smooth="yes"/>
      <point x="340" y="676"/>
      <point x="311" y="724"/>
      <point x="253" y="724" type="curve" smooth="yes"/>
      <point x="96" y="724"/>
      <point x="19" y="311"/>
      <point x="19" y="158" type="curve" smooth="yes"/>
      <point x="19" y="40"/>
      <point x="56" y="-10"/>
    </contour>
    <contour>
      <point x="111" y="15" type="curve" smooth="yes"/>
      <point x="72" y="15"/>
      <point x="46" y="50"/>
      <point x="46" y="158" type="curve" smooth="yes"/>
      <point x="46" y="306"/>
      <point x="123" y="699"/>
      <point x="251" y="699" type="curve" smooth="yes"/>
      <point x="294" y="699"/>
      <point x="313" y="665"/>
      <point x="313" y="574" type="curve" smooth="yes"/>
      <point x="313" y="415"/>
      <point x="239" y="15"/>
    </contour>
  </outline>
</glyph>
<glyph name="one" format="2">
  <advance width="343"/>
  <unicode hex="0031"/>
  <outline>
    <contour>
      <point x="233" y="606" type="curve" smooth="yes"/>
      <point x="105" y="0" type="line"/>
      <point x="131" y="0" type="line"/>
      <point x="282" y="714" type="line"/>
      <point x="254" y="714" type="line"/>
      <point x="114" y="601" type="line"/>
      <point x="130" y="583" type="line"/>
      <point x="220" y="656" type="line" smooth="yes"/>
      <point x="233" y="666"/>
      <point x="242" y="675"/>
      <point x="251" y="684" type="curve"/>
      <point x="243" y="653"/>
      <point x="238" y="630"/>
    </contour>
  </outline>
</glyph>
<glyph name="two" format="2">
  <advance width="343"/>
  <unicode hex="0032"/>
  <outline>
    <contour>
      <point x="-35" y="0" type="line"/>
      <point x="231" y="0" type="line"/>
      <point x="235" y="25" type="line"/>
      <point x="0" y="25" type="line"/>
      <point x="0" y="28" type="line"/>
      <point x="162" y="230" type="line" smooth="yes"/>
      <point x="263" y="356"/>
      <point x="344" y="467"/>
      <point x="344" y="592" type="curve" smooth="yes"/>
      <point x="344" y="674"/>
      <point x="292" y="724"/>
      <point x="223" y="724" type="curve" smooth="yes"/>
      <point x="170" y="724"/>
      <point x="133" y="704"/>
      <point x="112" y="688" type="curve"/>
      <point x="127" y="666" type="line"/>
      <point x="151" y="684"/>
      <point x="178" y="699"/>
      <point x="220" y="699" type="curve" smooth="yes"/>
      <point x="278" y="699"/>
      <point x="317" y="662"/>
      <point x="317" y="591" type="curve" smooth="yes"/>
      <point x="317" y="467"/>
      <point x="240" y="368"/>
      <point x="137" y="238" type="curve" smooth="yes"/>
      <point x="-32" y="25" type="line"/>
    </contour>
  </outline>
</glyph>
<glyph name="three" format="2">
  <advance width="343"/>
  <unicode hex="0033"/>
  <outline>
    <contour>
      <point x="78" y="-11" type="curve" smooth="yes"/>
      <point x="218" y="-11"/>
      <point x="275" y="113"/>
      <point x="275" y="224" type="curve" smooth="yes"/>
      <point x="275" y="311"/>
      <point x="242" y="353"/>
      <point x="195" y="368" type="curve"/>
      <point x="196" y="370" type="line"/>
      <point x="284" y="386"/>
      <point x="347" y="486"/>
      <point x="347" y="589" type="curve" smooth="yes"/>
      <point x="347" y="668"/>
      <point x="306" y="724"/>
      <point x="226" y="724" type="curve" smooth="yes"/>
      <point x="168" y="724"/>
      <point x="128" y="699"/>
      <point x="103" y="677" type="curve"/>
      <point x="120" y="654" type="line"/>
      <point x="142" y="675"/>
      <point x="175" y="699"/>
      <point x="224" y="699" type="curve" smooth="yes"/>
      <point x="290" y="699"/>
      <point x="320" y="657"/>
      <point x="320" y="590" type="curve" smooth="yes"/>
      <point x="320" y="493"/>
      <point x="261" y="383"/>
      <point x="141" y="383" type="curve" smooth="yes"/>
      <point x="114" y="383" type="line"/>
      <point x="109" y="358" type="line"/>
      <point x="134" y="358" type="line" smooth="yes"/>
      <point x="203" y="358"/>
      <point x="248" y="324"/>
      <point x="248" y="221" type="curve" smooth="yes"/>
      <point x="248" y="129"/>
      <point x="201" y="14"/>
      <point x="78" y="14" type="curve" smooth="yes"/>
      <point x="34" y="14"/>
      <point x="2" y="27"/>
      <point x="-23" y="43" type="curve"/>
      <point x="-23" y="12" type="line"/>
      <point x="-2" y="-1"/>
      <point x="38" y="-11"/>
    </contour>
  </outline>
</glyph>
<glyph name="four" format="2">
  <advance width="343"/>
  <unicode hex="0034"/>
  <outline>
    <contour>
      <point x="168" y="0" type="line"/>
      <point x="194" y="0" type="line"/>
      <point x="230" y="168" type="line"/>
      <point x="299" y="168" type="line"/>
      <point x="304" y="193" type="line"/>
      <point x="235" y="193" type="line"/>
      <point x="348" y="723" type="line"/>
      <point x="306" y="723" type="line"/>
      <point x="-17" y="187" type="line"/>
      <point x="-20" y="168" type="line"/>
      <point x="204" y="168" type="line"/>
    </contour>
    <contour>
      <point x="16" y="193" type="line"/>
      <point x="270" y="616" type="line" smooth="yes"/>
      <point x="289" y="648"/>
      <point x="300" y="667"/>
      <point x="317" y="699" type="curve"/>
      <point x="319" y="699" type="line"/>
      <point x="311" y="665"/>
      <point x="302" y="623"/>
      <point x="293" y="583" type="curve" smooth="yes"/>
      <point x="209" y="193" type="line"/>
    </contour>
  </outline>
</glyph>
<glyph name="five" format="2">
  <advance width="343"/>
  <unicode hex="0035"/>
  <outline>
    <contour>
      <point x="71" y="-10" type="curve" smooth="yes"/>
      <point x="224" y="-10"/>
      <point x="290" y="129"/>
      <point x="290" y="259" type="curve" smooth="yes"/>
      <point x="290" y="359"/>
      <point x="238" y="422"/>
      <point x="147" y="422" type="curve" smooth="yes"/>
      <point x="118" y="422"/>
      <point x="98" y="416"/>
      <point x="85" y="412" type="curve"/>
      <point x="162" y="689" type="line"/>
      <point x="343" y="689" type="line"/>
      <point x="349" y="714" type="line"/>
      <point x="143" y="714" type="line"/>
      <point x="57" y="406" type="line"/>
      <point x="72" y="383" type="line"/>
      <point x="92" y="391"/>
      <point x="115" y="397"/>
      <point x="145" y="397" type="curve" smooth="yes"/>
      <point x="223" y="397"/>
      <point x="263" y="352"/>
      <point x="263" y="257" type="curve" smooth="yes"/>
      <point x="263" y="140"/>
      <point x="208" y="15"/>
      <point x="72" y="15" type="curve" smooth="yes"/>
      <point x="27" y="15"/>
      <point x="-7" y="31"/>
      <point x="-27" y="44" type="curve"/>
      <point x="-27" y="14" type="line"/>
      <point x="-9" y="4"/>
      <point x="27" y="-10"/>
    </contour>
  </outline>
</glyph>
<glyph name="six" format="2">
  <advance width="343"/>
  <unicode hex="0036"/>
  <outline>
    <contour>
      <point x="127" y="-10" type="curve" smooth="yes"/>
      <point x="252" y="-10"/>
      <point x="306" y="168"/>
      <point x="306" y="295" type="curve" smooth="yes"/>
      <point x="306" y="384"/>
      <point x="263" y="435"/>
      <point x="199" y="435" type="curve" smooth="yes"/>
      <point x="143" y="435"/>
      <point x="102" y="403"/>
      <point x="72" y="352" type="curve"/>
      <point x="68" y="352" type="line"/>
      <point x="122" y="591"/>
      <point x="194" y="699"/>
      <point x="301" y="699" type="curve" smooth="yes"/>
      <point x="322" y="699"/>
      <point x="341" y="695"/>
      <point x="354" y="688" type="curve"/>
      <point x="364" y="713" type="line"/>
      <point x="349" y="720"/>
      <point x="330" y="724"/>
      <point x="302" y="724" type="curve" smooth="yes"/>
      <point x="209" y="724"/>
      <point x="148" y="652"/>
      <point x="112" y="576" type="curve" smooth="yes"/>
      <point x="63" y="472"/>
      <point x="22" y="306"/>
      <point x="22" y="150" type="curve" smooth="yes"/>
      <point x="22" y="41"/>
      <point x="66" y="-10"/>
    </contour>
    <contour>
      <point x="129" y="15" type="curve" smooth="yes"/>
      <point x="78" y="15"/>
      <point x="49" y="58"/>
      <point x="49" y="154" type="curve" smooth="yes"/>
      <point x="49" y="214"/>
      <point x="53" y="252"/>
      <point x="63" y="284" type="curve" smooth="yes"/>
      <point x="84" y="355"/>
      <point x="130" y="410"/>
      <point x="199" y="410" type="curve" smooth="yes"/>
      <point x="248" y="410"/>
      <point x="279" y="369"/>
      <point x="279" y="291" type="curve" smooth="yes"/>
      <point x="279" y="190"/>
      <point x="236" y="15"/>
    </contour>
  </outline>
</glyph>
<glyph name="seven" format="2">
  <advance width="343"/>
  <unicode hex="0037"/>
  <outline>
    <contour>
      <point x="37" y="0" type="line"/>
      <point x="66" y="0" type="line"/>
      <point x="379" y="689" type="line"/>
      <point x="380" y="714" type="line"/>
      <point x="99" y="714" type="line"/>
      <point x="94" y="689" type="line"/>
      <point x="351" y="689" type="line"/>
    </contour>
  </outline>
</glyph>
<glyph name="eight" format="2">
  <advance width="343"/>
  <unicode hex="0038"/>
  <outline>
    <contour>
      <point x="124" y="-10" type="curve" smooth="yes"/>
      <point x="228" y="-10"/>
      <point x="287" y="77"/>
      <point x="287" y="174" type="curve" smooth="yes"/>
      <point x="287" y="257"/>
      <point x="250" y="315"/>
      <point x="198" y="372" type="curve"/>
      <point x="297" y="422"/>
      <point x="353" y="496"/>
      <point x="353" y="596" type="curve" smooth="yes"/>
      <point x="353" y="671"/>
      <point x="304" y="724"/>
      <point x="237" y="724" type="curve" smooth="yes"/>
      <point x="144" y="724"/>
      <point x="87" y="651"/>
      <point x="87" y="551" type="curve" smooth="yes"/>
      <point x="87" y="482"/>
      <point x="115" y="428"/>
      <point x="158" y="378" type="curve"/>
      <point x="53" y="325"/>
      <point x="-13" y="258"/>
      <point x="-13" y="138" type="curve" smooth="yes"/>
      <point x="-13" y="52"/>
      <point x="43" y="-10"/>
    </contour>
    <contour>
      <point x="124" y="16" type="curve" smooth="yes"/>
      <point x="58" y="16"/>
      <point x="14" y="66"/>
      <point x="14" y="140" type="curve" smooth="yes"/>
      <point x="14" y="255"/>
      <point x="80" y="312"/>
      <point x="174" y="360" type="curve"/>
      <point x="221" y="308"/>
      <point x="260" y="254"/>
      <point x="260" y="174" type="curve" smooth="yes"/>
      <point x="260" y="86"/>
      <point x="212" y="16"/>
    </contour>
    <contour>
      <point x="182" y="389" type="curve"/>
      <point x="141" y="436"/>
      <point x="114" y="483"/>
      <point x="114" y="553" type="curve" smooth="yes"/>
      <point x="114" y="646"/>
      <point x="165" y="699"/>
      <point x="236" y="699" type="curve" smooth="yes"/>
      <point x="288" y="699"/>
      <point x="326" y="661"/>
      <point x="326" y="593" type="curve" smooth="yes"/>
      <point x="326" y="505"/>
      <point x="280" y="437"/>
    </contour>
  </outline>
</glyph>
<glyph name="nine" format="2">
  <advance width="343"/>
  <unicode hex="0039"/>
  <outline>
    <contour>
      <point x="57" y="-10" type="curve" smooth="yes"/>
      <point x="153" y="-10"/>
      <point x="211" y="62"/>
      <point x="247" y="138" type="curve" smooth="yes"/>
      <point x="296" y="242"/>
      <point x="337" y="408"/>
      <point x="337" y="564" type="curve" smooth="yes"/>
      <point x="337" y="672"/>
      <point x="294" y="724"/>
      <point x="230" y="724" type="curve" smooth="yes"/>
      <point x="107" y="724"/>
      <point x="53" y="546"/>
      <point x="53" y="419" type="curve" smooth="yes"/>
      <point x="53" y="331"/>
      <point x="95" y="279"/>
      <point x="160" y="279" type="curve" smooth="yes"/>
      <point x="216" y="279"/>
      <point x="259" y="311"/>
      <point x="289" y="362" type="curve"/>
      <point x="291" y="362" type="line"/>
      <point x="237" y="123"/>
      <point x="165" y="15"/>
      <point x="58" y="15" type="curve" smooth="yes"/>
      <point x="32" y="15"/>
      <point x="8" y="21"/>
      <point x="-5" y="29" type="curve"/>
      <point x="-5" y="1" type="line"/>
      <point x="9" y="-5"/>
      <point x="29" y="-10"/>
    </contour>
    <contour>
      <point x="160" y="304" type="curve" smooth="yes"/>
      <point x="111" y="304"/>
      <point x="80" y="345"/>
      <point x="80" y="423" type="curve" smooth="yes"/>
      <point x="80" y="524"/>
      <point x="123" y="699"/>
      <point x="230" y="699" type="curve" smooth="yes"/>
      <point x="281" y="699"/>
      <point x="310" y="656"/>
      <point x="310" y="560" type="curve" smooth="yes"/>
      <point x="310" y="500"/>
      <point x="306" y="462"/>
      <point x="296" y="430" type="curve" smooth="yes"/>
      <point x="275" y="359"/>
      <point x="229" y="304"/>
    </contour>
  </outline>
</glyph>
<glyph name="semicolon" format="2">
  <advance width="156"/>
  <unicode hex="003B"/>
  <outline>
    <contour>
      <point x="-45" y="-127" type="curve"/>
      <point x="-26" y="-127" type="line"/>
      <point x="12" y="-72"/>
      <point x="56" y="22"/>
      <point x="74" y="80" type="curve"/>
      <point x="70" y="91" type="line"/>
      <point x="46" y="91" type="line"/>
      <point x="30" y="26"/>
      <point x="-12" y="-69"/>
    </contour>
    <contour>
      <point x="124" y="460" type="curve" smooth="yes"/>
      <point x="144" y="460"/>
      <point x="153" y="487"/>
      <point x="153" y="504" type="curve" smooth="yes"/>
      <point x="153" y="521"/>
      <point x="146" y="529"/>
      <point x="135" y="529" type="curve" smooth="yes"/>
      <point x="115" y="529"/>
      <point x="106" y="503"/>
      <point x="106" y="484" type="curve" smooth="yes"/>
      <point x="106" y="469"/>
      <point x="113" y="460"/>
    </contour>
  </outline>
</glyph>
<glyph name="question" format="2">
  <advance width="241"/>
  <unicode hex="003F"/>
  <outline>
    <contour>
      <point x="43" y="166" type="curve"/>
      <point x="67" y="166" type="line"/>
      <point x="85" y="266"/>
      <point x="103" y="306"/>
      <point x="171" y="389" type="curve" smooth="yes"/>
      <point x="237" y="470"/>
      <point x="282" y="532"/>
      <point x="282" y="618" type="curve" smooth="yes"/>
      <point x="282" y="684"/>
      <point x="244" y="724"/>
      <point x="181" y="724" type="curve" smooth="yes"/>
      <point x="144" y="724"/>
      <point x="111" y="712"/>
      <point x="87" y="694" type="curve"/>
      <point x="99" y="673" type="line"/>
      <point x="119" y="687"/>
      <point x="143" y="699"/>
      <point x="178" y="699" type="curve" smooth="yes"/>
      <point x="225" y="699"/>
      <point x="255" y="669"/>
      <point x="255" y="617" type="curve" smooth="yes"/>
      <point x="255" y="532"/>
      <point x="216" y="484"/>
      <point x="149" y="400" type="curve" smooth="yes"/>
      <point x="82" y="317"/>
      <point x="62" y="269"/>
    </contour>
    <contour>
      <point x="31" y="-1" type="curve" smooth="yes"/>
      <point x="51" y="-1"/>
      <point x="60" y="26"/>
      <point x="60" y="43" type="curve" smooth="yes"/>
      <point x="60" y="60"/>
      <point x="53" y="68"/>
      <point x="42" y="68" type="curve" smooth="yes"/>
      <point x="22" y="68"/>
      <point x="13" y="42"/>
      <point x="13" y="23" type="curve" smooth="yes"/>
      <point x="13" y="8"/>
      <point x="20" y="-1"/>
    </contour>
  </outline>
</glyph>
<glyph name="at" format="2">
  <advance width="509"/>
  <unicode hex="0040"/>
  <outline>
    <contour>
      <point x="174" y="-90" type="curve" smooth="yes"/>
      <point x="212" y="-90"/>
      <point x="240" y="-80"/>
      <point x="259" y="-70" type="curve"/>
      <point x="259" y="-44" type="line"/>
      <point x="244" y="-54"/>
      <point x="211" y="-65"/>
      <point x="176" y="-65" type="curve" smooth="yes"/>
      <point x="86" y="-65"/>
      <point x="52" y="14"/>
      <point x="52" y="133" type="curve" smooth="yes"/>
      <point x="52" y="379"/>
      <point x="154" y="693"/>
      <point x="341" y="693" type="curve" smooth="yes"/>
      <point x="423" y="693"/>
      <point x="465" y="640"/>
      <point x="465" y="504" type="curve" smooth="yes"/>
      <point x="465" y="362"/>
      <point x="407" y="140"/>
      <point x="338" y="140" type="curve" smooth="yes"/>
      <point x="315" y="140"/>
      <point x="308" y="156"/>
      <point x="308" y="191" type="curve" smooth="yes"/>
      <point x="308" y="210"/>
      <point x="313" y="246"/>
      <point x="327" y="301" type="curve" smooth="yes"/>
      <point x="378" y="502" type="line"/>
      <point x="361" y="509"/>
      <point x="337" y="513"/>
      <point x="318" y="513" type="curve" smooth="yes"/>
      <point x="209" y="513"/>
      <point x="148" y="315"/>
      <point x="148" y="208" type="curve" smooth="yes"/>
      <point x="148" y="141"/>
      <point x="171" y="113"/>
      <point x="204" y="113" type="curve" smooth="yes"/>
      <point x="243" y="113"/>
      <point x="270" y="151"/>
      <point x="285" y="202" type="curve"/>
      <point x="286" y="205" type="line"/>
      <point x="285" y="149"/>
      <point x="295" y="115"/>
      <point x="335" y="115" type="curve" smooth="yes"/>
      <point x="432" y="115"/>
      <point x="492" y="361"/>
      <point x="492" y="506" type="curve" smooth="yes"/>
      <point x="492" y="651"/>
      <point x="442" y="718"/>
      <point x="343" y="718" type="curve" smooth="yes"/>
      <point x="135" y="718"/>
      <point x="25" y="389"/>
      <point x="25" y="132" type="curve" smooth="yes"/>
      <point x="25" y="-8"/>
      <point x="70" y="-90"/>
    </contour>
    <contour>
      <point x="210" y="138" type="curve" smooth="yes"/>
      <point x="187" y="138"/>
      <point x="175" y="159"/>
      <point x="175" y="210" type="curve" smooth="yes"/>
      <point x="175" y="305"/>
      <point x="228" y="488"/>
      <point x="315" y="488" type="curve" smooth="yes"/>
      <point x="328" y="488"/>
      <point x="339" y="487"/>
      <point x="347" y="484" type="curve"/>
      <point x="306" y="326" type="line" smooth="yes"/>
      <point x="274" y="201"/>
      <point x="239" y="138"/>
    </contour>
  </outline>
</glyph>
<glyph name="at.serif" format="2">
  <advance width="697"/>
  <unicode hex="0040"/>
  <outline>
    <contour>
      <point x="299" y="-132" type="curve" smooth="yes"/>
      <point x="403" y="-132"/>
      <point x="471" y="-80"/>
      <point x="519" y="-33" type="curve"/>
      <point x="504" y="-12" type="line"/>
      <point x="461" y="-55"/>
      <point x="397" y="-107"/>
      <point x="306" y="-107" type="curve" smooth="yes"/>
      <point x="183" y="-107"/>
      <point x="97" y="-15"/>
      <point x="97" y="207" type="curve" smooth="yes"/>
      <point x="97" y="489"/>
      <point x="231" y="699"/>
      <point x="408" y="699" type="curve" smooth="yes"/>
      <point x="565" y="699"/>
      <point x="631" y="568"/>
      <point x="631" y="402" type="curve" smooth="yes"/>
      <point x="631" y="226"/>
      <point x="566" y="112"/>
      <point x="509" y="112" type="curve" smooth="yes"/>
      <point x="471" y="112"/>
      <point x="456" y="147"/>
      <point x="456" y="204" type="curve" smooth="yes"/>
      <point x="456" y="229"/>
      <point x="458" y="255"/>
      <point x="464" y="289" type="curve" smooth="yes"/>
      <point x="506" y="530" type="line"/>
      <point x="496" y="530" type="line"/>
      <point x="476" y="505" type="line"/>
      <point x="463" y="518"/>
      <point x="439" y="539"/>
      <point x="401" y="539" type="curve" smooth="yes"/>
      <point x="275" y="539"/>
      <point x="217" y="383"/>
      <point x="217" y="258" type="curve" smooth="yes"/>
      <point x="217" y="139"/>
      <point x="258" y="87"/>
      <point x="320" y="87" type="curve" smooth="yes"/>
      <point x="373" y="87"/>
      <point x="407" y="130"/>
      <point x="428" y="178" type="curve"/>
      <point x="431" y="178" type="line"/>
      <point x="437" y="125"/>
      <point x="458" y="87"/>
      <point x="509" y="87" type="curve" smooth="yes"/>
      <point x="583" y="87"/>
      <point x="659" y="218"/>
      <point x="659" y="404" type="curve" smooth="yes"/>
      <point x="659" y="592"/>
      <point x="576" y="724"/>
      <point x="412" y="724" type="curve" smooth="yes"/>
      <point x="214" y="724"/>
      <point x="69" y="505"/>
      <point x="69" y="201" type="curve" smooth="yes"/>
      <point x="69" y="-22"/>
      <point x="161" y="-132"/>
    </contour>
    <contour>
      <point x="326" y="112" type="curve" smooth="yes"/>
      <point x="275" y="112"/>
      <point x="245" y="150"/>
      <point x="245" y="256" type="curve" smooth="yes"/>
      <point x="245" y="351"/>
      <point x="289" y="514"/>
      <point x="397" y="514" type="curve" smooth="yes"/>
      <point x="434" y="514"/>
      <point x="457" y="496"/>
      <point x="468" y="477" type="curve"/>
      <point x="430" y="255" type="line" smooth="yes"/>
      <point x="421" y="200"/>
      <point x="382" y="112"/>
    </contour>
  </outline>
</glyph>
<glyph name="A" format="2">
  <advance width="326"/>
  <unicode hex="0041"/>
  <anchor x="107" y="0" name="bottom"/>
  <anchor x="241" y="714" name="top"/>
  <anchor x="402" y="714" name="topright"/>
  <outline>
    <contour>
      <point x="-68" y="0" type="line"/>
      <point x="-40" y="0" type="line"/>
      <point x="77" y="284" type="line"/>
      <point x="232" y="284" type="line"/>
      <point x="231" y="0" type="line"/>
      <point x="257" y="0" type="line"/>
      <point x="259" y="717" type="line"/>
      <point x="226" y="717" type="line"/>
    </contour>
    <contour>
      <point x="86" y="309" type="line"/>
      <point x="205" y="605" type="line" smooth="yes"/>
      <point x="218" y="637"/>
      <point x="227" y="660"/>
      <point x="233" y="678" type="curve"/>
      <point x="235" y="678" type="line"/>
      <point x="234" y="660"/>
      <point x="234" y="634"/>
      <point x="234" y="606" type="curve" smooth="yes"/>
      <point x="231" y="309" type="line"/>
    </contour>
  </outline>
</glyph>
<glyph name="A.serif" format="2">
  <advance width="511"/>
  <unicode hex="0041"/>
  <anchor x="199" y="0" name="bottom"/>
  <anchor x="351" y="714" name="top"/>
  <anchor x="586" y="714" name="topright"/>
  <outline>
    <contour>
      <point x="-58" y="0" type="line"/>
      <point x="106" y="0" type="line"/>
      <point x="111" y="20" type="line"/>
      <point x="85" y="20" type="line" smooth="yes"/>
      <point x="44" y="20"/>
      <point x="39" y="21"/>
      <point x="39" y="36" type="curve" smooth="yes"/>
      <point x="39" y="48"/>
      <point x="45" y="64"/>
      <point x="64" y="103" type="curve" smooth="yes"/>
      <point x="258" y="493" type="line" smooth="yes"/>
      <point x="290" y="557"/>
      <point x="312" y="604"/>
      <point x="333" y="653" type="curve"/>
      <point x="334" y="605"/>
      <point x="338" y="552"/>
      <point x="343" y="493" type="curve" smooth="yes"/>
      <point x="371" y="137" type="line" smooth="yes"/>
      <point x="373" y="116"/>
      <point x="375" y="79"/>
      <point x="375" y="66" type="curve" smooth="yes"/>
      <point x="375" y="23"/>
      <point x="371" y="20"/>
      <point x="336" y="20" type="curve" smooth="yes"/>
      <point x="300" y="20" type="line"/>
      <point x="295" y="0" type="line"/>
      <point x="448" y="0" type="line"/>
      <point x="453" y="20" type="line"/>
      <point x="438" y="20" type="line" smooth="yes"/>
      <point x="409" y="20"/>
      <point x="407" y="23"/>
      <point x="402" y="86" type="curve" smooth="yes"/>
      <point x="350" y="714" type="line"/>
      <point x="341" y="714" type="line"/>
      <point x="34" y="98" type="line" smooth="yes"/>
      <point x="-3" y="23"/>
      <point x="-8" y="20"/>
      <point x="-41" y="20" type="curve" smooth="yes"/>
      <point x="-53" y="20" type="line"/>
    </contour>
    <contour>
      <point x="127" y="245" type="line"/>
      <point x="368" y="245" type="line"/>
      <point x="370" y="270" type="line"/>
      <point x="129" y="270" type="line"/>
    </contour>
  </outline>
</glyph>
<glyph name="B" format="2">
  <advance width="374"/>
  <unicode hex="0042"/>
  <anchor x="131" y="0" name="bottom"/>
  <anchor x="283" y="714" name="top"/>
  <anchor x="450" y="714" name="topright"/>
  <outline>
    <contour>
      <point x="4" y="0" type="line"/>
      <point x="110" y="0" type="line" smooth="yes"/>
      <point x="255" y="0"/>
      <point x="321" y="109"/>
      <point x="321" y="242" type="curve" smooth="yes"/>
      <point x="321" y="316"/>
      <point x="286" y="361"/>
      <point x="236" y="372" type="curve"/>
      <point x="236" y="374" type="line"/>
      <point x="334" y="395"/>
      <point x="378" y="491"/>
      <point x="378" y="584" type="curve" smooth="yes"/>
      <point x="378" y="662"/>
      <point x="338" y="714"/>
      <point x="247" y="714" type="curve" smooth="yes"/>
      <point x="154" y="714" type="line"/>
    </contour>
    <contour>
      <point x="111" y="25" type="curve" smooth="yes"/>
      <point x="35" y="25" type="line"/>
      <point x="107" y="363" type="line"/>
      <point x="171" y="363" type="line" smooth="yes"/>
      <point x="244" y="363"/>
      <point x="294" y="331"/>
      <point x="294" y="239" type="curve" smooth="yes"/>
      <point x="294" y="135"/>
      <point x="248" y="25"/>
    </contour>
    <contour>
      <point x="180" y="388" type="curve" smooth="yes"/>
      <point x="112" y="388" type="line"/>
      <point x="175" y="689" type="line"/>
      <point x="242" y="689" type="line" smooth="yes"/>
      <point x="317" y="689"/>
      <point x="351" y="651"/>
      <point x="351" y="582" type="curve" smooth="yes"/>
      <point x="351" y="491"/>
      <point x="305" y="388"/>
    </contour>
  </outline>
</glyph>
<glyph name="B.serif" format="2">
  <advance width="487"/>
  <unicode hex="0042"/>
  <anchor x="184" y="0" name="bottom"/>
  <anchor x="336" y="714" name="top"/>
  <anchor x="562" y="714" name="topright"/>
  <outline>
    <contour>
      <point x="-22" y="0" type="line"/>
      <point x="200" y="0" type="line" smooth="yes"/>
      <point x="342" y="0"/>
      <point x="417" y="93"/>
      <point x="417" y="234" type="curve" smooth="yes"/>
      <point x="417" y="307"/>
      <point x="378" y="360"/>
      <point x="324" y="374" type="curve"/>
      <point x="324" y="376" type="line"/>
      <point x="407" y="398"/>
      <point x="464" y="454"/>
      <point x="464" y="569" type="curve" smooth="yes"/>
      <point x="464" y="660"/>
      <point x="411" y="714"/>
      <point x="293" y="714" type="curve" smooth="yes"/>
      <point x="130" y="714" type="line"/>
      <point x="125" y="694" type="line"/>
      <point x="161" y="694" type="line" smooth="yes"/>
      <point x="187" y="694"/>
      <point x="194" y="691"/>
      <point x="194" y="666" type="curve" smooth="yes"/>
      <point x="194" y="658"/>
      <point x="192" y="639"/>
      <point x="184" y="600" type="curve" smooth="yes"/>
      <point x="81" y="116" type="line" smooth="yes"/>
      <point x="61" y="23"/>
      <point x="54" y="20"/>
      <point x="4" y="20" type="curve" smooth="yes"/>
      <point x="-17" y="20" type="line"/>
    </contour>
    <contour>
      <point x="191" y="25" type="curve" smooth="yes"/>
      <point x="90" y="25" type="line"/>
      <point x="162" y="366" type="line"/>
      <point x="244" y="366" type="line" smooth="yes"/>
      <point x="339" y="366"/>
      <point x="389" y="314"/>
      <point x="389" y="234" type="curve" smooth="yes"/>
      <point x="389" y="106"/>
      <point x="330" y="25"/>
    </contour>
    <contour>
      <point x="245" y="391" type="curve" smooth="yes"/>
      <point x="168" y="391" type="line"/>
      <point x="230" y="689" type="line"/>
      <point x="290" y="689" type="line" smooth="yes"/>
      <point x="387" y="689"/>
      <point x="436" y="649"/>
      <point x="436" y="568" type="curve" smooth="yes"/>
      <point x="436" y="459"/>
      <point x="380" y="391"/>
    </contour>
  </outline>
</glyph>
<glyph name="C" format="2">
  <advance width="337"/>
  <unicode hex="0043"/>
  <anchor x="113" y="0" name="bottom"/>
  <anchor x="265" y="714" name="top"/>
  <anchor x="413" y="714" name="topright"/>
  <outline>
    <contour>
      <point x="183" y="-10" type="curve" smooth="yes"/>
      <point x="208" y="-10"/>
      <point x="231" y="-5"/>
      <point x="258" y="4" type="curve"/>
      <point x="258" y="31" type="line"/>
      <point x="229" y="20"/>
      <point x="206" y="15"/>
      <point x="185" y="15" type="curve" smooth="yes"/>
      <point x="103" y="15"/>
      <point x="64" y="76"/>
      <point x="64" y="224" type="curve" smooth="yes"/>
      <point x="64" y="395"/>
      <point x="152" y="700"/>
      <point x="332" y="700" type="curve" smooth="yes"/>
      <point x="362" y="700"/>
      <point x="386" y="692"/>
      <point x="400" y="678" type="curve"/>
      <point x="416" y="700" type="line"/>
      <point x="397" y="715"/>
      <point x="373" y="725"/>
      <point x="334" y="725" type="curve" smooth="yes"/>
      <point x="125" y="725"/>
      <point x="37" y="397"/>
      <point x="37" y="224" type="curve" smooth="yes"/>
      <point x="37" y="58"/>
      <point x="87" y="-10"/>
    </contour>
  </outline>
</glyph>
<glyph name="C.serif" format="2">
  <advance width="456"/>
  <unicode hex="0043"/>
  <anchor x="202" y="0" name="bottom"/>
  <anchor x="344" y="714" name="top"/>
  <anchor x="531" y="714" name="topright"/>
  <outline>
    <contour>
      <point x="221" y="-10" type="curve" smooth="yes"/>
      <point x="345" y="-10"/>
      <point x="383" y="56"/>
      <point x="383" y="93" type="curve" smooth="yes"/>
      <point x="383" y="106"/>
      <point x="378" y="115"/>
      <point x="373" y="119" type="curve"/>
      <point x="350" y="51"/>
      <point x="309" y="15"/>
      <point x="223" y="15" type="curve" smooth="yes"/>
      <point x="132" y="15"/>
      <point x="75" y="95"/>
      <point x="75" y="234" type="curve" smooth="yes"/>
      <point x="75" y="483"/>
      <point x="200" y="697"/>
      <point x="352" y="697" type="curve" smooth="yes"/>
      <point x="428" y="697"/>
      <point x="456" y="642"/>
      <point x="456" y="557" type="curve"/>
      <point x="472" y="557"/>
      <point x="483" y="570"/>
      <point x="483" y="590" type="curve" smooth="yes"/>
      <point x="483" y="669"/>
      <point x="432" y="722"/>
      <point x="354" y="722" type="curve" smooth="yes"/>
      <point x="184" y="722"/>
      <point x="47" y="505"/>
      <point x="47" y="234" type="curve" smooth="yes"/>
      <point x="47" y="82"/>
      <point x="108" y="-10"/>
    </contour>
  </outline>
</glyph>
<glyph name="D" format="2">
  <advance width="411"/>
  <unicode hex="0044"/>
  <anchor x="150" y="0" name="bottom"/>
  <anchor x="226" y="357" name="center"/>
  <anchor x="302" y="714" name="top"/>
  <anchor x="487" y="714" name="topright"/>
  <outline>
    <contour>
      <point x="3" y="0" type="line"/>
      <point x="85" y="0" type="line" smooth="yes"/>
      <point x="316" y="0"/>
      <point x="392" y="319"/>
      <point x="392" y="509" type="curve" smooth="yes"/>
      <point x="392" y="655"/>
      <point x="333" y="714"/>
      <point x="229" y="714" type="curve" smooth="yes"/>
      <point x="154" y="714" type="line"/>
    </contour>
    <contour>
      <point x="84" y="25" type="curve" smooth="yes"/>
      <point x="34" y="25" type="line"/>
      <point x="176" y="689" type="line"/>
      <point x="224" y="689" type="line" smooth="yes"/>
      <point x="316" y="689"/>
      <point x="364" y="645"/>
      <point x="364" y="509" type="curve" smooth="yes"/>
      <point x="364" y="323"/>
      <point x="290" y="25"/>
    </contour>
  </outline>
</glyph>
<glyph name="E" format="2">
  <advance width="338"/>
  <unicode hex="0045"/>
  <anchor x="113" y="0" name="bottom"/>
  <anchor x="265" y="714" name="top"/>
  <anchor x="414" y="714" name="topright"/>
  <outline>
    <contour>
      <point x="2" y="0" type="line"/>
      <point x="227" y="0" type="line"/>
      <point x="232" y="25" type="line"/>
      <point x="33" y="25" type="line"/>
      <point x="105" y="363" type="line"/>
      <point x="291" y="363" type="line"/>
      <point x="297" y="388" type="line"/>
      <point x="111" y="388" type="line"/>
      <point x="175" y="689" type="line"/>
      <point x="374" y="689" type="line"/>
      <point x="379" y="714" type="line"/>
      <point x="154" y="714" type="line"/>
    </contour>
  </outline>
</glyph>
<glyph name="E.serif" format="2">
  <advance width="475"/>
  <unicode hex="0045"/>
  <anchor x="180" y="0" name="bottom"/>
  <anchor x="332" y="714" name="top"/>
  <anchor x="550" y="714" name="topright"/>
  <outline>
    <contour>
      <point x="-22" y="0" type="line"/>
      <point x="368" y="0" type="line"/>
      <point x="405" y="150" type="line"/>
      <point x="383" y="150" type="line"/>
      <point x="370" y="105" type="line" smooth="yes"/>
      <point x="347" y="27"/>
      <point x="343" y="25"/>
      <point x="273" y="25" type="curve" smooth="yes"/>
      <point x="89" y="25" type="line"/>
      <point x="161" y="362" type="line"/>
      <point x="365" y="362" type="line"/>
      <point x="370" y="387" type="line"/>
      <point x="166" y="387" type="line"/>
      <point x="230" y="689" type="line"/>
      <point x="397" y="689" type="line" smooth="yes"/>
      <point x="449" y="689"/>
      <point x="454" y="686"/>
      <point x="454" y="656" type="curve" smooth="yes"/>
      <point x="454" y="636"/>
      <point x="448" y="586"/>
      <point x="444" y="564" type="curve"/>
      <point x="466" y="564" type="line"/>
      <point x="494" y="714" type="line"/>
      <point x="130" y="714" type="line"/>
      <point x="125" y="694" type="line"/>
      <point x="137" y="694" type="line" smooth="yes"/>
      <point x="188" y="694"/>
      <point x="192" y="692"/>
      <point x="192" y="656" type="curve" smooth="yes"/>
      <point x="192" y="646"/>
      <point x="188" y="620"/>
      <point x="182" y="591" type="curve" smooth="yes"/>
      <point x="76" y="96" type="line" smooth="yes"/>
      <point x="61" y="24"/>
      <point x="57" y="20"/>
      <point x="-7" y="20" type="curve" smooth="yes"/>
      <point x="-17" y="20" type="line"/>
    </contour>
  </outline>
</glyph>
<glyph name="F" format="2">
  <advance width="312"/>
  <unicode hex="0046"/>
  <anchor x="100" y="0" name="bottom"/>
  <anchor x="252" y="714" name="top"/>
  <anchor x="388" y="714" name="topright"/>
  <outline>
    <contour>
      <point x="2" y="0" type="line"/>
      <point x="28" y="0" type="line"/>
      <point x="98" y="329" type="line"/>
      <point x="286" y="329" type="line"/>
      <point x="291" y="354" type="line"/>
      <point x="103" y="354" type="line"/>
      <point x="175" y="689" type="line"/>
      <point x="375" y="689" type="line"/>
      <point x="380" y="714" type="line"/>
      <point x="154" y="714" type="line"/>
    </contour>
  </outline>
</glyph>
<glyph name="G" format="2">
  <advance width="452"/>
  <unicode hex="0047"/>
  <anchor x="170" y="0" name="bottom"/>
  <anchor x="322" y="714" name="top"/>
  <anchor x="528" y="714" name="topright"/>
  <outline>
    <contour>
      <point x="213" y="-10" type="curve" smooth="yes"/>
      <point x="263" y="-10"/>
      <point x="300" y="-1"/>
      <point x="335" y="12" type="curve"/>
      <point x="407" y="352" type="line"/>
      <point x="282" y="352" type="line"/>
      <point x="276" y="327" type="line"/>
      <point x="375" y="327" type="line"/>
      <point x="313" y="32" type="line"/>
      <point x="284" y="21"/>
      <point x="253" y="15"/>
      <point x="217" y="15" type="curve" smooth="yes"/>
      <point x="116" y="15"/>
      <point x="63" y="75"/>
      <point x="63" y="218" type="curve" smooth="yes"/>
      <point x="63" y="452"/>
      <point x="166" y="700"/>
      <point x="349" y="700" type="curve" smooth="yes"/>
      <point x="395" y="700"/>
      <point x="429" y="684"/>
      <point x="458" y="662" type="curve"/>
      <point x="474" y="683" type="line"/>
      <point x="444" y="705"/>
      <point x="407" y="725"/>
      <point x="349" y="725" type="curve" smooth="yes"/>
      <point x="147" y="725"/>
      <point x="36" y="466"/>
      <point x="36" y="215" type="curve" smooth="yes"/>
      <point x="36" y="63"/>
      <point x="97" y="-10"/>
    </contour>
  </outline>
</glyph>
<glyph name="G.serif" format="2">
  <advance width="513"/>
  <unicode hex="0047"/>
  <anchor x="217" y="0" name="bottom"/>
  <anchor x="369" y="714" name="top"/>
  <anchor x="563" y="714" name="topright"/>
  <outline>
    <contour>
      <point x="238" y="-10" type="curve" smooth="yes"/>
      <point x="297" y="-10"/>
      <point x="344" y="5"/>
      <point x="395" y="36" type="curve"/>
      <point x="433" y="208" type="line" smooth="yes"/>
      <point x="451" y="291"/>
      <point x="454" y="295"/>
      <point x="483" y="295" type="curve" smooth="yes"/>
      <point x="502" y="295" type="line"/>
      <point x="507" y="315" type="line"/>
      <point x="356" y="315" type="line"/>
      <point x="351" y="295" type="line"/>
      <point x="384" y="295" type="line" smooth="yes"/>
      <point x="411" y="295"/>
      <point x="413" y="292"/>
      <point x="413" y="264" type="curve" smooth="yes"/>
      <point x="413" y="254"/>
      <point x="410" y="235"/>
      <point x="405" y="211" type="curve" smooth="yes"/>
      <point x="370" y="53" type="line"/>
      <point x="339" y="29"/>
      <point x="283" y="15"/>
      <point x="239" y="15" type="curve" smooth="yes"/>
      <point x="117" y="15"/>
      <point x="75" y="118"/>
      <point x="75" y="234" type="curve" smooth="yes"/>
      <point x="75" y="496"/>
      <point x="216" y="697"/>
      <point x="372" y="697" type="curve" smooth="yes"/>
      <point x="455" y="697"/>
      <point x="486" y="665"/>
      <point x="486" y="578" type="curve"/>
      <point x="502" y="578"/>
      <point x="513" y="591"/>
      <point x="513" y="610" type="curve" smooth="yes"/>
      <point x="513" y="684"/>
      <point x="462" y="722"/>
      <point x="374" y="722" type="curve" smooth="yes"/>
      <point x="200" y="722"/>
      <point x="47" y="514"/>
      <point x="47" y="234" type="curve" smooth="yes"/>
      <point x="47" y="83"/>
      <point x="110" y="-10"/>
    </contour>
  </outline>
</glyph>
<glyph name="H" format="2">
  <advance width="440"/>
  <unicode hex="0048"/>
  <anchor x="164" y="0" name="bottom"/>
  <anchor x="240" y="357" name="center"/>
  <anchor x="316" y="714" name="top"/>
  <anchor x="516" y="714" name="topright"/>
  <outline>
    <contour>
      <point x="2" y="0" type="line"/>
      <point x="28" y="0" type="line"/>
      <point x="105" y="363" type="line"/>
      <point x="353" y="363" type="line"/>
      <point x="276" y="0" type="line"/>
      <point x="302" y="0" type="line"/>
      <point x="454" y="714" type="line"/>
      <point x="428" y="714" type="line"/>
      <point x="359" y="388" type="line"/>
      <point x="111" y="388" type="line"/>
      <point x="180" y="714" type="line"/>
      <point x="154" y="714" type="line"/>
    </contour>
  </outline>
</glyph>
<glyph name="I" format="2">
  <advance width="165"/>
  <unicode hex="0049"/>
  <anchor x="27" y="0" name="bottom"/>
  <anchor x="179" y="714" name="top"/>
  <anchor x="241" y="714" name="topright"/>
  <outline>
    <contour>
      <point x="-58" y="0" type="line"/>
      <point x="84" y="0" type="line"/>
      <point x="88" y="19" type="line"/>
      <point x="31" y="22" type="line"/>
      <point x="173" y="691" type="line"/>
      <point x="232" y="695" type="line"/>
      <point x="236" y="714" type="line"/>
      <point x="94" y="714" type="line"/>
      <point x="90" y="695" type="line"/>
      <point x="148" y="691" type="line"/>
      <point x="6" y="22" type="line"/>
      <point x="-54" y="19" type="line"/>
    </contour>
  </outline>
</glyph>
<glyph name="J" format="2">
  <advance width="154"/>
  <unicode hex="004A"/>
  <anchor x="-92" y="-172" name="bottom"/>
  <anchor x="173" y="714" name="top"/>
  <anchor x="230" y="714" name="topright"/>
  <outline>
    <contour>
      <point x="-92" y="-172" type="curve" smooth="yes"/>
      <point x="-28" y="-172"/>
      <point x="2" y="-129"/>
      <point x="21" y="-37" type="curve" smooth="yes"/>
      <point x="180" y="714" type="line"/>
      <point x="154" y="714" type="line"/>
      <point x="-3" y="-29" type="line" smooth="yes"/>
      <point x="-23" y="-118"/>
      <point x="-45" y="-147"/>
      <point x="-90" y="-147" type="curve" smooth="yes"/>
      <point x="-106" y="-147"/>
      <point x="-122" y="-143"/>
      <point x="-134" y="-137" type="curve"/>
      <point x="-142" y="-160" type="line"/>
      <point x="-130" y="-167"/>
      <point x="-112" y="-172"/>
    </contour>
  </outline>
</glyph>
<glyph name="J.serif" format="2">
  <advance width="245"/>
  <unicode hex="004A"/>
  <anchor x="-66" y="-240" name="bottom"/>
  <anchor x="216" y="714" name="top"/>
  <anchor x="315" y="714" name="topright"/>
  <outline>
    <contour>
      <point x="-66" y="-240" type="curve" smooth="yes"/>
      <point x="12" y="-240"/>
      <point x="41" y="-195"/>
      <point x="71" y="-50" type="curve" smooth="yes"/>
      <point x="210" y="604" type="line" smooth="yes"/>
      <point x="228" y="689"/>
      <point x="235" y="694"/>
      <point x="285" y="694" type="curve" smooth="yes"/>
      <point x="302" y="694" type="line"/>
      <point x="306" y="714" type="line"/>
      <point x="126" y="714" type="line"/>
      <point x="122" y="694" type="line"/>
      <point x="145" y="694" type="line" smooth="yes"/>
      <point x="185" y="694"/>
      <point x="191" y="689"/>
      <point x="191" y="663" type="curve" smooth="yes"/>
      <point x="191" y="650"/>
      <point x="187" y="630"/>
      <point x="182" y="604" type="curve" smooth="yes"/>
      <point x="43" y="-50" type="line" smooth="yes"/>
      <point x="16" y="-179"/>
      <point x="-9" y="-215"/>
      <point x="-63" y="-215" type="curve" smooth="yes"/>
      <point x="-79" y="-215"/>
      <point x="-104" y="-211"/>
      <point x="-117" y="-205" type="curve"/>
      <point x="-126" y="-229" type="line"/>
      <point x="-108" y="-236"/>
      <point x="-89" y="-240"/>
    </contour>
  </outline>
</glyph>
<glyph name="K" format="2">
  <advance width="346"/>
  <unicode hex="004B"/>
  <anchor x="117" y="0" name="bottom"/>
  <anchor x="269" y="714" name="top"/>
  <anchor x="422" y="714" name="topright"/>
  <outline>
    <contour>
      <point x="2" y="0" type="line"/>
      <point x="28" y="0" type="line"/>
      <point x="88" y="282" type="line"/>
      <point x="165" y="377" type="line"/>
      <point x="249" y="0" type="line"/>
      <point x="278" y="0" type="line"/>
      <point x="186" y="400" type="line"/>
      <point x="418" y="714" type="line"/>
      <point x="386" y="714" type="line"/>
      <point x="165" y="414" type="line"/>
      <point x="96" y="318" type="line"/>
      <point x="180" y="714" type="line"/>
      <point x="154" y="714" type="line"/>
    </contour>
  </outline>
</glyph>
<glyph name="K.serif" format="2">
  <advance width="514"/>
  <unicode hex="004B"/>
  <anchor x="200" y="0" name="bottom"/>
  <anchor x="352" y="714" name="top"/>
  <anchor x="589" y="714" name="topright"/>
  <outline>
    <contour>
      <point x="-23" y="0" type="line"/>
      <point x="163" y="0" type="line"/>
      <point x="167" y="20" type="line"/>
      <point x="144" y="20" type="line" smooth="yes"/>
      <point x="111" y="20"/>
      <point x="98" y="25"/>
      <point x="98" y="51" type="curve" smooth="yes"/>
      <point x="98" y="64"/>
      <point x="101" y="82"/>
      <point x="107" y="108" type="curve" smooth="yes"/>
      <point x="139" y="259" type="line"/>
      <point x="262" y="387" type="line"/>
      <point x="251" y="384" type="line"/>
      <point x="337" y="82" type="line" smooth="yes"/>
      <point x="354" y="21"/>
      <point x="378" y="0"/>
      <point x="440" y="0" type="curve" smooth="yes"/>
      <point x="450" y="0" type="line"/>
      <point x="455" y="20" type="line"/>
      <point x="443" y="20" type="line" smooth="yes"/>
      <point x="397" y="20"/>
      <point x="377" y="44"/>
      <point x="364" y="90" type="curve" smooth="yes"/>
      <point x="271" y="408" type="line"/>
      <point x="267" y="391" type="line"/>
      <point x="485" y="622" type="line" smooth="yes"/>
      <point x="550" y="691"/>
      <point x="555" y="694"/>
      <point x="577" y="694" type="curve"/>
      <point x="581" y="714" type="line"/>
      <point x="448" y="714" type="line"/>
      <point x="444" y="694" type="line"/>
      <point x="482" y="694"/>
      <point x="488" y="691"/>
      <point x="488" y="679" type="curve" smooth="yes"/>
      <point x="488" y="666"/>
      <point x="479" y="651"/>
      <point x="452" y="622" type="curve" smooth="yes"/>
      <point x="148" y="303" type="line"/>
      <point x="213" y="606" type="line" smooth="yes"/>
      <point x="229" y="683"/>
      <point x="238" y="694"/>
      <point x="288" y="694" type="curve" smooth="yes"/>
      <point x="311" y="694" type="line"/>
      <point x="315" y="714" type="line"/>
      <point x="129" y="714" type="line"/>
      <point x="125" y="694" type="line"/>
      <point x="148" y="694" type="line" smooth="yes"/>
      <point x="181" y="694"/>
      <point x="194" y="689"/>
      <point x="194" y="663" type="curve" smooth="yes"/>
      <point x="194" y="650"/>
      <point x="190" y="632"/>
      <point x="185" y="606" type="curve" smooth="yes"/>
      <point x="79" y="108" type="line" smooth="yes"/>
      <point x="63" y="31"/>
      <point x="54" y="20"/>
      <point x="4" y="20" type="curve" smooth="yes"/>
      <point x="-19" y="20" type="line"/>
    </contour>
  </outline>
</glyph>
<glyph name="L" format="2">
  <advance width="302"/>
  <unicode hex="004C"/>
  <anchor x="95" y="0" name="bottom"/>
  <anchor x="171" y="357" name="center"/>
  <anchor x="247" y="714" name="top"/>
  <anchor x="327" y="714" name="topright"/>
  <outline>
    <contour>
      <point x="2" y="0" type="line"/>
      <point x="216" y="0" type="line"/>
      <point x="221" y="25" type="line"/>
      <point x="33" y="25" type="line"/>
      <point x="180" y="714" type="line"/>
      <point x="154" y="714" type="line"/>
    </contour>
  </outline>
</glyph>
<glyph name="L.serif" format="2">
  <advance width="462"/>
  <unicode hex="004C"/>
  <anchor x="174" y="0" name="bottom"/>
  <anchor x="269" y="357" name="center"/>
  <anchor x="326" y="714" name="top"/>
  <anchor x="537" y="714" name="topright"/>
  <outline>
    <contour>
      <point x="-22" y="0" type="line"/>
      <point x="358" y="0" type="line"/>
      <point x="408" y="204" type="line"/>
      <point x="386" y="204" type="line"/>
      <point x="359" y="107" type="line" smooth="yes"/>
      <point x="337" y="27"/>
      <point x="332" y="25"/>
      <point x="262" y="25" type="curve" smooth="yes"/>
      <point x="89" y="25" type="line"/>
      <point x="215" y="618" type="line"/>
      <point x="230" y="690"/>
      <point x="234" y="694"/>
      <point x="298" y="694" type="curve" smooth="yes"/>
      <point x="308" y="694" type="line"/>
      <point x="313" y="714" type="line"/>
      <point x="130" y="714" type="line"/>
      <point x="125" y="694" type="line"/>
      <point x="137" y="694" type="line" smooth="yes"/>
      <point x="188" y="694"/>
      <point x="192" y="692"/>
      <point x="192" y="656" type="curve" smooth="yes"/>
      <point x="192" y="646"/>
      <point x="188" y="620"/>
      <point x="182" y="591" type="curve" smooth="yes"/>
      <point x="76" y="96" type="line" smooth="yes"/>
      <point x="61" y="24"/>
      <point x="57" y="20"/>
      <point x="-7" y="20" type="curve" smooth="yes"/>
      <point x="-17" y="20" type="line"/>
    </contour>
  </outline>
</glyph>
<glyph name="M" format="2">
  <advance width="587"/>
  <unicode hex="004D"/>
  <anchor x="238" y="0" name="bottom"/>
  <anchor x="390" y="714" name="top"/>
  <anchor x="663" y="714" name="topright"/>
  <outline>
    <contour>
      <point x="2" y="0" type="line"/>
      <point x="28" y="0" type="line"/>
      <point x="151" y="578" type="line" smooth="yes"/>
      <point x="157" y="608"/>
      <point x="161" y="627"/>
      <point x="168" y="667" type="curve"/>
      <point x="170" y="667" type="line"/>
      <point x="204" y="0" type="line"/>
      <point x="245" y="0" type="line"/>
      <point x="564" y="666" type="line"/>
      <point x="566" y="666" type="line"/>
      <point x="557" y="627"/>
      <point x="551" y="601"/>
      <point x="545" y="574" type="curve" smooth="yes"/>
      <point x="423" y="0" type="line"/>
      <point x="449" y="0" type="line"/>
      <point x="601" y="714" type="line"/>
      <point x="559" y="714" type="line"/>
      <point x="232" y="32" type="line"/>
      <point x="229" y="32" type="line"/>
      <point x="192" y="714" type="line"/>
      <point x="154" y="714" type="line"/>
    </contour>
  </outline>
</glyph>
<glyph name="M.serif" format="2">
  <advance width="735"/>
  <unicode hex="004D"/>
  <anchor x="306" y="0" name="bottom"/>
  <anchor x="458" y="714" name="top"/>
  <anchor x="802" y="714" name="topright"/>
  <outline>
    <contour>
      <point x="-23" y="0" type="line"/>
      <point x="163" y="0" type="line"/>
      <point x="167" y="20" type="line"/>
      <point x="144" y="20" type="line" smooth="yes"/>
      <point x="111" y="20"/>
      <point x="98" y="25"/>
      <point x="98" y="51" type="curve" smooth="yes"/>
      <point x="98" y="64"/>
      <point x="101" y="82"/>
      <point x="107" y="108" type="curve" smooth="yes"/>
      <point x="227" y="672" type="line"/>
      <point x="290" y="0" type="line"/>
      <point x="321" y="0" type="line"/>
      <point x="670" y="672" type="line"/>
      <point x="550" y="108" type="line" smooth="yes"/>
      <point x="534" y="31"/>
      <point x="525" y="20"/>
      <point x="475" y="20" type="curve" smooth="yes"/>
      <point x="462" y="20" type="line"/>
      <point x="458" y="0" type="line"/>
      <point x="634" y="0" type="line"/>
      <point x="638" y="20" type="line"/>
      <point x="615" y="20" type="line" smooth="yes"/>
      <point x="582" y="20"/>
      <point x="569" y="25"/>
      <point x="569" y="51" type="curve" smooth="yes"/>
      <point x="569" y="64"/>
      <point x="572" y="82"/>
      <point x="578" y="108" type="curve" smooth="yes"/>
      <point x="684" y="607" type="line" smooth="yes"/>
      <point x="701" y="689"/>
      <point x="704" y="694"/>
      <point x="764" y="694" type="curve" smooth="yes"/>
      <point x="773" y="694" type="line"/>
      <point x="778" y="714" type="line"/>
      <point x="662" y="714" type="line"/>
      <point x="313" y="40" type="line"/>
      <point x="250" y="714" type="line"/>
      <point x="129" y="714" type="line"/>
      <point x="125" y="694" type="line"/>
      <point x="148" y="694" type="line" smooth="yes"/>
      <point x="186" y="694"/>
      <point x="194" y="689"/>
      <point x="194" y="663" type="curve" smooth="yes"/>
      <point x="194" y="650"/>
      <point x="190" y="632"/>
      <point x="185" y="606" type="curve" smooth="yes"/>
      <point x="79" y="108" type="line" smooth="yes"/>
      <point x="63" y="31"/>
      <point x="54" y="20"/>
      <point x="4" y="20" type="curve" smooth="yes"/>
      <point x="-19" y="20" type="line"/>
    </contour>
  </outline>
</glyph>
<glyph name="N" format="2">
  <advance width="461"/>
  <unicode hex="004E"/>
  <anchor x="175" y="0" name="bottom"/>
  <anchor x="327" y="714" name="top"/>
  <anchor x="537" y="714" name="topright"/>
  <outline>
    <contour>
      <point x="2" y="0" type="line"/>
      <point x="29" y="0" type="line"/>
      <point x="145" y="547" type="line"/>
      <point x="157" y="603"/>
      <point x="164" y="636"/>
      <point x="169" y="663" type="curve"/>
      <point x="171" y="663" type="line"/>
      <point x="291" y="0" type="line"/>
      <point x="323" y="0" type="line"/>
      <point x="475" y="714" type="line"/>
      <point x="448" y="714" type="line"/>
      <point x="335" y="182" type="line"/>
      <point x="329" y="153"/>
      <point x="319" y="104"/>
      <point x="310" y="59" type="curve"/>
      <point x="308" y="59" type="line"/>
      <point x="187" y="714" type="line"/>
      <point x="154" y="714" type="line"/>
    </contour>
  </outline>
</glyph>
<glyph name="N.serif" format="2">
  <advance width="583"/>
  <unicode hex="004E"/>
  <anchor x="232" y="0" name="bottom"/>
  <anchor x="384" y="714" name="top"/>
  <anchor x="652" y="714" name="topright"/>
  <outline>
    <contour>
      <point x="-23" y="0" type="line"/>
      <point x="163" y="0" type="line"/>
      <point x="167" y="20" type="line"/>
      <point x="144" y="20" type="line" smooth="yes"/>
      <point x="111" y="20"/>
      <point x="98" y="25"/>
      <point x="98" y="51" type="curve" smooth="yes"/>
      <point x="98" y="64"/>
      <point x="101" y="82"/>
      <point x="107" y="108" type="curve" smooth="yes"/>
      <point x="225" y="661" type="line"/>
      <point x="392" y="0" type="line"/>
      <point x="413" y="0" type="line"/>
      <point x="542" y="606" type="line" smooth="yes"/>
      <point x="558" y="683"/>
      <point x="567" y="694"/>
      <point x="617" y="694" type="curve" smooth="yes"/>
      <point x="640" y="694" type="line"/>
      <point x="644" y="714" type="line"/>
      <point x="458" y="714" type="line"/>
      <point x="454" y="694" type="line"/>
      <point x="477" y="694" type="line" smooth="yes"/>
      <point x="510" y="694"/>
      <point x="523" y="689"/>
      <point x="523" y="663" type="curve" smooth="yes"/>
      <point x="523" y="650"/>
      <point x="520" y="632"/>
      <point x="514" y="606" type="curve" smooth="yes"/>
      <point x="402" y="80" type="line"/>
      <point x="241" y="714" type="line"/>
      <point x="129" y="714" type="line"/>
      <point x="125" y="694" type="line"/>
      <point x="148" y="694" type="line" smooth="yes"/>
      <point x="186" y="694"/>
      <point x="194" y="689"/>
      <point x="194" y="663" type="curve" smooth="yes"/>
      <point x="194" y="650"/>
      <point x="190" y="632"/>
      <point x="185" y="606" type="curve" smooth="yes"/>
      <point x="79" y="108" type="line" smooth="yes"/>
      <point x="63" y="31"/>
      <point x="54" y="20"/>
      <point x="4" y="20" type="curve" smooth="yes"/>
      <point x="-19" y="20" type="line"/>
    </contour>
  </outline>
</glyph>
<glyph name="O" format="2">
  <advance width="444"/>
  <unicode hex="004F"/>
  <anchor x="166" y="0" name="bottom"/>
  <anchor x="242" y="357" name="center"/>
  <anchor x="318" y="714" name="top"/>
  <anchor x="520" y="714" name="topright"/>
  <outline>
    <contour>
      <point x="160" y="-10" type="curve" smooth="yes"/>
      <point x="351" y="-10"/>
      <point x="424" y="361"/>
      <point x="424" y="542" type="curve" smooth="yes"/>
      <point x="424" y="671"/>
      <point x="380" y="724"/>
      <point x="300" y="724" type="curve" smooth="yes"/>
      <point x="114" y="724"/>
      <point x="34" y="370"/>
      <point x="34" y="186" type="curve" smooth="yes"/>
      <point x="34" y="52"/>
      <point x="78" y="-10"/>
    </contour>
    <contour>
      <point x="163" y="15" type="curve" smooth="yes"/>
      <point x="97" y="15"/>
      <point x="61" y="66"/>
      <point x="61" y="188" type="curve" smooth="yes"/>
      <point x="61" y="347"/>
      <point x="135" y="699"/>
      <point x="298" y="699" type="curve" smooth="yes"/>
      <point x="366" y="699"/>
      <point x="397" y="653"/>
      <point x="397" y="540" type="curve" smooth="yes"/>
      <point x="397" y="369"/>
      <point x="325" y="15"/>
    </contour>
  </outline>
</glyph>
<glyph name="O.serif" format="2">
  <advance width="537"/>
  <unicode hex="004F"/>
  <anchor x="212" y="0" name="bottom"/>
  <anchor x="307" y="357" name="center"/>
  <anchor x="364" y="714" name="top"/>
  <anchor x="612" y="714" name="topright"/>
  <outline>
    <contour>
      <point x="229" y="-11" type="curve" smooth="yes"/>
      <point x="439" y="-11"/>
      <point x="526" y="303"/>
      <point x="526" y="486" type="curve" smooth="yes"/>
      <point x="526" y="661"/>
      <point x="438" y="724"/>
      <point x="344" y="724" type="curve" smooth="yes"/>
      <point x="144" y="724"/>
      <point x="45" y="426"/>
      <point x="45" y="230" type="curve" smooth="yes"/>
      <point x="45" y="62"/>
      <point x="128" y="-11"/>
    </contour>
    <contour>
      <point x="228" y="14" type="curve" smooth="yes"/>
      <point x="148" y="14"/>
      <point x="73" y="80"/>
      <point x="73" y="230" type="curve" smooth="yes"/>
      <point x="73" y="408"/>
      <point x="164" y="699"/>
      <point x="344" y="699" type="curve" smooth="yes"/>
      <point x="425" y="699"/>
      <point x="498" y="638"/>
      <point x="498" y="486" type="curve" smooth="yes"/>
      <point x="498" y="318"/>
      <point x="414" y="14"/>
    </contour>
  </outline>
</glyph>
<glyph name="P" format="2">
  <advance width="352"/>
  <unicode hex="0050"/>
  <anchor x="120" y="0" name="bottom"/>
  <anchor x="272" y="714" name="top"/>
  <anchor x="428" y="714" name="topright"/>
  <outline>
    <contour>
      <point x="3" y="0" type="line"/>
      <point x="29" y="0" type="line"/>
      <point x="94" y="306" type="line"/>
      <point x="142" y="306" type="line" smooth="yes"/>
      <point x="285" y="306"/>
      <point x="366" y="415"/>
      <point x="366" y="568" type="curve" smooth="yes"/>
      <point x="366" y="661"/>
      <point x="318" y="714"/>
      <point x="219" y="714" type="curve" smooth="yes"/>
      <point x="154" y="714" type="line"/>
    </contour>
    <contour>
      <point x="140" y="331" type="curve" smooth="yes"/>
      <point x="99" y="331" type="line"/>
      <point x="176" y="689" type="line"/>
      <point x="216" y="689" type="line" smooth="yes"/>
      <point x="306" y="689"/>
      <point x="338" y="642"/>
      <point x="338" y="567" type="curve" smooth="yes"/>
      <point x="338" y="436"/>
      <point x="278" y="331"/>
    </contour>
  </outline>
</glyph>
<glyph name="P.serif" format="2">
  <advance width="449"/>
  <unicode hex="0050"/>
  <anchor x="74" y="0" name="bottom"/>
  <anchor x="320" y="714" name="top"/>
  <anchor x="524" y="714" name="topright"/>
  <outline>
    <contour>
      <point x="-23" y="0" type="line"/>
      <point x="177" y="0" type="line"/>
      <point x="181" y="20" type="line"/>
      <point x="144" y="20" type="line" smooth="yes"/>
      <point x="111" y="20"/>
      <point x="98" y="25"/>
      <point x="98" y="51" type="curve" smooth="yes"/>
      <point x="98" y="64"/>
      <point x="102" y="82"/>
      <point x="107" y="108" type="curve" smooth="yes"/>
      <point x="144" y="284" type="line"/>
      <point x="196" y="284" type="line" smooth="yes"/>
      <point x="382" y="284"/>
      <point x="459" y="408"/>
      <point x="459" y="551" type="curve" smooth="yes"/>
      <point x="459" y="669"/>
      <point x="388" y="714"/>
      <point x="287" y="714" type="curve" smooth="yes"/>
      <point x="129" y="714" type="line"/>
      <point x="125" y="694" type="line"/>
      <point x="148" y="694" type="line" smooth="yes"/>
      <point x="186" y="694"/>
      <point x="194" y="689"/>
      <point x="194" y="663" type="curve" smooth="yes"/>
      <point x="194" y="650"/>
      <point x="190" y="632"/>
      <point x="185" y="606" type="curve" smooth="yes"/>
      <point x="79" y="108" type="line" smooth="yes"/>
      <point x="63" y="31"/>
      <point x="54" y="20"/>
      <point x="4" y="20" type="curve" smooth="yes"/>
      <point x="-19" y="20" type="line"/>
    </contour>
    <contour>
      <point x="198" y="309" type="curve" smooth="yes"/>
      <point x="150" y="309" type="line"/>
      <point x="231" y="689" type="line"/>
      <point x="283" y="689" type="line" smooth="yes"/>
      <point x="379" y="689"/>
      <point x="431" y="649"/>
      <point x="431" y="550" type="curve" smooth="yes"/>
      <point x="431" y="421"/>
      <point x="364" y="309"/>
    </contour>
  </outline>
</glyph>
<glyph name="Q" format="2">
  <advance width="444"/>
  <unicode hex="0051"/>
  <anchor x="130" y="-171" name="bottom"/>
  <anchor x="318" y="714" name="top"/>
  <anchor x="520" y="714" name="topright"/>
  <outline>
    <contour>
      <point x="183" y="-8" type="curve"/>
      <point x="230" y="-171" type="line"/>
      <point x="256" y="-170" type="line"/>
      <point x="207" y="-2" type="line"/>
      <point x="363" y="53"/>
      <point x="424" y="377"/>
      <point x="424" y="542" type="curve" smooth="yes"/>
      <point x="424" y="671"/>
      <point x="380" y="724"/>
      <point x="300" y="724" type="curve" smooth="yes"/>
      <point x="114" y="724"/>
      <point x="34" y="370"/>
      <point x="34" y="186" type="curve" smooth="yes"/>
      <point x="34" y="52"/>
      <point x="78" y="-10"/>
      <point x="160" y="-10" type="curve" smooth="yes"/>
      <point x="168" y="-10"/>
      <point x="176" y="-9"/>
    </contour>
    <contour>
      <point x="163" y="15" type="curve" smooth="yes"/>
      <point x="97" y="15"/>
      <point x="61" y="66"/>
      <point x="61" y="188" type="curve" smooth="yes"/>
      <point x="61" y="347"/>
      <point x="135" y="699"/>
      <point x="298" y="699" type="curve" smooth="yes"/>
      <point x="366" y="699"/>
      <point x="397" y="653"/>
      <point x="397" y="540" type="curve" smooth="yes"/>
      <point x="397" y="369"/>
      <point x="325" y="15"/>
    </contour>
  </outline>
</glyph>
<glyph name="Q.serif" format="2">
  <advance width="537"/>
  <unicode hex="0051"/>
  <anchor x="157" y="-209" name="bottom"/>
  <anchor x="353" y="714" name="top"/>
  <anchor x="571" y="714" name="topright"/>
  <outline>
    <contour>
      <point x="309" y="-209" type="curve" smooth="yes"/>
      <point x="351" y="-209"/>
      <point x="379" y="-201"/>
      <point x="397" y="-193" type="curve"/>
      <point x="394" y="-168" type="line"/>
      <point x="369" y="-178"/>
      <point x="343" y="-184"/>
      <point x="309" y="-184" type="curve" smooth="yes"/>
      <point x="246" y="-184"/>
      <point x="226" y="-133"/>
      <point x="223" y="-11" type="curve"/>
      <point x="430" y="-7"/>
      <point x="529" y="304"/>
      <point x="529" y="486" type="curve" smooth="yes"/>
      <point x="529" y="661"/>
      <point x="448" y="725"/>
      <point x="354" y="725" type="curve" smooth="yes"/>
      <point x="154" y="725"/>
      <point x="42" y="426"/>
      <point x="42" y="230" type="curve" smooth="yes"/>
      <point x="42" y="76"/>
      <point x="106" y="1"/>
      <point x="195" y="-10" type="curve"/>
      <point x="198" y="-162"/>
      <point x="227" y="-209"/>
    </contour>
    <contour>
      <point x="219" y="14" type="curve" smooth="yes"/>
      <point x="139" y="14"/>
      <point x="70" y="80"/>
      <point x="70" y="230" type="curve" smooth="yes"/>
      <point x="70" y="408"/>
      <point x="173" y="700"/>
      <point x="353" y="700" type="curve" smooth="yes"/>
      <point x="434" y="700"/>
      <point x="501" y="638"/>
      <point x="501" y="486" type="curve" smooth="yes"/>
      <point x="501" y="318"/>
      <point x="405" y="14"/>
    </contour>
  </outline>
</glyph>
<glyph name="R" format="2">
  <advance width="357"/>
  <unicode hex="0052"/>
  <anchor x="123" y="0" name="bottom"/>
  <anchor x="275" y="714" name="top"/>
  <anchor x="433" y="714" name="topright"/>
  <outline>
    <contour>
      <point x="3" y="0" type="line"/>
      <point x="29" y="0" type="line"/>
      <point x="97" y="321" type="line"/>
      <point x="182" y="321" type="line"/>
      <point x="238" y="0" type="line"/>
      <point x="265" y="0" type="line"/>
      <point x="208" y="325" type="line"/>
      <point x="312" y="345"/>
      <point x="364" y="453"/>
      <point x="364" y="569" type="curve" smooth="yes"/>
      <point x="364" y="666"/>
      <point x="309" y="714"/>
      <point x="229" y="714" type="curve" smooth="yes"/>
      <point x="154" y="714" type="line"/>
    </contour>
    <contour>
      <point x="174" y="346" type="curve" smooth="yes"/>
      <point x="103" y="346" type="line"/>
      <point x="176" y="689" type="line"/>
      <point x="220" y="689" type="line" smooth="yes"/>
      <point x="297" y="689"/>
      <point x="337" y="652"/>
      <point x="337" y="566" type="curve" smooth="yes"/>
      <point x="337" y="469"/>
      <point x="293" y="346"/>
    </contour>
  </outline>
</glyph>
<glyph name="R.serif" format="2">
  <advance width="482"/>
  <unicode hex="0052"/>
  <anchor x="185" y="0" name="bottom"/>
  <anchor x="337" y="714" name="top"/>
  <anchor x="557" y="714" name="topright"/>
  <outline>
    <contour>
      <point x="-23" y="0" type="line"/>
      <point x="177" y="0" type="line"/>
      <point x="181" y="20" type="line"/>
      <point x="144" y="20" type="line" smooth="yes"/>
      <point x="111" y="20"/>
      <point x="98" y="25"/>
      <point x="98" y="51" type="curve" smooth="yes"/>
      <point x="98" y="64"/>
      <point x="101" y="82"/>
      <point x="107" y="108" type="curve" smooth="yes"/>
      <point x="154" y="327" type="line"/>
      <point x="258" y="327" type="line"/>
      <point x="303" y="82" type="line" smooth="yes"/>
      <point x="314" y="21"/>
      <point x="326" y="0"/>
      <point x="391" y="0" type="curve" smooth="yes"/>
      <point x="396" y="0" type="line"/>
      <point x="401" y="20" type="line"/>
      <point x="394" y="20" type="line" smooth="yes"/>
      <point x="352" y="20"/>
      <point x="341" y="34"/>
      <point x="330" y="90" type="curve" smooth="yes"/>
      <point x="285" y="328" type="line"/>
      <point x="385" y="337"/>
      <point x="459" y="431"/>
      <point x="459" y="551" type="curve" smooth="yes"/>
      <point x="459" y="669"/>
      <point x="388" y="714"/>
      <point x="287" y="714" type="curve" smooth="yes"/>
      <point x="129" y="714" type="line"/>
      <point x="125" y="694" type="line"/>
      <point x="148" y="694" type="line" smooth="yes"/>
      <point x="186" y="694"/>
      <point x="194" y="689"/>
      <point x="194" y="663" type="curve" smooth="yes"/>
      <point x="194" y="650"/>
      <point x="190" y="632"/>
      <point x="185" y="606" type="curve" smooth="yes"/>
      <point x="79" y="108" type="line" smooth="yes"/>
      <point x="63" y="31"/>
      <point x="54" y="20"/>
      <point x="4" y="20" type="curve" smooth="yes"/>
      <point x="-19" y="20" type="line"/>
    </contour>
    <contour>
      <point x="264" y="352" type="curve" smooth="yes"/>
      <point x="160" y="352" type="line"/>
      <point x="231" y="689" type="line"/>
      <point x="283" y="689" type="line" smooth="yes"/>
      <point x="370" y="689"/>
      <point x="431" y="649"/>
      <point x="431" y="550" type="curve" smooth="yes"/>
      <point x="431" y="437"/>
      <point x="357" y="352"/>
    </contour>
  </outline>
</glyph>
<glyph name="S" format="2">
  <advance width="341"/>
  <unicode hex="0053"/>
  <anchor x="115" y="0" name="bottom"/>
  <anchor x="267" y="714" name="top"/>
  <anchor x="417" y="714" name="topright"/>
  <outline>
    <contour>
      <point x="90" y="-10" type="curve" smooth="yes"/>
      <point x="203" y="-10"/>
      <point x="275" y="61"/>
      <point x="275" y="183" type="curve" smooth="yes"/>
      <point x="275" y="252"/>
      <point x="240" y="306"/>
      <point x="191" y="361" type="curve" smooth="yes"/>
      <point x="131" y="429"/>
      <point x="104" y="471"/>
      <point x="104" y="542" type="curve" smooth="yes"/>
      <point x="104" y="645"/>
      <point x="163" y="699"/>
      <point x="249" y="699" type="curve" smooth="yes"/>
      <point x="297" y="699"/>
      <point x="331" y="683"/>
      <point x="353" y="669" type="curve"/>
      <point x="367" y="693" type="line"/>
      <point x="345" y="707"/>
      <point x="303" y="724"/>
      <point x="251" y="724" type="curve" smooth="yes"/>
      <point x="153" y="724"/>
      <point x="77" y="663"/>
      <point x="77" y="540" type="curve" smooth="yes"/>
      <point x="77" y="457"/>
      <point x="112" y="412"/>
      <point x="164" y="351" type="curve" smooth="yes"/>
      <point x="221" y="285"/>
      <point x="248" y="244"/>
      <point x="248" y="182" type="curve" smooth="yes"/>
      <point x="248" y="75"/>
      <point x="189" y="15"/>
      <point x="92" y="15" type="curve" smooth="yes"/>
      <point x="40" y="15"/>
      <point x="1" y="28"/>
      <point x="-29" y="45" type="curve"/>
      <point x="-29" y="16" type="line"/>
      <point x="-3" y="3"/>
      <point x="38" y="-10"/>
    </contour>
  </outline>
</glyph>
<glyph name="T" format="2">
  <advance width="294"/>
  <unicode hex="0054"/>
  <anchor x="91" y="0" name="bottom"/>
  <anchor x="167" y="357" name="center"/>
  <anchor x="243" y="714" name="top"/>
  <anchor x="370" y="714" name="topright"/>
  <outline>
    <contour>
      <point x="65" y="0" type="line"/>
      <point x="91" y="0" type="line"/>
      <point x="238" y="689" type="line"/>
      <point x="366" y="689" type="line"/>
      <point x="371" y="714" type="line"/>
      <point x="90" y="714" type="line"/>
      <point x="85" y="689" type="line"/>
      <point x="212" y="689" type="line"/>
    </contour>
  </outline>
</glyph>
<glyph name="T.serif" format="2">
  <advance width="446"/>
  <unicode hex="0054"/>
  <anchor x="165.991" y="0" name="bottom"/>
  <anchor x="260.991" y="357" name="center"/>
  <anchor x="317.991" y="714" name="top"/>
  <anchor x="521" y="714" name="topright"/>
  <outline>
    <contour>
      <point x="66" y="0" type="line"/>
      <point x="252" y="0" type="line"/>
      <point x="256" y="20" type="line"/>
      <point x="233" y="20" type="line" smooth="yes"/>
      <point x="200" y="20"/>
      <point x="187" y="25"/>
      <point x="187" y="51" type="curve" smooth="yes"/>
      <point x="187" y="64"/>
      <point x="191" y="82"/>
      <point x="196" y="108" type="curve" smooth="yes"/>
      <point x="319" y="689" type="line"/>
      <point x="430" y="689" type="line" smooth="yes"/>
      <point x="457" y="689"/>
      <point x="468" y="687"/>
      <point x="468" y="657" type="curve" smooth="yes"/>
      <point x="468" y="640"/>
      <point x="465" y="615"/>
      <point x="459" y="576" type="curve"/>
      <point x="481" y="576" type="line"/>
      <point x="508" y="714" type="line"/>
      <point x="119" y="714" type="line"/>
      <point x="85" y="576" type="line"/>
      <point x="107" y="576" type="line"/>
      <point x="119" y="619" type="line" smooth="yes"/>
      <point x="137" y="683"/>
      <point x="140" y="689"/>
      <point x="197" y="689" type="curve" smooth="yes"/>
      <point x="291" y="689" type="line"/>
      <point x="168" y="108" type="line" smooth="yes"/>
      <point x="152" y="31"/>
      <point x="143" y="20"/>
      <point x="93" y="20" type="curve" smooth="yes"/>
      <point x="70" y="20" type="line"/>
    </contour>
  </outline>
</glyph>
<glyph name="U" format="2">
  <advance width="423"/>
  <unicode hex="0055"/>
  <anchor x="156" y="0" name="bottom"/>
  <anchor x="308" y="714" name="top"/>
  <anchor x="499" y="714" name="topright"/>
  <outline>
    <contour>
      <point x="154" y="-10" type="curve" smooth="yes"/>
      <point x="267" y="-10"/>
      <point x="305" y="82"/>
      <point x="336" y="225" type="curve" smooth="yes"/>
      <point x="443" y="714" type="line"/>
      <point x="417" y="714" type="line"/>
      <point x="310" y="226" type="line" smooth="yes"/>
      <point x="281" y="92"/>
      <point x="250" y="15"/>
      <point x="155" y="15" type="curve" smooth="yes"/>
      <point x="98" y="15"/>
      <point x="58" y="50"/>
      <point x="58" y="119" type="curve" smooth="yes"/>
      <point x="58" y="143"/>
      <point x="61" y="175"/>
      <point x="68" y="209" type="curve" smooth="yes"/>
      <point x="176" y="714" type="line"/>
      <point x="150" y="714" type="line"/>
      <point x="42" y="209" type="line" smooth="yes"/>
      <point x="35" y="174"/>
      <point x="31" y="142"/>
      <point x="31" y="118" type="curve" smooth="yes"/>
      <point x="31" y="34"/>
      <point x="83" y="-10"/>
    </contour>
  </outline>
</glyph>
<glyph name="U.serif" format="2">
  <advance width="574"/>
  <unicode hex="0055"/>
  <anchor x="223" y="0" name="bottom"/>
  <anchor x="375" y="714" name="top"/>
  <anchor x="635" y="714" name="topright"/>
  <outline>
    <contour>
      <point x="237" y="-10" type="curve" smooth="yes"/>
      <point x="368" y="-10"/>
      <point x="422" y="66"/>
      <point x="447" y="183" type="curve" smooth="yes"/>
      <point x="538" y="606" type="line" smooth="yes"/>
      <point x="554" y="683"/>
      <point x="563" y="694"/>
      <point x="613" y="694" type="curve" smooth="yes"/>
      <point x="636" y="694" type="line"/>
      <point x="640" y="714" type="line"/>
      <point x="452" y="714" type="line"/>
      <point x="448" y="694" type="line"/>
      <point x="473" y="694" type="line" smooth="yes"/>
      <point x="506" y="694"/>
      <point x="519" y="689"/>
      <point x="519" y="663" type="curve" smooth="yes"/>
      <point x="519" y="650"/>
      <point x="516" y="632"/>
      <point x="510" y="606" type="curve" smooth="yes"/>
      <point x="419" y="183" type="line" smooth="yes"/>
      <point x="399" y="91"/>
      <point x="351" y="15"/>
      <point x="239" y="15" type="curve" smooth="yes"/>
      <point x="156" y="15"/>
      <point x="116" y="60"/>
      <point x="116" y="143" type="curve" smooth="yes"/>
      <point x="116" y="174"/>
      <point x="121" y="213"/>
      <point x="129" y="252" type="curve" smooth="yes"/>
      <point x="204" y="606" type="line" smooth="yes"/>
      <point x="221" y="683"/>
      <point x="229" y="694"/>
      <point x="279" y="694" type="curve" smooth="yes"/>
      <point x="304" y="694" type="line"/>
      <point x="308" y="714" type="line"/>
      <point x="120" y="714" type="line"/>
      <point x="116" y="694" type="line"/>
      <point x="139" y="694" type="line" smooth="yes"/>
      <point x="172" y="694"/>
      <point x="185" y="689"/>
      <point x="185" y="663" type="curve" smooth="yes"/>
      <point x="185" y="650"/>
      <point x="182" y="632"/>
      <point x="176" y="606" type="curve" smooth="yes"/>
      <point x="101" y="252" type="line" smooth="yes"/>
      <point x="94" y="217"/>
      <point x="88" y="179"/>
      <point x="88" y="143" type="curve" smooth="yes"/>
      <point x="88" y="50"/>
      <point x="134" y="-10"/>
    </contour>
  </outline>
</glyph>
<glyph name="V" format="2">
  <advance width="344"/>
  <unicode hex="0056"/>
  <anchor x="116" y="0" name="bottom"/>
  <anchor x="268" y="714" name="top"/>
  <anchor x="420" y="714" name="topright"/>
  <outline>
    <contour>
      <point x="84" y="0" type="line"/>
      <point x="119" y="0" type="line"/>
      <point x="423" y="714" type="line"/>
      <point x="395" y="714" type="line"/>
      <point x="151" y="140" type="line" smooth="yes"/>
      <point x="136" y="104"/>
      <point x="120" y="65"/>
      <point x="109" y="34" type="curve"/>
      <point x="107" y="34" type="line"/>
      <point x="108" y="62"/>
      <point x="108" y="86"/>
      <point x="108" y="123" type="curve" smooth="yes"/>
      <point x="110" y="714" type="line"/>
      <point x="84" y="714" type="line"/>
    </contour>
  </outline>
</glyph>
<glyph name="W" format="2">
  <advance width="598"/>
  <unicode hex="0057"/>
  <anchor x="243" y="0" name="bottom"/>
  <anchor x="395" y="714" name="top"/>
  <anchor x="674" y="714" name="topright"/>
  <outline>
    <contour>
      <point x="74" y="0" type="line"/>
      <point x="112" y="0" type="line"/>
      <point x="335" y="571" type="line" smooth="yes"/>
      <point x="345" y="596"/>
      <point x="356" y="626"/>
      <point x="365" y="653" type="curve"/>
      <point x="367" y="653" type="line"/>
      <point x="365" y="620"/>
      <point x="364" y="593"/>
      <point x="363" y="561" type="curve" smooth="yes"/>
      <point x="344" y="0" type="line"/>
      <point x="382" y="0" type="line"/>
      <point x="670" y="714" type="line"/>
      <point x="641" y="714" type="line"/>
      <point x="428" y="180" type="line" smooth="yes"/>
      <point x="401" y="112"/>
      <point x="386" y="73"/>
      <point x="370" y="29" type="curve"/>
      <point x="368" y="29" type="line"/>
      <point x="371" y="79"/>
      <point x="372" y="120"/>
      <point x="374" y="171" type="curve" smooth="yes"/>
      <point x="392" y="714" type="line"/>
      <point x="366" y="714" type="line"/>
      <point x="144" y="152" type="line" smooth="yes"/>
      <point x="132" y="121"/>
      <point x="115" y="76"/>
      <point x="100" y="34" type="curve"/>
      <point x="98" y="34" type="line"/>
      <point x="99" y="58"/>
      <point x="100" y="92"/>
      <point x="101" y="141" type="curve" smooth="yes"/>
      <point x="110" y="714" type="line"/>
      <point x="84" y="714" type="line"/>
    </contour>
  </outline>
</glyph>
<glyph name="W.serif" format="2">
  <advance width="802"/>
  <unicode hex="0057"/>
  <anchor x="344" y="0" name="bottom"/>
  <anchor x="496" y="714" name="top"/>
  <anchor x="877.009" y="714" name="topright"/>
  <outline>
    <contour>
      <point x="149" y="628" type="curve" smooth="yes"/>
      <point x="170" y="0" type="line"/>
      <point x="195" y="0" type="line"/>
      <point x="471" y="655" type="line"/>
      <point x="475" y="0" type="line"/>
      <point x="500" y="0" type="line"/>
      <point x="777" y="616" type="line" smooth="yes"/>
      <point x="811" y="692"/>
      <point x="819" y="694"/>
      <point x="852" y="694" type="curve" smooth="yes"/>
      <point x="864" y="694" type="line"/>
      <point x="869" y="714" type="line"/>
      <point x="702" y="714" type="line"/>
      <point x="697" y="694" type="line"/>
      <point x="723" y="694" type="line" smooth="yes"/>
      <point x="764" y="694"/>
      <point x="769" y="693"/>
      <point x="769" y="678" type="curve" smooth="yes"/>
      <point x="769" y="666"/>
      <point x="764" y="649"/>
      <point x="746" y="610" type="curve" smooth="yes"/>
      <point x="563" y="210" type="line" smooth="yes"/>
      <point x="533" y="144"/>
      <point x="516" y="98"/>
      <point x="498" y="47" type="curve"/>
      <point x="499" y="97"/>
      <point x="500" y="151"/>
      <point x="500" y="210" type="curve"/>
      <point x="496" y="707" type="line"/>
      <point x="466" y="707" type="line"/>
      <point x="255" y="210" type="line" smooth="yes"/>
      <point x="227" y="144"/>
      <point x="207" y="98"/>
      <point x="188" y="47" type="curve"/>
      <point x="190" y="97"/>
      <point x="191" y="151"/>
      <point x="189" y="210" type="curve" smooth="yes"/>
      <point x="178" y="577" type="line" smooth="yes"/>
      <point x="177" y="598"/>
      <point x="177" y="635"/>
      <point x="177" y="648" type="curve" smooth="yes"/>
      <point x="177" y="691"/>
      <point x="181" y="694"/>
      <point x="216" y="694" type="curve" smooth="yes"/>
      <point x="251" y="694" type="line"/>
      <point x="256" y="714" type="line"/>
      <point x="103" y="714" type="line"/>
      <point x="98" y="694" type="line"/>
      <point x="113" y="694" type="line" smooth="yes"/>
      <point x="142" y="694"/>
      <point x="147" y="691"/>
    </contour>
  </outline>
</glyph>
<glyph name="X" format="2">
  <advance width="303"/>
  <unicode hex="0058"/>
  <anchor x="96" y="0" name="bottom"/>
  <anchor x="248" y="714" name="top"/>
  <anchor x="379" y="714" name="topright"/>
  <outline>
    <contour>
      <point x="-58" y="0" type="line"/>
      <point x="-30" y="0" type="line"/>
      <point x="165" y="345" type="line"/>
      <point x="196" y="0" type="line"/>
      <point x="222" y="0" type="line"/>
      <point x="187" y="372" type="line"/>
      <point x="374" y="714" type="line"/>
      <point x="346" y="714" type="line"/>
      <point x="177" y="403" type="line"/>
      <point x="144" y="714" type="line"/>
      <point x="118" y="714" type="line"/>
      <point x="156" y="379" type="line"/>
    </contour>
  </outline>
</glyph>
<glyph name="X.serif" format="2">
  <advance width="453"/>
  <unicode hex="0058"/>
  <anchor x="169" y="0" name="bottom"/>
  <anchor x="321" y="714" name="top"/>
  <anchor x="528" y="714" name="topright"/>
  <outline>
    <contour>
      <point x="-50" y="0" type="line"/>
      <point x="110" y="0" type="line"/>
      <point x="115" y="20" type="line"/>
      <point x="96" y="20" type="line" smooth="yes"/>
      <point x="60" y="20"/>
      <point x="55" y="21"/>
      <point x="55" y="33" type="curve" smooth="yes"/>
      <point x="55" y="43"/>
      <point x="60" y="54"/>
      <point x="88" y="99" type="curve" smooth="yes"/>
      <point x="246" y="354" type="line"/>
      <point x="236" y="363" type="line"/>
      <point x="299" y="94" type="line" smooth="yes"/>
      <point x="306" y="63"/>
      <point x="309" y="49"/>
      <point x="309" y="37" type="curve" smooth="yes"/>
      <point x="309" y="23"/>
      <point x="302" y="20"/>
      <point x="272" y="20" type="curve" smooth="yes"/>
      <point x="237" y="20" type="line"/>
      <point x="232" y="0" type="line"/>
      <point x="391" y="0" type="line"/>
      <point x="396" y="20" type="line"/>
      <point x="386" y="20" type="line" smooth="yes"/>
      <point x="350" y="20"/>
      <point x="347" y="25"/>
      <point x="335" y="73" type="curve" smooth="yes"/>
      <point x="255" y="391" type="line"/>
      <point x="254" y="361" type="line"/>
      <point x="416" y="613" type="line" smooth="yes"/>
      <point x="466" y="691"/>
      <point x="470" y="694"/>
      <point x="501" y="694" type="curve" smooth="yes"/>
      <point x="517" y="694" type="line"/>
      <point x="522" y="714" type="line"/>
      <point x="374" y="714" type="line"/>
      <point x="369" y="694" type="line"/>
      <point x="387" y="694" type="line" smooth="yes"/>
      <point x="413" y="694"/>
      <point x="416" y="690"/>
      <point x="416" y="676" type="curve" smooth="yes"/>
      <point x="416" y="665"/>
      <point x="410" y="652"/>
      <point x="383" y="610" type="curve" smooth="yes"/>
      <point x="248" y="398" type="line"/>
      <point x="254" y="395" type="line"/>
      <point x="205" y="606" type="line" smooth="yes"/>
      <point x="194" y="654"/>
      <point x="191" y="667"/>
      <point x="191" y="680" type="curve" smooth="yes"/>
      <point x="191" y="692"/>
      <point x="195" y="694"/>
      <point x="234" y="694" type="curve" smooth="yes"/>
      <point x="252" y="694" type="line"/>
      <point x="257" y="714" type="line"/>
      <point x="100" y="714" type="line"/>
      <point x="95" y="694" type="line"/>
      <point x="110" y="694" type="line" smooth="yes"/>
      <point x="155" y="694"/>
      <point x="156" y="692"/>
      <point x="168" y="643" type="curve" smooth="yes"/>
      <point x="237" y="360" type="line"/>
      <point x="242" y="392" type="line"/>
      <point x="51" y="92" type="line" smooth="yes"/>
      <point x="8" y="25"/>
      <point x="4" y="20"/>
      <point x="-34" y="20" type="curve" smooth="yes"/>
      <point x="-45" y="20" type="line"/>
    </contour>
  </outline>
</glyph>
<glyph name="Y" format="2">
  <advance width="289"/>
  <unicode hex="0059"/>
  <anchor x="89" y="0" name="bottom"/>
  <anchor x="241" y="714" name="top"/>
  <anchor x="365" y="714" name="topright"/>
  <outline>
    <contour>
      <point x="63" y="0" type="line"/>
      <point x="89" y="0" type="line"/>
      <point x="148" y="278" type="line"/>
      <point x="373" y="714" type="line"/>
      <point x="344" y="714" type="line"/>
      <point x="142" y="319" type="line"/>
      <point x="108" y="714" type="line"/>
      <point x="82" y="714" type="line"/>
      <point x="122" y="278" type="line"/>
    </contour>
  </outline>
</glyph>
<glyph name="Y.serif" format="2">
  <advance width="429"/>
  <unicode hex="0059"/>
  <anchor x="158" y="0" name="bottom"/>
  <anchor x="310" y="714" name="top"/>
  <anchor x="504" y="714" name="topright"/>
  <outline>
    <contour>
      <point x="47" y="0" type="line"/>
      <point x="233" y="0" type="line"/>
      <point x="237" y="20" type="line"/>
      <point x="214" y="20" type="line" smooth="yes"/>
      <point x="181" y="20"/>
      <point x="168" y="25"/>
      <point x="168" y="51" type="curve" smooth="yes"/>
      <point x="168" y="64"/>
      <point x="171" y="82"/>
      <point x="177" y="108" type="curve" smooth="yes"/>
      <point x="226" y="339" type="line"/>
      <point x="420" y="622" type="line" smooth="yes"/>
      <point x="464" y="687"/>
      <point x="467" y="694"/>
      <point x="505" y="694" type="curve" smooth="yes"/>
      <point x="518" y="694" type="line"/>
      <point x="523" y="714" type="line"/>
      <point x="351" y="714" type="line"/>
      <point x="346" y="694" type="line"/>
      <point x="375" y="694" type="line" smooth="yes"/>
      <point x="411" y="694"/>
      <point x="416" y="693"/>
      <point x="416" y="681" type="curve" smooth="yes"/>
      <point x="416" y="671"/>
      <point x="414" y="658"/>
      <point x="385" y="615" type="curve" smooth="yes"/>
      <point x="271" y="445" type="line" smooth="yes"/>
      <point x="254" y="419"/>
      <point x="234" y="390"/>
      <point x="217" y="364" type="curve"/>
      <point x="212" y="390"/>
      <point x="206" y="419"/>
      <point x="199" y="445" type="curve" smooth="yes"/>
      <point x="154" y="620" type="line" smooth="yes"/>
      <point x="146" y="651"/>
      <point x="144" y="665"/>
      <point x="144" y="677" type="curve" smooth="yes"/>
      <point x="144" y="691"/>
      <point x="151" y="694"/>
      <point x="181" y="694" type="curve" smooth="yes"/>
      <point x="226" y="694" type="line"/>
      <point x="231" y="714" type="line"/>
      <point x="75" y="714" type="line"/>
      <point x="70" y="694" type="line"/>
      <point x="80" y="694" type="line" smooth="yes"/>
      <point x="106" y="694"/>
      <point x="108" y="689"/>
      <point x="121" y="641" type="curve" smooth="yes"/>
      <point x="199" y="343" type="line"/>
      <point x="149" y="108" type="line" smooth="yes"/>
      <point x="133" y="31"/>
      <point x="124" y="20"/>
      <point x="74" y="20" type="curve" smooth="yes"/>
      <point x="51" y="20" type="line"/>
    </contour>
  </outline>
</glyph>
<glyph name="Z" format="2">
  <advance width="305"/>
  <unicode hex="005A"/>
  <anchor x="97" y="0" name="bottom"/>
  <anchor x="249" y="714" name="top"/>
  <anchor x="381" y="714" name="topright"/>
  <outline>
    <contour>
      <point x="-42" y="0" type="line"/>
      <point x="219" y="0" type="line"/>
      <point x="224" y="25" type="line"/>
      <point x="-6" y="25" type="line"/>
      <point x="359" y="689" type="line"/>
      <point x="364" y="714" type="line"/>
      <point x="122" y="714" type="line"/>
      <point x="116" y="688" type="line"/>
      <point x="329" y="688" type="line"/>
      <point x="-37" y="24" type="line"/>
    </contour>
  </outline>
</glyph>
<glyph name="Z.serif" format="2">
  <advance width="419"/>
  <unicode hex="005A"/>
  <anchor x="153.009" y="0" name="bottom"/>
  <anchor x="305.009" y="714" name="top"/>
  <anchor x="494" y="714" name="topright"/>
  <outline>
    <contour>
      <point x="-48" y="0" type="line"/>
      <point x="334" y="0" type="line"/>
      <point x="370" y="141" type="line"/>
      <point x="348" y="141" type="line"/>
      <point x="327" y="70" type="line" smooth="yes"/>
      <point x="315" y="28"/>
      <point x="313" y="25"/>
      <point x="267" y="25" type="curve" smooth="yes"/>
      <point x="-6" y="25" type="line"/>
      <point x="462" y="697" type="line"/>
      <point x="465" y="714" type="line"/>
      <point x="119" y="714" type="line"/>
      <point x="87" y="592" type="line"/>
      <point x="109" y="592" type="line"/>
      <point x="116" y="615" type="line" smooth="yes"/>
      <point x="138" y="686"/>
      <point x="140" y="689"/>
      <point x="190" y="689" type="curve" smooth="yes"/>
      <point x="425" y="689" type="line"/>
      <point x="-43" y="17" type="line"/>
    </contour>
  </outline>
</glyph>
<glyph name="bracketleft" format="2">
  <advance width="274"/>
  <unicode hex="005B"/>
  <outline>
    <contour>
      <point x="-17" y="-158" type="line"/>
      <point x="149" y="-158" type="line"/>
      <point x="154" y="-134" type="line"/>
      <point x="13" y="-134" type="line"/>
      <point x="189" y="690" type="line"/>
      <point x="330" y="690" type="line"/>
      <point x="335" y="714" type="line"/>
      <point x="169" y="714" type="line"/>
    </contour>
  </outline>
</glyph>
<glyph name="backslash" format="2">
  <advance width="319"/>
  <unicode hex="005C"/>
  <outline>
    <contour>
      <point x="207" y="0" type="line"/>
      <point x="234" y="0" type="line"/>
      <point x="128" y="714" type="line"/>
      <point x="103" y="714" type="line"/>
    </contour>
  </outline>
</glyph>
<glyph name="bracketright" format="2">
  <advance width="274"/>
  <unicode hex="005D"/>
  <outline>
    <contour>
      <point x="-61" y="-158" type="line"/>
      <point x="105" y="-158" type="line"/>
      <point x="291" y="714" type="line"/>
      <point x="125" y="714" type="line"/>
      <point x="120" y="690" type="line"/>
      <point x="261" y="690" type="line"/>
      <point x="85" y="-134" type="line"/>
      <point x="-56" y="-134" type="line"/>
    </contour>
  </outline>
</glyph>
<glyph name="asciicircum" format="2">
  <advance width="391"/>
  <unicode hex="005E"/>
  <outline>
    <contour>
      <point x="25" y="372" type="line"/>
      <point x="56" y="372" type="line"/>
      <point x="211" y="681" type="line"/>
      <point x="353" y="372" type="line"/>
      <point x="385" y="372" type="line"/>
      <point x="224" y="713" type="line"/>
      <point x="200" y="713" type="line"/>
    </contour>
  </outline>
</glyph>
<glyph name="grave" format="2">
  <advance width="205"/>
  <unicode hex="0060"/>
  <anchor x="202" y="526" name="_top"/>
  <outline>
    <contour>
      <point x="226" y="606" type="curve"/>
      <point x="238" y="606" type="line"/>
      <point x="238" y="614" type="line"/>
      <point x="211" y="660"/>
      <point x="192" y="708"/>
      <point x="170" y="763" type="curve"/>
      <point x="146" y="763" type="line"/>
      <point x="146" y="756" type="line"/>
      <point x="166" y="705"/>
      <point x="200" y="644"/>
    </contour>
  </outline>
</glyph>
<glyph name="grave.serif" format="2">
  <advance width="187"/>
  <unicode hex="0060"/>
  <outline>
    <contour>
      <point x="204" y="606" type="curve"/>
      <point x="218" y="606" type="line"/>
      <point x="221" y="614" type="line"/>
      <point x="202" y="667"/>
      <point x="182" y="728"/>
      <point x="175" y="766" type="curve"/>
      <point x="147" y="766" type="line"/>
      <point x="144" y="758" type="line"/>
      <point x="163" y="704"/>
      <point x="178" y="665"/>
    </contour>
  </outline>
</glyph>
<glyph name="a" format="2">
  <advance width="379"/>
  <unicode hex="0061"/>
  <anchor x="134" y="0" name="bottom"/>
  <anchor x="246" y="526" name="top"/>
  <anchor x="415" y="526" name="topright"/>
  <outline>
    <contour>
      <point x="126" y="-10" type="curve" smooth="yes"/>
      <point x="183" y="-10"/>
      <point x="219" y="28"/>
      <point x="251" y="90" type="curve"/>
      <point x="253" y="90" type="line"/>
      <point x="237" y="0" type="line"/>
      <point x="258" y="0" type="line"/>
      <point x="369" y="526" type="line"/>
      <point x="348" y="526" type="line"/>
      <point x="329" y="444" type="line"/>
      <point x="326" y="444" type="line"/>
      <point x="320" y="495"/>
      <point x="294" y="536"/>
      <point x="239" y="536" type="curve" smooth="yes"/>
      <point x="100" y="536"/>
      <point x="29" y="294"/>
      <point x="29" y="138" type="curve" smooth="yes"/>
      <point x="29" y="42"/>
      <point x="64" y="-10"/>
    </contour>
    <contour>
      <point x="129" y="15" type="curve" smooth="yes"/>
      <point x="86" y="15"/>
      <point x="56" y="51"/>
      <point x="56" y="140" type="curve" smooth="yes"/>
      <point x="56" y="280"/>
      <point x="121" y="511"/>
      <point x="238" y="511" type="curve" smooth="yes"/>
      <point x="282" y="511"/>
      <point x="308" y="473"/>
      <point x="308" y="416" type="curve" smooth="yes"/>
      <point x="308" y="360"/>
      <point x="294" y="289"/>
      <point x="278" y="224" type="curve" smooth="yes"/>
      <point x="251" y="116"/>
      <point x="208" y="15"/>
    </contour>
  </outline>
</glyph>
<glyph name="a.serif" format="2">
  <advance width="400"/>
  <unicode hex="0061"/>
  <anchor x="131" y="0" name="bottom"/>
  <anchor x="245" y="536" name="top"/>
  <anchor x="412" y="536" name="topright"/>
  <outline>
    <contour>
      <point x="108" y="-10" type="curve" smooth="yes"/>
      <point x="155" y="-10"/>
      <point x="202" y="29"/>
      <point x="256" y="151" type="curve"/>
      <point x="259" y="151" type="line"/>
      <point x="255" y="124"/>
      <point x="250" y="94"/>
      <point x="250" y="68" type="curve" smooth="yes"/>
      <point x="250" y="18"/>
      <point x="265" y="-10"/>
      <point x="298" y="-10" type="curve" smooth="yes"/>
      <point x="319" y="-10"/>
      <point x="348" y="2"/>
      <point x="370" y="31" type="curve"/>
      <point x="355" y="48" type="line"/>
      <point x="332" y="22"/>
      <point x="316" y="15"/>
      <point x="302" y="15" type="curve" smooth="yes"/>
      <point x="284" y="15"/>
      <point x="277" y="35"/>
      <point x="277" y="69" type="curve" smooth="yes"/>
      <point x="277" y="107"/>
      <point x="282" y="152"/>
      <point x="293" y="204" type="curve" smooth="yes"/>
      <point x="363" y="536" type="line"/>
      <point x="355" y="536" type="line"/>
      <point x="331" y="502" type="line"/>
      <point x="318" y="525"/>
      <point x="298" y="546"/>
      <point x="264" y="546" type="curve" smooth="yes"/>
      <point x="117" y="546"/>
      <point x="26" y="307"/>
      <point x="26" y="149" type="curve" smooth="yes"/>
      <point x="26" y="55"/>
      <point x="49" y="-10"/>
    </contour>
    <contour>
      <point x="110" y="15" type="curve" smooth="yes"/>
      <point x="76" y="15"/>
      <point x="54" y="66"/>
      <point x="54" y="149" type="curve" smooth="yes"/>
      <point x="54" y="284"/>
      <point x="134" y="521"/>
      <point x="259" y="521" type="curve" smooth="yes"/>
      <point x="288" y="521"/>
      <point x="310" y="501"/>
      <point x="322" y="468" type="curve"/>
      <point x="288" y="307" type="line" smooth="yes"/>
      <point x="261" y="181"/>
      <point x="173" y="15"/>
    </contour>
  </outline>
</glyph>
<glyph name="b" format="2">
  <advance width="372"/>
  <unicode hex="0062"/>
  <anchor x="130" y="0" name="bottom"/>
  <anchor x="292" y="760" name="top"/>
  <anchor x="458" y="760" name="topright"/>
  <outline>
    <contour>
      <point x="141" y="-10" type="curve" smooth="yes"/>
      <point x="282" y="-10"/>
      <point x="346" y="253"/>
      <point x="346" y="388" type="curve" smooth="yes"/>
      <point x="346" y="488"/>
      <point x="311" y="536"/>
      <point x="249" y="536" type="curve" smooth="yes"/>
      <point x="191" y="536"/>
      <point x="150" y="491"/>
      <point x="124" y="436" type="curve"/>
      <point x="122" y="436" type="line"/>
      <point x="125" y="448"/>
      <point x="128" y="460"/>
      <point x="134" y="486" type="curve" smooth="yes"/>
      <point x="192" y="760" type="line"/>
      <point x="166" y="760" type="line"/>
      <point x="6" y="0" type="line"/>
      <point x="27" y="0" type="line"/>
      <point x="47" y="86" type="line"/>
      <point x="49" y="86" type="line"/>
      <point x="52" y="33"/>
      <point x="81" y="-10"/>
    </contour>
    <contour>
      <point x="142" y="15" type="curve" smooth="yes"/>
      <point x="93" y="15"/>
      <point x="67" y="56"/>
      <point x="67" y="126" type="curve" smooth="yes"/>
      <point x="67" y="195"/>
      <point x="115" y="511"/>
      <point x="246" y="511" type="curve" smooth="yes"/>
      <point x="289" y="511"/>
      <point x="319" y="479"/>
      <point x="319" y="386" type="curve" smooth="yes"/>
      <point x="319" y="267"/>
      <point x="261" y="15"/>
    </contour>
  </outline>
</glyph>
<glyph name="c" format="2">
  <advance width="269"/>
  <unicode hex="0063"/>
  <anchor x="79" y="0" name="bottom"/>
  <anchor x="191" y="526" name="top"/>
  <anchor x="305" y="526" name="topright"/>
  <outline>
    <contour>
      <point x="139" y="-10" type="curve" smooth="yes"/>
      <point x="167" y="-10"/>
      <point x="189" y="-3"/>
      <point x="205" y="4" type="curve"/>
      <point x="205" y="30" type="line"/>
      <point x="186" y="21"/>
      <point x="164" y="15"/>
      <point x="141" y="15" type="curve" smooth="yes"/>
      <point x="84" y="15"/>
      <point x="56" y="50"/>
      <point x="56" y="149" type="curve" smooth="yes"/>
      <point x="56" y="301"/>
      <point x="122" y="511"/>
      <point x="238" y="511" type="curve" smooth="yes"/>
      <point x="256" y="511"/>
      <point x="273" y="508"/>
      <point x="289" y="500" type="curve"/>
      <point x="298" y="525" type="line"/>
      <point x="283" y="532"/>
      <point x="261" y="536"/>
      <point x="238" y="536" type="curve" smooth="yes"/>
      <point x="97" y="536"/>
      <point x="30" y="303"/>
      <point x="30" y="147" type="curve" smooth="yes"/>
      <point x="30" y="32"/>
      <point x="66" y="-10"/>
    </contour>
  </outline>
</glyph>
<glyph name="c.serif" format="2">
  <advance width="345"/>
  <unicode hex="0063"/>
  <anchor x="136" y="0" name="bottom"/>
  <anchor x="248" y="536" name="top"/>
  <anchor x="382" y="536" name="topright"/>
  <outline>
    <contour>
      <point x="151" y="-10" type="curve" smooth="yes"/>
      <point x="232" y="-10"/>
      <point x="270" y="55"/>
      <point x="270" y="86" type="curve" smooth="yes"/>
      <point x="270" y="94"/>
      <point x="266" y="100"/>
      <point x="261" y="100" type="curve"/>
      <point x="240" y="57"/>
      <point x="203" y="15"/>
      <point x="152" y="15" type="curve" smooth="yes"/>
      <point x="96" y="15"/>
      <point x="60" y="68"/>
      <point x="60" y="178" type="curve" smooth="yes"/>
      <point x="60" y="298"/>
      <point x="131" y="521"/>
      <point x="252" y="521" type="curve" smooth="yes"/>
      <point x="299" y="521"/>
      <point x="325" y="485"/>
      <point x="325" y="413" type="curve"/>
      <point x="342" y="413"/>
      <point x="352" y="425"/>
      <point x="352" y="443" type="curve" smooth="yes"/>
      <point x="352" y="493"/>
      <point x="321" y="546"/>
      <point x="254" y="546" type="curve" smooth="yes"/>
      <point x="116" y="546"/>
      <point x="32" y="327"/>
      <point x="32" y="179" type="curve" smooth="yes"/>
      <point x="32" y="45"/>
      <point x="76" y="-10"/>
    </contour>
  </outline>
</glyph>
<glyph name="d" format="2">
  <advance width="379"/>
  <unicode hex="0064"/>
  <anchor x="134" y="0" name="bottom"/>
  <anchor x="190" y="263" name="center"/>
  <anchor x="296" y="760" name="top"/>
  <anchor x="465" y="760" name="topright"/>
  <outline>
    <contour>
      <point x="126" y="-10" type="curve" smooth="yes"/>
      <point x="183" y="-10"/>
      <point x="220" y="30"/>
      <point x="251" y="93" type="curve"/>
      <point x="253" y="93" type="line"/>
      <point x="237" y="0" type="line"/>
      <point x="258" y="0" type="line"/>
      <point x="418" y="760" type="line"/>
      <point x="392" y="760" type="line"/>
      <point x="349" y="558" type="line" smooth="yes"/>
      <point x="341" y="522"/>
      <point x="334" y="483"/>
      <point x="328" y="451" type="curve"/>
      <point x="325" y="451" type="line"/>
      <point x="318" y="499"/>
      <point x="291" y="536"/>
      <point x="239" y="536" type="curve" smooth="yes"/>
      <point x="100" y="536"/>
      <point x="29" y="294"/>
      <point x="29" y="138" type="curve" smooth="yes"/>
      <point x="29" y="42"/>
      <point x="64" y="-10"/>
    </contour>
    <contour>
      <point x="129" y="15" type="curve" smooth="yes"/>
      <point x="86" y="15"/>
      <point x="56" y="51"/>
      <point x="56" y="140" type="curve" smooth="yes"/>
      <point x="56" y="280"/>
      <point x="121" y="511"/>
      <point x="238" y="511" type="curve" smooth="yes"/>
      <point x="282" y="511"/>
      <point x="308" y="473"/>
      <point x="308" y="416" type="curve" smooth="yes"/>
      <point x="308" y="344"/>
      <point x="261" y="15"/>
    </contour>
  </outline>
</glyph>
<glyph name="e" format="2">
  <advance width="326"/>
  <unicode hex="0065"/>
  <anchor x="107" y="0" name="bottom"/>
  <anchor x="219" y="526" name="top"/>
  <anchor x="362" y="526" name="topright"/>
  <outline>
    <contour>
      <point x="140" y="-10" type="curve" smooth="yes"/>
      <point x="179" y="-10"/>
      <point x="208" y="0"/>
      <point x="229" y="12" type="curve"/>
      <point x="229" y="41" type="line"/>
      <point x="204" y="26"/>
      <point x="176" y="15"/>
      <point x="145" y="15" type="curve" smooth="yes"/>
      <point x="82" y="15"/>
      <point x="54" y="55"/>
      <point x="54" y="147" type="curve" smooth="yes"/>
      <point x="54" y="186"/>
      <point x="57" y="220"/>
      <point x="63" y="251" type="curve"/>
      <point x="69" y="251" type="line" smooth="yes"/>
      <point x="241" y="251"/>
      <point x="309" y="354"/>
      <point x="309" y="447" type="curve" smooth="yes"/>
      <point x="309" y="511"/>
      <point x="277" y="536"/>
      <point x="230" y="536" type="curve" smooth="yes"/>
      <point x="122" y="536"/>
      <point x="27" y="355"/>
      <point x="27" y="142" type="curve" smooth="yes"/>
      <point x="27" y="38"/>
      <point x="67" y="-10"/>
    </contour>
    <contour>
      <point x="72" y="276" type="curve"/>
      <point x="67" y="276" type="line"/>
      <point x="93" y="407"/>
      <point x="159" y="511"/>
      <point x="229" y="511" type="curve" smooth="yes"/>
      <point x="265" y="511"/>
      <point x="282" y="487"/>
      <point x="282" y="446" type="curve" smooth="yes"/>
      <point x="282" y="366"/>
      <point x="225" y="276"/>
    </contour>
  </outline>
</glyph>
<glyph name="e.serif" format="2">
  <advance width="348"/>
  <unicode hex="0065"/>
  <anchor x="128" y="0" name="bottom"/>
  <anchor x="242" y="536" name="top"/>
  <anchor x="375" y="536" name="topright"/>
  <outline>
    <contour>
      <point x="151" y="-10" type="curve" smooth="yes"/>
      <point x="232" y="-10"/>
      <point x="270" y="55"/>
      <point x="270" y="86" type="curve" smooth="yes"/>
      <point x="270" y="94"/>
      <point x="266" y="100"/>
      <point x="261" y="100" type="curve"/>
      <point x="240" y="57"/>
      <point x="203" y="15"/>
      <point x="152" y="15" type="curve" smooth="yes"/>
      <point x="96" y="15"/>
      <point x="60" y="69"/>
      <point x="60" y="179" type="curve" smooth="yes"/>
      <point x="60" y="194"/>
      <point x="62" y="224"/>
      <point x="64" y="241" type="curve"/>
      <point x="98" y="241" type="line" smooth="yes"/>
      <point x="236" y="241"/>
      <point x="329" y="341"/>
      <point x="329" y="444" type="curve" smooth="yes"/>
      <point x="329" y="508"/>
      <point x="298" y="546"/>
      <point x="245" y="546" type="curve" smooth="yes"/>
      <point x="118" y="546"/>
      <point x="32" y="330"/>
      <point x="32" y="179" type="curve" smooth="yes"/>
      <point x="32" y="45"/>
      <point x="76" y="-10"/>
    </contour>
    <contour>
      <point x="96" y="266" type="curve" smooth="yes"/>
      <point x="68" y="266" type="line"/>
      <point x="89" y="387"/>
      <point x="164" y="521"/>
      <point x="241" y="521" type="curve" smooth="yes"/>
      <point x="276" y="521"/>
      <point x="301" y="498"/>
      <point x="301" y="444" type="curve" smooth="yes"/>
      <point x="301" y="347"/>
      <point x="213" y="266"/>
    </contour>
  </outline>
</glyph>
<glyph name="f" format="2">
  <advance width="184"/>
  <unicode hex="0066"/>
  <anchor x="-93" y="-240" name="bottom"/>
  <anchor x="259" y="765" name="top"/>
  <anchor x="291" y="765" name="topright"/>
  <outline>
    <contour>
      <point x="-93" y="-240" type="curve" smooth="yes"/>
      <point x="-24" y="-240"/>
      <point x="-1" y="-180"/>
      <point x="15" y="-107" type="curve" smooth="yes"/>
      <point x="145" y="501" type="line"/>
      <point x="214" y="501" type="line"/>
      <point x="219" y="526" type="line"/>
      <point x="150" y="526" type="line"/>
      <point x="172" y="627" type="line" smooth="yes"/>
      <point x="188" y="699"/>
      <point x="205" y="740"/>
      <point x="252" y="740" type="curve" smooth="yes"/>
      <point x="267" y="740"/>
      <point x="282" y="736"/>
      <point x="292" y="731" type="curve"/>
      <point x="302" y="755" type="line"/>
      <point x="293" y="759"/>
      <point x="272" y="765"/>
      <point x="256" y="765" type="curve" smooth="yes"/>
      <point x="194" y="765"/>
      <point x="168" y="723"/>
      <point x="148" y="635" type="curve" smooth="yes"/>
      <point x="124" y="527" type="line"/>
      <point x="63" y="521" type="line"/>
      <point x="59" y="501" type="line"/>
      <point x="119" y="501" type="line"/>
      <point x="-11" y="-104" type="line" smooth="yes"/>
      <point x="-25" y="-169"/>
      <point x="-42" y="-215"/>
      <point x="-93" y="-215" type="curve" smooth="yes"/>
      <point x="-111" y="-215"/>
      <point x="-120" y="-213"/>
      <point x="-131" y="-209" type="curve"/>
      <point x="-131" y="-234" type="line"/>
      <point x="-123" y="-237"/>
      <point x="-111" y="-240"/>
    </contour>
  </outline>
</glyph>
<glyph name="f.serif" format="2">
  <advance width="187"/>
  <unicode hex="0066"/>
  <anchor x="-81" y="-240" name="bottom"/>
  <anchor x="272" y="770" name="top"/>
  <anchor x="357" y="770" name="topright"/>
  <outline>
    <contour>
      <point x="-81" y="-240" type="curve" smooth="yes"/>
      <point x="-17" y="-240"/>
      <point x="7" y="-202"/>
      <point x="42" y="-36" type="curve" smooth="yes"/>
      <point x="158" y="511" type="line"/>
      <point x="230" y="511" type="line"/>
      <point x="235" y="536" type="line"/>
      <point x="163" y="536" type="line"/>
      <point x="177" y="600" type="line" smooth="yes"/>
      <point x="197" y="693"/>
      <point x="221" y="745"/>
      <point x="267" y="745" type="curve" smooth="yes"/>
      <point x="304" y="745"/>
      <point x="313" y="724"/>
      <point x="313" y="676" type="curve"/>
      <point x="335" y="676"/>
      <point x="340" y="687"/>
      <point x="340" y="706" type="curve" smooth="yes"/>
      <point x="340" y="738"/>
      <point x="318" y="770"/>
      <point x="270" y="770" type="curve" smooth="yes"/>
      <point x="205" y="770"/>
      <point x="173" y="709"/>
      <point x="149" y="600" type="curve" smooth="yes"/>
      <point x="135" y="536" type="line"/>
      <point x="66" y="529" type="line"/>
      <point x="64" y="511" type="line"/>
      <point x="130" y="511" type="line"/>
      <point x="14" y="-35" type="line" smooth="yes"/>
      <point x="-19" y="-188"/>
      <point x="-36" y="-215"/>
      <point x="-81" y="-215" type="curve" smooth="yes"/>
      <point x="-93" y="-215"/>
      <point x="-109" y="-211"/>
      <point x="-117" y="-208" type="curve"/>
      <point x="-124" y="-232" type="line"/>
      <point x="-113" y="-236"/>
      <point x="-97" y="-240"/>
    </contour>
  </outline>
</glyph>
<glyph name="g" format="2">
  <advance width="377"/>
  <unicode hex="0067"/>
  <anchor x="82" y="-240" name="bottom"/>
  <anchor x="245" y="526" name="top"/>
  <anchor x="413" y="526" name="topright"/>
  <outline>
    <contour>
      <point x="75" y="-240" type="curve" smooth="yes"/>
      <point x="178" y="-240"/>
      <point x="221" y="-170"/>
      <point x="247" y="-49" type="curve" smooth="yes"/>
      <point x="369" y="526" type="line"/>
      <point x="348" y="526" type="line"/>
      <point x="329" y="444" type="line"/>
      <point x="326" y="444" type="line"/>
      <point x="320" y="495"/>
      <point x="294" y="536"/>
      <point x="239" y="536" type="curve" smooth="yes"/>
      <point x="100" y="536"/>
      <point x="29" y="294"/>
      <point x="29" y="138" type="curve" smooth="yes"/>
      <point x="29" y="42"/>
      <point x="64" y="-10"/>
      <point x="126" y="-10" type="curve" smooth="yes"/>
      <point x="183" y="-10"/>
      <point x="219" y="28"/>
      <point x="251" y="90" type="curve"/>
      <point x="253" y="90" type="line"/>
      <point x="247" y="64"/>
      <point x="241" y="37"/>
      <point x="238" y="24" type="curve" smooth="yes"/>
      <point x="224" y="-41" type="line" smooth="yes"/>
      <point x="199" y="-158"/>
      <point x="165" y="-215"/>
      <point x="75" y="-215" type="curve" smooth="yes"/>
      <point x="37" y="-215"/>
      <point x="0" y="-200"/>
      <point x="-18" y="-187" type="curve"/>
      <point x="-18" y="-216" type="line"/>
      <point x="-1" y="-226"/>
      <point x="36" y="-240"/>
    </contour>
    <contour>
      <point x="129" y="15" type="curve" smooth="yes"/>
      <point x="84" y="15"/>
      <point x="56" y="51"/>
      <point x="56" y="140" type="curve" smooth="yes"/>
      <point x="56" y="280"/>
      <point x="121" y="511"/>
      <point x="238" y="511" type="curve" smooth="yes"/>
      <point x="282" y="511"/>
      <point x="308" y="473"/>
      <point x="308" y="416" type="curve" smooth="yes"/>
      <point x="308" y="350"/>
      <point x="261" y="15"/>
    </contour>
  </outline>
</glyph>
<glyph name="g.serif" format="2">
  <advance width="388"/>
  <unicode hex="0067"/>
  <anchor x="73" y="-240" name="bottom"/>
  <anchor x="238" y="536" name="top"/>
  <anchor x="425" y="536" name="topright"/>
  <outline>
    <contour>
      <point x="105" y="-240" type="curve" smooth="yes"/>
      <point x="252" y="-240"/>
      <point x="292" y="-135"/>
      <point x="292" y="-52" type="curve" smooth="yes"/>
      <point x="292" y="22"/>
      <point x="252" y="61"/>
      <point x="197" y="68" type="curve" smooth="yes"/>
      <point x="115" y="79" type="line" smooth="yes"/>
      <point x="96" y="82"/>
      <point x="80" y="94"/>
      <point x="80" y="113" type="curve" smooth="yes"/>
      <point x="80" y="138"/>
      <point x="88" y="156"/>
      <point x="149" y="190" type="curve"/>
      <point x="153" y="189"/>
      <point x="158" y="188"/>
      <point x="161" y="188" type="curve" smooth="yes"/>
      <point x="291" y="188"/>
      <point x="342" y="341"/>
      <point x="342" y="430" type="curve" smooth="yes"/>
      <point x="342" y="456"/>
      <point x="338" y="483"/>
      <point x="330" y="499" type="curve"/>
      <point x="353" y="530"/>
      <point x="364" y="540"/>
      <point x="376" y="540" type="curve" smooth="yes"/>
      <point x="385" y="540"/>
      <point x="391" y="533"/>
      <point x="391" y="501" type="curve"/>
      <point x="405" y="501"/>
      <point x="417" y="508"/>
      <point x="417" y="531" type="curve" smooth="yes"/>
      <point x="417" y="551"/>
      <point x="405" y="566"/>
      <point x="387" y="566" type="curve" smooth="yes"/>
      <point x="362" y="566"/>
      <point x="346" y="552"/>
      <point x="318" y="517" type="curve"/>
      <point x="300" y="537"/>
      <point x="276" y="546"/>
      <point x="250" y="546" type="curve" smooth="yes"/>
      <point x="131" y="546"/>
      <point x="74" y="404"/>
      <point x="74" y="310" type="curve" smooth="yes"/>
      <point x="74" y="258"/>
      <point x="93" y="216"/>
      <point x="124" y="199" type="curve"/>
      <point x="64" y="165"/>
      <point x="55" y="144"/>
      <point x="55" y="111" type="curve" smooth="yes"/>
      <point x="55" y="87"/>
      <point x="71" y="69"/>
      <point x="89" y="61" type="curve"/>
      <point x="20" y="41"/>
      <point x="-49" y="-10"/>
      <point x="-49" y="-104" type="curve" smooth="yes"/>
      <point x="-49" y="-190"/>
      <point x="10" y="-240"/>
    </contour>
    <contour>
      <point x="104" y="-215" type="curve" smooth="yes"/>
      <point x="19" y="-215"/>
      <point x="-21" y="-166"/>
      <point x="-21" y="-104" type="curve" smooth="yes"/>
      <point x="-21" y="-22"/>
      <point x="29" y="25"/>
      <point x="119" y="53" type="curve"/>
      <point x="196" y="43" type="line" smooth="yes"/>
      <point x="242" y="37"/>
      <point x="264" y="-3"/>
      <point x="264" y="-52" type="curve" smooth="yes"/>
      <point x="264" y="-135"/>
      <point x="225" y="-215"/>
    </contour>
    <contour>
      <point x="169" y="213" type="curve" smooth="yes"/>
      <point x="127" y="213"/>
      <point x="102" y="245"/>
      <point x="102" y="310" type="curve" smooth="yes"/>
      <point x="102" y="390"/>
      <point x="153" y="521"/>
      <point x="245" y="521" type="curve" smooth="yes"/>
      <point x="286" y="521"/>
      <point x="314" y="495"/>
      <point x="314" y="430" type="curve" smooth="yes"/>
      <point x="314" y="359"/>
      <point x="270" y="213"/>
    </contour>
  </outline>
</glyph>
<glyph name="h" format="2">
  <advance width="358"/>
  <unicode hex="0068"/>
  <anchor x="123" y="0" name="bottom"/>
  <anchor x="179" y="263" name="center"/>
  <anchor x="285" y="760" name="top"/>
  <anchor x="394" y="760" name="topright"/>
  <outline>
    <contour>
      <point x="7" y="0" type="line"/>
      <point x="33" y="0" type="line"/>
      <point x="94" y="287" type="line" smooth="yes"/>
      <point x="125" y="436"/>
      <point x="168" y="511"/>
      <point x="243" y="511" type="curve" smooth="yes"/>
      <point x="279" y="511"/>
      <point x="302" y="492"/>
      <point x="302" y="453" type="curve" smooth="yes"/>
      <point x="302" y="419"/>
      <point x="292" y="378"/>
      <point x="284" y="339" type="curve" smooth="yes"/>
      <point x="212" y="0" type="line"/>
      <point x="238" y="0" type="line"/>
      <point x="308" y="329" type="line" smooth="yes"/>
      <point x="317" y="370"/>
      <point x="328" y="424"/>
      <point x="328" y="455" type="curve" smooth="yes"/>
      <point x="328" y="509"/>
      <point x="295" y="536"/>
      <point x="246" y="536" type="curve" smooth="yes"/>
      <point x="194" y="536"/>
      <point x="150" y="503"/>
      <point x="127" y="448" type="curve"/>
      <point x="125" y="448" type="line"/>
      <point x="131" y="473"/>
      <point x="137" y="498"/>
      <point x="142" y="523" type="curve" smooth="yes"/>
      <point x="194" y="760" type="line"/>
      <point x="168" y="760" type="line"/>
    </contour>
  </outline>
</glyph>
<glyph name="h.serif" format="2">
  <advance width="395"/>
  <unicode hex="0068"/>
  <anchor x="147" y="0" name="bottom"/>
  <anchor x="261" y="268" name="center"/>
  <anchor x="309" y="760" name="top"/>
  <anchor x="499" y="760" name="topright"/>
  <outline>
    <contour>
      <point x="304" y="-9" type="curve" smooth="yes"/>
      <point x="327" y="-9"/>
      <point x="351" y="6"/>
      <point x="370" y="31" type="curve"/>
      <point x="355" y="48" type="line"/>
      <point x="342" y="32"/>
      <point x="325" y="16"/>
      <point x="306" y="16" type="curve" smooth="yes"/>
      <point x="289" y="16"/>
      <point x="276" y="27"/>
      <point x="276" y="63" type="curve" smooth="yes"/>
      <point x="276" y="101"/>
      <point x="282" y="136"/>
      <point x="292" y="183" type="curve" smooth="yes"/>
      <point x="327" y="342" type="line" smooth="yes"/>
      <point x="333" y="370"/>
      <point x="344" y="412"/>
      <point x="344" y="453" type="curve" smooth="yes"/>
      <point x="344" y="499"/>
      <point x="325" y="543"/>
      <point x="274" y="543" type="curve" smooth="yes"/>
      <point x="225" y="543"/>
      <point x="186" y="508"/>
      <point x="139" y="422" type="curve"/>
      <point x="133" y="422" type="line"/>
      <point x="142" y="460"/>
      <point x="151" y="498"/>
      <point x="159" y="536" type="curve" smooth="yes"/>
      <point x="206" y="760" type="line"/>
      <point x="115" y="760" type="line"/>
      <point x="110" y="740" type="line"/>
      <point x="120" y="740" type="line" smooth="yes"/>
      <point x="158" y="740"/>
      <point x="163" y="737"/>
      <point x="163" y="712" type="curve" smooth="yes"/>
      <point x="163" y="703"/>
      <point x="159" y="673"/>
      <point x="155" y="652" type="curve" smooth="yes"/>
      <point x="16" y="0" type="line"/>
      <point x="44" y="0" type="line"/>
      <point x="100" y="260" type="line" smooth="yes"/>
      <point x="122" y="363"/>
      <point x="193" y="518"/>
      <point x="272" y="518" type="curve" smooth="yes"/>
      <point x="308" y="518"/>
      <point x="316" y="480"/>
      <point x="316" y="453" type="curve" smooth="yes"/>
      <point x="316" y="416"/>
      <point x="306" y="372"/>
      <point x="299" y="342" type="curve" smooth="yes"/>
      <point x="264" y="183" type="line" smooth="yes"/>
      <point x="254" y="136"/>
      <point x="248" y="101"/>
      <point x="248" y="63" type="curve" smooth="yes"/>
      <point x="248" y="10"/>
      <point x="271" y="-9"/>
    </contour>
  </outline>
</glyph>
<glyph name="i.serif" format="2">
  <advance width="192"/>
  <unicode hex="0069"/>
  <anchor x="40" y="0" name="bottom"/>
  <anchor x="197" y="742" name="top"/>
  <anchor x="273" y="742" name="topright"/>
  <outline>
    <contour>
      <point x="96" y="-9" type="curve" smooth="yes"/>
      <point x="119" y="-9"/>
      <point x="148" y="6"/>
      <point x="167" y="31" type="curve"/>
      <point x="152" y="48" type="line"/>
      <point x="139" y="32"/>
      <point x="117" y="16"/>
      <point x="98" y="16" type="curve" smooth="yes"/>
      <point x="81" y="16"/>
      <point x="63" y="27"/>
      <point x="63" y="63" type="curve" smooth="yes"/>
      <point x="63" y="101"/>
      <point x="69" y="136"/>
      <point x="79" y="183" type="curve" smooth="yes"/>
      <point x="154" y="536" type="line"/>
      <point x="54" y="536" type="line"/>
      <point x="49" y="516" type="line"/>
      <point x="68" y="516" type="line" smooth="yes"/>
      <point x="106" y="516"/>
      <point x="111" y="513"/>
      <point x="111" y="488" type="curve" smooth="yes"/>
      <point x="111" y="479"/>
      <point x="107" y="449"/>
      <point x="103" y="428" type="curve" smooth="yes"/>
      <point x="51" y="183" type="line" smooth="yes"/>
      <point x="41" y="136"/>
      <point x="35" y="101"/>
      <point x="35" y="63" type="curve" smooth="yes"/>
      <point x="35" y="10"/>
      <point x="63" y="-9"/>
    </contour>
    <contour>
      <point x="172" y="677" type="curve" smooth="yes"/>
      <point x="185" y="677"/>
      <point x="197" y="687"/>
      <point x="197" y="713" type="curve" smooth="yes"/>
      <point x="197" y="734"/>
      <point x="186" y="743"/>
      <point x="173" y="743" type="curve" smooth="yes"/>
      <point x="156" y="743"/>
      <point x="147" y="729"/>
      <point x="147" y="707" type="curve" smooth="yes"/>
      <point x="147" y="686"/>
      <point x="157" y="677"/>
    </contour>
  </outline>
</glyph>
<glyph name="j.serif" format="2">
  <advance width="186"/>
  <unicode hex="006A"/>
  <anchor x="-96" y="-240" name="bottom"/>
  <anchor x="193" y="742" name="top"/>
  <anchor x="266" y="742" name="topright"/>
  <outline>
    <contour>
      <point x="-96" y="-240" type="curve" smooth="yes"/>
      <point x="-29" y="-240"/>
      <point x="4" y="-213"/>
      <point x="48" y="-8" type="curve" smooth="yes"/>
      <point x="164" y="536" type="line"/>
      <point x="64" y="536" type="line"/>
      <point x="59" y="516" type="line"/>
      <point x="78" y="516" type="line" smooth="yes"/>
      <point x="116" y="516"/>
      <point x="121" y="513"/>
      <point x="121" y="488" type="curve" smooth="yes"/>
      <point x="121" y="479"/>
      <point x="118" y="449"/>
      <point x="113" y="428" type="curve" smooth="yes"/>
      <point x="20" y="-8" type="line" smooth="yes"/>
      <point x="-17" y="-173"/>
      <point x="-41" y="-215"/>
      <point x="-89" y="-215" type="curve" smooth="yes"/>
      <point x="-103" y="-215"/>
      <point x="-117" y="-213"/>
      <point x="-127" y="-210" type="curve"/>
      <point x="-133" y="-236" type="line"/>
      <point x="-132" y="-236"/>
      <point x="-116" y="-240"/>
    </contour>
    <contour>
      <point x="182" y="677" type="curve" smooth="yes"/>
      <point x="195" y="677"/>
      <point x="207" y="687"/>
      <point x="207" y="713" type="curve" smooth="yes"/>
      <point x="207" y="734"/>
      <point x="196" y="743"/>
      <point x="183" y="743" type="curve" smooth="yes"/>
      <point x="166" y="743"/>
      <point x="157" y="729"/>
      <point x="157" y="707" type="curve" smooth="yes"/>
      <point x="157" y="686"/>
      <point x="167" y="677"/>
    </contour>
  </outline>
</glyph>
<glyph name="k" format="2">
  <advance width="296"/>
  <unicode hex="006B"/>
  <anchor x="92" y="0" name="bottom"/>
  <anchor x="254" y="760" name="top"/>
  <anchor x="352" y="800" name="topright"/>
  <outline>
    <contour>
      <point x="5" y="0" type="line"/>
      <point x="31" y="0" type="line"/>
      <point x="71" y="189" type="line"/>
      <point x="157" y="297" type="line"/>
      <point x="205" y="0" type="line"/>
      <point x="231" y="0" type="line"/>
      <point x="179" y="323" type="line"/>
      <point x="332" y="526" type="line"/>
      <point x="303" y="526" type="line"/>
      <point x="81" y="234" type="line"/>
      <point x="80" y="234" type="line"/>
      <point x="90" y="277"/>
      <point x="98" y="314"/>
      <point x="108" y="361" type="curve" smooth="yes"/>
      <point x="193" y="760" type="line"/>
      <point x="167" y="760" type="line"/>
    </contour>
  </outline>
</glyph>
<glyph name="k.serif" format="2">
  <advance width="402"/>
  <unicode hex="006B"/>
  <anchor x="154" y="0" name="bottom"/>
  <anchor x="316" y="760" name="top"/>
  <anchor x="445" y="830" name="topright"/>
  <outline>
    <contour>
      <point x="349" y="-5" type="curve" smooth="yes"/>
      <point x="354" y="-5" type="line"/>
      <point x="358" y="15" type="line"/>
      <point x="302" y="15"/>
      <point x="289" y="30"/>
      <point x="276" y="78" type="curve" smooth="yes"/>
      <point x="205" y="330" type="line"/>
      <point x="200" y="301" type="line"/>
      <point x="356" y="459" type="line" smooth="yes"/>
      <point x="410" y="514"/>
      <point x="416" y="516"/>
      <point x="443" y="516" type="curve"/>
      <point x="448" y="536" type="line"/>
      <point x="300" y="536" type="line"/>
      <point x="296" y="516" type="line"/>
      <point x="342" y="516"/>
      <point x="347" y="512"/>
      <point x="347" y="501" type="curve" smooth="yes"/>
      <point x="347" y="483"/>
      <point x="335" y="468"/>
      <point x="317" y="451" type="curve" smooth="yes"/>
      <point x="88" y="223" type="line"/>
      <point x="97" y="261"/>
      <point x="107" y="305"/>
      <point x="115" y="343" type="curve" smooth="yes"/>
      <point x="206" y="760" type="line"/>
      <point x="115" y="760" type="line"/>
      <point x="110" y="740" type="line"/>
      <point x="120" y="740" type="line" smooth="yes"/>
      <point x="158" y="740"/>
      <point x="163" y="737"/>
      <point x="163" y="712" type="curve" smooth="yes"/>
      <point x="163" y="703"/>
      <point x="159" y="673"/>
      <point x="155" y="652" type="curve" smooth="yes"/>
      <point x="16" y="0" type="line"/>
      <point x="44" y="0" type="line"/>
      <point x="84" y="191" type="line"/>
      <point x="199" y="300" type="line"/>
      <point x="184" y="313" type="line"/>
      <point x="250" y="72" type="line" smooth="yes"/>
      <point x="267" y="10"/>
      <point x="286" y="-5"/>
    </contour>
  </outline>
</glyph>
<glyph name="l" format="2">
  <advance width="148"/>
  <unicode hex="006C"/>
  <anchor x="18" y="0" name="bottom"/>
  <anchor x="74" y="263" name="center"/>
  <anchor x="180" y="760" name="top"/>
  <anchor x="234" y="760" name="topright"/>
  <outline>
    <contour>
      <point x="5" y="0" type="line"/>
      <point x="31" y="0" type="line"/>
      <point x="193" y="760" type="line"/>
      <point x="167" y="760" type="line"/>
    </contour>
  </outline>
</glyph>
<glyph name="l.serif" format="2">
  <advance width="192"/>
  <unicode hex="006C"/>
  <anchor x="40" y="0" name="bottom"/>
  <anchor x="154" y="268" name="center"/>
  <anchor x="202" y="760" name="top"/>
  <anchor x="277" y="760" name="topright"/>
  <outline>
    <contour>
      <point x="96" y="-9" type="curve" smooth="yes"/>
      <point x="119" y="-9"/>
      <point x="148" y="6"/>
      <point x="167" y="31" type="curve"/>
      <point x="152" y="48" type="line"/>
      <point x="139" y="32"/>
      <point x="117" y="16"/>
      <point x="98" y="16" type="curve" smooth="yes"/>
      <point x="81" y="16"/>
      <point x="63" y="27"/>
      <point x="63" y="63" type="curve" smooth="yes"/>
      <point x="63" y="101"/>
      <point x="69" y="136"/>
      <point x="79" y="183" type="curve" smooth="yes"/>
      <point x="202" y="760" type="line"/>
      <point x="101" y="760" type="line"/>
      <point x="96" y="740" type="line"/>
      <point x="116" y="740" type="line" smooth="yes"/>
      <point x="154" y="740"/>
      <point x="159" y="737"/>
      <point x="159" y="712" type="curve" smooth="yes"/>
      <point x="159" y="703"/>
      <point x="155" y="673"/>
      <point x="151" y="652" type="curve" smooth="yes"/>
      <point x="51" y="183" type="line" smooth="yes"/>
      <point x="41" y="136"/>
      <point x="35" y="101"/>
      <point x="35" y="63" type="curve" smooth="yes"/>
      <point x="35" y="10"/>
      <point x="63" y="-9"/>
    </contour>
  </outline>
</glyph>
<glyph name="m" format="2">
  <advance width="545"/>
  <unicode hex="006D"/>
  <anchor x="217" y="0" name="bottom"/>
  <anchor x="329" y="526" name="top"/>
  <anchor x="581" y="526" name="topright"/>
  <outline>
    <contour>
      <point x="6" y="0" type="line"/>
      <point x="32" y="0" type="line"/>
      <point x="94" y="291" type="line" smooth="yes"/>
      <point x="120" y="413"/>
      <point x="151" y="511"/>
      <point x="235" y="511" type="curve" smooth="yes"/>
      <point x="274" y="511"/>
      <point x="295" y="489"/>
      <point x="295" y="451" type="curve" smooth="yes"/>
      <point x="295" y="439"/>
      <point x="294" y="422"/>
      <point x="290" y="405" type="curve" smooth="yes"/>
      <point x="202" y="0" type="line"/>
      <point x="228" y="0" type="line"/>
      <point x="311" y="379" type="line" smooth="yes"/>
      <point x="327" y="450"/>
      <point x="357" y="511"/>
      <point x="424" y="511" type="curve" smooth="yes"/>
      <point x="462" y="511"/>
      <point x="489" y="491"/>
      <point x="489" y="450" type="curve" smooth="yes"/>
      <point x="489" y="434"/>
      <point x="486" y="414"/>
      <point x="480" y="386" type="curve" smooth="yes"/>
      <point x="398" y="0" type="line"/>
      <point x="424" y="0" type="line"/>
      <point x="506" y="385" type="line" smooth="yes"/>
      <point x="510" y="404"/>
      <point x="515" y="435"/>
      <point x="515" y="453" type="curve" smooth="yes"/>
      <point x="515" y="510"/>
      <point x="475" y="536"/>
      <point x="428" y="536" type="curve" smooth="yes"/>
      <point x="377" y="536"/>
      <point x="340" y="509"/>
      <point x="319" y="465" type="curve"/>
      <point x="317" y="465" type="line"/>
      <point x="314" y="510"/>
      <point x="286" y="536"/>
      <point x="237" y="536" type="curve" smooth="yes"/>
      <point x="190" y="536"/>
      <point x="152" y="507"/>
      <point x="128" y="455" type="curve"/>
      <point x="126" y="455" type="line"/>
      <point x="139" y="526" type="line"/>
      <point x="117" y="526" type="line"/>
    </contour>
  </outline>
</glyph>
<glyph name="n" format="2">
  <advance width="357"/>
  <unicode hex="006E"/>
  <anchor x="123" y="0" name="bottom"/>
  <anchor x="235" y="526" name="top"/>
  <anchor x="393" y="526" name="topright"/>
  <outline>
    <contour>
      <point x="6" y="0" type="line"/>
      <point x="32" y="0" type="line"/>
      <point x="93" y="287" type="line" smooth="yes"/>
      <point x="124" y="436"/>
      <point x="167" y="511"/>
      <point x="242" y="511" type="curve" smooth="yes"/>
      <point x="278" y="511"/>
      <point x="301" y="492"/>
      <point x="301" y="453" type="curve" smooth="yes"/>
      <point x="301" y="419"/>
      <point x="291" y="378"/>
      <point x="283" y="339" type="curve" smooth="yes"/>
      <point x="211" y="0" type="line"/>
      <point x="237" y="0" type="line"/>
      <point x="307" y="329" type="line" smooth="yes"/>
      <point x="316" y="370"/>
      <point x="327" y="424"/>
      <point x="327" y="455" type="curve" smooth="yes"/>
      <point x="327" y="509"/>
      <point x="294" y="536"/>
      <point x="245" y="536" type="curve" smooth="yes"/>
      <point x="193" y="536"/>
      <point x="149" y="503"/>
      <point x="126" y="448" type="curve"/>
      <point x="124" y="448" type="line"/>
      <point x="138" y="526" type="line"/>
      <point x="117" y="526" type="line"/>
    </contour>
  </outline>
</glyph>
<glyph name="n.serif" format="2">
  <advance width="405"/>
  <unicode hex="006E"/>
  <anchor x="143" y="0" name="bottom"/>
  <anchor x="257" y="536" name="top"/>
  <anchor x="437" y="536" name="topright"/>
  <outline>
    <contour>
      <point x="309" y="-9" type="curve" smooth="yes"/>
      <point x="332" y="-9"/>
      <point x="356" y="6"/>
      <point x="375" y="31" type="curve"/>
      <point x="360" y="48" type="line"/>
      <point x="347" y="32"/>
      <point x="330" y="16"/>
      <point x="311" y="16" type="curve" smooth="yes"/>
      <point x="294" y="16"/>
      <point x="281" y="27"/>
      <point x="281" y="63" type="curve" smooth="yes"/>
      <point x="281" y="101"/>
      <point x="287" y="136"/>
      <point x="297" y="183" type="curve" smooth="yes"/>
      <point x="332" y="342" type="line" smooth="yes"/>
      <point x="338" y="370"/>
      <point x="349" y="412"/>
      <point x="349" y="453" type="curve" smooth="yes"/>
      <point x="349" y="499"/>
      <point x="330" y="543"/>
      <point x="279" y="543" type="curve" smooth="yes"/>
      <point x="230" y="543"/>
      <point x="191" y="508"/>
      <point x="144" y="422" type="curve"/>
      <point x="138" y="422" type="line"/>
      <point x="163" y="536" type="line"/>
      <point x="72" y="536" type="line"/>
      <point x="67" y="516" type="line"/>
      <point x="77" y="516" type="line" smooth="yes"/>
      <point x="115" y="516"/>
      <point x="122" y="513"/>
      <point x="122" y="495" type="curve" smooth="yes"/>
      <point x="122" y="479"/>
      <point x="116" y="449"/>
      <point x="112" y="428" type="curve"/>
      <point x="21" y="0" type="line"/>
      <point x="49" y="0" type="line"/>
      <point x="105" y="260" type="line" smooth="yes"/>
      <point x="127" y="363"/>
      <point x="198" y="518"/>
      <point x="277" y="518" type="curve" smooth="yes"/>
      <point x="313" y="518"/>
      <point x="321" y="480"/>
      <point x="321" y="453" type="curve" smooth="yes"/>
      <point x="321" y="416"/>
      <point x="311" y="372"/>
      <point x="304" y="342" type="curve" smooth="yes"/>
      <point x="269" y="183" type="line" smooth="yes"/>
      <point x="259" y="136"/>
      <point x="253" y="101"/>
      <point x="253" y="63" type="curve" smooth="yes"/>
      <point x="253" y="10"/>
      <point x="276" y="-9"/>
    </contour>
  </outline>
</glyph>
<glyph name="o" format="2">
  <advance width="359"/>
  <unicode hex="006F"/>
  <anchor x="124" y="0" name="bottom"/>
  <anchor x="180" y="263" name="center"/>
  <anchor x="236" y="526" name="top"/>
  <anchor x="395" y="526" name="topright"/>
  <outline>
    <contour>
      <point x="131" y="-10" type="curve" smooth="yes"/>
      <point x="268" y="-10"/>
      <point x="331" y="235"/>
      <point x="331" y="388" type="curve" smooth="yes"/>
      <point x="331" y="491"/>
      <point x="294" y="536"/>
      <point x="232" y="536" type="curve" smooth="yes"/>
      <point x="79" y="536"/>
      <point x="28" y="258"/>
      <point x="28" y="137" type="curve" smooth="yes"/>
      <point x="28" y="33"/>
      <point x="68" y="-10"/>
    </contour>
    <contour>
      <point x="132" y="15" type="curve" smooth="yes"/>
      <point x="82" y="15"/>
      <point x="55" y="55"/>
      <point x="55" y="137" type="curve" smooth="yes"/>
      <point x="55" y="247"/>
      <point x="108" y="511"/>
      <point x="230" y="511" type="curve" smooth="yes"/>
      <point x="279" y="511"/>
      <point x="304" y="470"/>
      <point x="304" y="388" type="curve" smooth="yes"/>
      <point x="304" y="257"/>
      <point x="250" y="15"/>
    </contour>
  </outline>
</glyph>
<glyph name="o.serif" format="2">
  <advance width="412"/>
  <unicode hex="006F"/>
  <anchor x="149" y="0" name="bottom"/>
  <anchor x="263" y="268" name="center"/>
  <anchor x="263" y="536" name="top"/>
  <anchor x="449" y="536" name="topright"/>
  <outline>
    <contour>
      <point x="158" y="-10" type="curve" smooth="yes"/>
      <point x="305" y="-10"/>
      <point x="379" y="210"/>
      <point x="379" y="361" type="curve" smooth="yes"/>
      <point x="379" y="492"/>
      <point x="326" y="546"/>
      <point x="256" y="546" type="curve" smooth="yes"/>
      <point x="119" y="546"/>
      <point x="33" y="353"/>
      <point x="33" y="174" type="curve" smooth="yes"/>
      <point x="33" y="58"/>
      <point x="68" y="-10"/>
    </contour>
    <contour>
      <point x="160" y="15" type="curve" smooth="yes"/>
      <point x="104" y="15"/>
      <point x="61" y="51"/>
      <point x="61" y="174" type="curve" smooth="yes"/>
      <point x="61" y="333"/>
      <point x="140" y="521"/>
      <point x="252" y="521" type="curve" smooth="yes"/>
      <point x="309" y="521"/>
      <point x="351" y="474"/>
      <point x="351" y="360" type="curve" smooth="yes"/>
      <point x="351" y="237"/>
      <point x="286" y="15"/>
    </contour>
  </outline>
</glyph>
<glyph name="p" format="2">
  <advance width="373"/>
  <unicode hex="0070"/>
  <anchor x="83" y="-228" name="bottom"/>
  <anchor x="243" y="526" name="top"/>
  <anchor x="409" y="526" name="topright"/>
  <outline>
    <contour>
      <point x="-41" y="-228" type="line"/>
      <point x="-15" y="-228" type="line"/>
      <point x="27" y="-32" type="line" smooth="yes"/>
      <point x="35" y="4"/>
      <point x="42" y="43"/>
      <point x="48" y="75" type="curve"/>
      <point x="51" y="75" type="line"/>
      <point x="58" y="27"/>
      <point x="85" y="-10"/>
      <point x="137" y="-10" type="curve" smooth="yes"/>
      <point x="276" y="-10"/>
      <point x="347" y="232"/>
      <point x="347" y="388" type="curve" smooth="yes"/>
      <point x="347" y="484"/>
      <point x="312" y="536"/>
      <point x="250" y="536" type="curve" smooth="yes"/>
      <point x="193" y="536"/>
      <point x="156" y="496"/>
      <point x="125" y="433" type="curve"/>
      <point x="123" y="433" type="line"/>
      <point x="139" y="526" type="line"/>
      <point x="118" y="526" type="line"/>
    </contour>
    <contour>
      <point x="138" y="15" type="curve" smooth="yes"/>
      <point x="94" y="15"/>
      <point x="68" y="53"/>
      <point x="68" y="110" type="curve" smooth="yes"/>
      <point x="68" y="182"/>
      <point x="115" y="511"/>
      <point x="247" y="511" type="curve" smooth="yes"/>
      <point x="290" y="511"/>
      <point x="320" y="475"/>
      <point x="320" y="386" type="curve" smooth="yes"/>
      <point x="320" y="246"/>
      <point x="255" y="15"/>
    </contour>
  </outline>
</glyph>
<glyph name="q" format="2">
  <advance width="380"/>
  <unicode hex="0071"/>
  <anchor x="84" y="-234" name="bottom"/>
  <anchor x="246" y="526" name="top"/>
  <anchor x="416" y="526" name="topright"/>
  <outline>
    <contour>
      <point x="241" y="40" type="curve" smooth="yes"/>
      <point x="183" y="-234" type="line"/>
      <point x="209" y="-234" type="line"/>
      <point x="369" y="526" type="line"/>
      <point x="348" y="526" type="line"/>
      <point x="328" y="440" type="line"/>
      <point x="326" y="440" type="line"/>
      <point x="323" y="493"/>
      <point x="294" y="536"/>
      <point x="234" y="536" type="curve" smooth="yes"/>
      <point x="93" y="536"/>
      <point x="29" y="273"/>
      <point x="29" y="138" type="curve" smooth="yes"/>
      <point x="29" y="38"/>
      <point x="64" y="-10"/>
      <point x="126" y="-10" type="curve" smooth="yes"/>
      <point x="184" y="-10"/>
      <point x="225" y="35"/>
      <point x="251" y="90" type="curve"/>
      <point x="253" y="90" type="line"/>
      <point x="250" y="78"/>
      <point x="247" y="66"/>
    </contour>
    <contour>
      <point x="129" y="15" type="curve" smooth="yes"/>
      <point x="86" y="15"/>
      <point x="56" y="47"/>
      <point x="56" y="140" type="curve" smooth="yes"/>
      <point x="56" y="259"/>
      <point x="114" y="511"/>
      <point x="233" y="511" type="curve" smooth="yes"/>
      <point x="282" y="511"/>
      <point x="308" y="470"/>
      <point x="308" y="400" type="curve" smooth="yes"/>
      <point x="308" y="331"/>
      <point x="260" y="15"/>
    </contour>
  </outline>
</glyph>
<glyph name="q.serif" format="2">
  <advance width="385"/>
  <unicode hex="0071"/>
  <anchor x="79" y="-240" name="bottom"/>
  <anchor x="244" y="536" name="top"/>
  <anchor x="411" y="536" name="topright"/>
  <outline>
    <contour>
      <point x="232" y="45" type="curve" smooth="yes"/>
      <point x="171" y="-240" type="line"/>
      <point x="272" y="-240" type="line"/>
      <point x="277" y="-220" type="line"/>
      <point x="257" y="-220" type="line" smooth="yes"/>
      <point x="219" y="-220"/>
      <point x="214" y="-217"/>
      <point x="214" y="-192" type="curve" smooth="yes"/>
      <point x="214" y="-183"/>
      <point x="218" y="-153"/>
      <point x="222" y="-132" type="curve" smooth="yes"/>
      <point x="364" y="542" type="line"/>
      <point x="356" y="542" type="line"/>
      <point x="332" y="508" type="line"/>
      <point x="316" y="535"/>
      <point x="298" y="546"/>
      <point x="264" y="546" type="curve" smooth="yes"/>
      <point x="117" y="546"/>
      <point x="26" y="307"/>
      <point x="26" y="149" type="curve" smooth="yes"/>
      <point x="26" y="55"/>
      <point x="49" y="-10"/>
      <point x="108" y="-10" type="curve" smooth="yes"/>
      <point x="155" y="-10"/>
      <point x="203" y="36"/>
      <point x="256" y="151" type="curve"/>
      <point x="259" y="151" type="line"/>
      <point x="249" y="116"/>
      <point x="240" y="80"/>
    </contour>
    <contour>
      <point x="108" y="14" type="curve" smooth="yes"/>
      <point x="77" y="14"/>
      <point x="54" y="66"/>
      <point x="54" y="149" type="curve" smooth="yes"/>
      <point x="54" y="284"/>
      <point x="134" y="521"/>
      <point x="259" y="521" type="curve" smooth="yes"/>
      <point x="288" y="521"/>
      <point x="311" y="505"/>
      <point x="323" y="474" type="curve"/>
      <point x="288" y="307" type="line" smooth="yes"/>
      <point x="262" y="181"/>
      <point x="171" y="14"/>
    </contour>
  </outline>
</glyph>
<glyph name="s" format="2">
  <advance width="274"/>
  <unicode hex="0073"/>
  <anchor x="81" y="0" name="bottom"/>
  <anchor x="193" y="526" name="top"/>
  <anchor x="310" y="526" name="topright"/>
  <outline>
    <contour>
      <point x="76" y="-10" type="curve" smooth="yes"/>
      <point x="159" y="-10"/>
      <point x="209" y="40"/>
      <point x="209" y="135" type="curve" smooth="yes"/>
      <point x="209" y="197"/>
      <point x="182" y="228"/>
      <point x="137" y="284" type="curve" smooth="yes"/>
      <point x="102" y="327"/>
      <point x="84" y="361"/>
      <point x="84" y="408" type="curve" smooth="yes"/>
      <point x="84" y="470"/>
      <point x="122" y="511"/>
      <point x="184" y="511" type="curve" smooth="yes"/>
      <point x="225" y="511"/>
      <point x="250" y="497"/>
      <point x="267" y="485" type="curve"/>
      <point x="283" y="508" type="line"/>
      <point x="262" y="521"/>
      <point x="233" y="536"/>
      <point x="186" y="536" type="curve" smooth="yes"/>
      <point x="105" y="536"/>
      <point x="57" y="479"/>
      <point x="57" y="406" type="curve" smooth="yes"/>
      <point x="57" y="344"/>
      <point x="86" y="305"/>
      <point x="119" y="264" type="curve" smooth="yes"/>
      <point x="161" y="212"/>
      <point x="182" y="184"/>
      <point x="182" y="134" type="curve" smooth="yes"/>
      <point x="182" y="58"/>
      <point x="149" y="15"/>
      <point x="76" y="15" type="curve" smooth="yes"/>
      <point x="36" y="15"/>
      <point x="3" y="29"/>
      <point x="-16" y="43" type="curve"/>
      <point x="-16" y="12" type="line"/>
      <point x="0" y="2"/>
      <point x="33" y="-10"/>
    </contour>
  </outline>
</glyph>
<glyph name="s.serif" format="2">
  <advance width="317"/>
  <unicode hex="0073"/>
  <anchor x="102" y="0" name="bottom"/>
  <anchor x="216" y="536" name="top"/>
  <anchor x="354" y="536" name="topright"/>
  <outline>
    <contour>
      <point x="119" y="-10" type="curve" smooth="yes"/>
      <point x="201" y="-10"/>
      <point x="255" y="54"/>
      <point x="255" y="146" type="curve" smooth="yes"/>
      <point x="255" y="216"/>
      <point x="226" y="261"/>
      <point x="172" y="292" type="curve" smooth="yes"/>
      <point x="129" y="316"/>
      <point x="109" y="346"/>
      <point x="108" y="390" type="curve" smooth="yes"/>
      <point x="107" y="469"/>
      <point x="148" y="521"/>
      <point x="205" y="521" type="curve" smooth="yes"/>
      <point x="264" y="521"/>
      <point x="277" y="467"/>
      <point x="274" y="414" type="curve"/>
      <point x="289" y="414"/>
      <point x="301" y="422"/>
      <point x="301" y="444" type="curve" smooth="yes"/>
      <point x="301" y="500"/>
      <point x="269" y="546"/>
      <point x="209" y="546" type="curve" smooth="yes"/>
      <point x="128" y="546"/>
      <point x="80" y="475"/>
      <point x="80" y="390" type="curve" smooth="yes"/>
      <point x="80" y="330"/>
      <point x="110" y="296"/>
      <point x="158" y="268" type="curve" smooth="yes"/>
      <point x="211" y="237"/>
      <point x="227" y="194"/>
      <point x="227" y="146" type="curve" smooth="yes"/>
      <point x="227" y="65"/>
      <point x="183" y="15"/>
      <point x="122" y="15" type="curve" smooth="yes"/>
      <point x="54" y="15"/>
      <point x="36" y="69"/>
      <point x="39" y="146" type="curve"/>
      <point x="27" y="146"/>
      <point x="14" y="137"/>
      <point x="14" y="103" type="curve" smooth="yes"/>
      <point x="14" y="29"/>
      <point x="56" y="-10"/>
    </contour>
  </outline>
</glyph>
<glyph name="t.serif" format="2">
  <advance width="244"/>
  <unicode hex="0074"/>
  <anchor x="65" y="0" name="bottom"/>
  <anchor x="129" y="268" name="center"/>
  <anchor x="205" y="659" name="top"/>
  <anchor x="261" y="930" name="topright"/>
  <outline>
    <contour>
      <point x="120" y="-10" type="curve" smooth="yes"/>
      <point x="135" y="-10"/>
      <point x="165" y="-6"/>
      <point x="193" y="7" type="curve"/>
      <point x="186" y="31" type="line"/>
      <point x="168" y="22"/>
      <point x="141" y="15"/>
      <point x="119" y="15" type="curve" smooth="yes"/>
      <point x="93" y="15"/>
      <point x="83" y="35"/>
      <point x="83" y="69" type="curve" smooth="yes"/>
      <point x="83" y="98"/>
      <point x="86" y="121"/>
      <point x="98" y="177" type="curve" smooth="yes"/>
      <point x="167" y="511" type="line"/>
      <point x="248" y="511" type="line"/>
      <point x="253" y="536" type="line"/>
      <point x="172" y="536" type="line"/>
      <point x="198" y="659" type="line"/>
      <point x="173" y="659" type="line"/>
      <point x="149" y="544"/>
      <point x="141" y="533"/>
      <point x="74" y="529" type="curve"/>
      <point x="72" y="511" type="line"/>
      <point x="139" y="511" type="line"/>
      <point x="70" y="177" type="line" smooth="yes"/>
      <point x="61" y="131"/>
      <point x="55" y="105"/>
      <point x="55" y="69" type="curve" smooth="yes"/>
      <point x="55" y="23"/>
      <point x="71" y="-10"/>
    </contour>
  </outline>
</glyph>
<glyph name="u" format="2">
  <advance width="358"/>
  <unicode hex="0075"/>
  <anchor x="123" y="0" name="bottom"/>
  <anchor x="235" y="526" name="top"/>
  <anchor x="394" y="526" name="topright"/>
  <outline>
    <contour>
      <point x="108" y="-10" type="curve" smooth="yes"/>
      <point x="160" y="-10"/>
      <point x="204" y="23"/>
      <point x="227" y="78" type="curve"/>
      <point x="229" y="78" type="line"/>
      <point x="215" y="0" type="line"/>
      <point x="236" y="0" type="line"/>
      <point x="347" y="526" type="line"/>
      <point x="321" y="526" type="line"/>
      <point x="260" y="239" type="line" smooth="yes"/>
      <point x="229" y="90"/>
      <point x="186" y="15"/>
      <point x="111" y="15" type="curve" smooth="yes"/>
      <point x="75" y="15"/>
      <point x="52" y="34"/>
      <point x="52" y="73" type="curve" smooth="yes"/>
      <point x="52" y="107"/>
      <point x="62" y="148"/>
      <point x="70" y="187" type="curve" smooth="yes"/>
      <point x="142" y="526" type="line"/>
      <point x="116" y="526" type="line"/>
      <point x="46" y="197" type="line" smooth="yes"/>
      <point x="37" y="156"/>
      <point x="26" y="102"/>
      <point x="26" y="71" type="curve" smooth="yes"/>
      <point x="26" y="17"/>
      <point x="59" y="-10"/>
    </contour>
  </outline>
</glyph>
<glyph name="v" format="2">
  <advance width="271"/>
  <unicode hex="0076"/>
  <anchor x="80" y="0" name="bottom"/>
  <anchor x="192" y="526" name="top"/>
  <anchor x="307" y="526" name="topright"/>
  <outline>
    <contour>
      <point x="60" y="0" type="line"/>
      <point x="89" y="0" type="line"/>
      <point x="320" y="526" type="line"/>
      <point x="293" y="526" type="line"/>
      <point x="132" y="161" type="line" smooth="yes"/>
      <point x="116" y="124"/>
      <point x="100" y="87"/>
      <point x="86" y="49" type="curve"/>
      <point x="83" y="49" type="line"/>
      <point x="84" y="93"/>
      <point x="84" y="128"/>
      <point x="84" y="165" type="curve" smooth="yes"/>
      <point x="82" y="526" type="line"/>
      <point x="57" y="526" type="line"/>
    </contour>
  </outline>
</glyph>
<glyph name="v.serif" format="2">
  <advance width="379"/>
  <unicode hex="0076"/>
  <anchor x="133" y="0" name="bottom"/>
  <anchor x="247" y="536" name="top"/>
  <anchor x="416" y="536" name="topright"/>
  <outline>
    <contour>
      <point x="82" y="465" type="curve" smooth="yes"/>
      <point x="116" y="-9" type="line"/>
      <point x="148" y="1" type="line"/>
      <point x="276" y="149"/>
      <point x="357" y="323"/>
      <point x="357" y="465" type="curve" smooth="yes"/>
      <point x="357" y="520"/>
      <point x="346" y="544"/>
      <point x="323" y="544" type="curve" smooth="yes"/>
      <point x="308" y="544"/>
      <point x="301" y="530"/>
      <point x="301" y="512" type="curve"/>
      <point x="322" y="512"/>
      <point x="329" y="493"/>
      <point x="329" y="454" type="curve" smooth="yes"/>
      <point x="329" y="339"/>
      <point x="254" y="167"/>
      <point x="141" y="32" type="curve"/>
      <point x="139" y="32" type="line"/>
      <point x="137" y="65"/>
      <point x="130" y="170"/>
      <point x="125" y="237" type="curve" smooth="yes"/>
      <point x="103" y="536" type="line"/>
      <point x="28" y="536" type="line"/>
      <point x="23" y="516" type="line"/>
      <point x="31" y="516" type="line" smooth="yes"/>
      <point x="76" y="516"/>
      <point x="78" y="516"/>
    </contour>
  </outline>
</glyph>
<glyph name="w" format="2">
  <advance width="460"/>
  <unicode hex="0077"/>
  <anchor x="174" y="0" name="bottom"/>
  <anchor x="286" y="526" name="top"/>
  <anchor x="496" y="526" name="topright"/>
  <outline>
    <contour>
      <point x="59" y="-1" type="line"/>
      <point x="87" y="-1" type="line"/>
      <point x="247" y="391" type="line" smooth="yes"/>
      <point x="260" y="423"/>
      <point x="271" y="451"/>
      <point x="281" y="481" type="curve"/>
      <point x="282" y="481" type="line"/>
      <point x="279" y="450"/>
      <point x="279" y="416"/>
      <point x="279" y="390" type="curve" smooth="yes"/>
      <point x="272" y="-1" type="line"/>
      <point x="298" y="-1" type="line"/>
      <point x="505" y="526" type="line"/>
      <point x="479" y="526" type="line"/>
      <point x="334" y="151" type="line" smooth="yes"/>
      <point x="319" y="112"/>
      <point x="306" y="78"/>
      <point x="295" y="47" type="curve"/>
      <point x="293" y="47" type="line"/>
      <point x="296" y="81"/>
      <point x="298" y="130"/>
      <point x="298" y="156" type="curve" smooth="yes"/>
      <point x="304" y="526" type="line"/>
      <point x="278" y="526" type="line"/>
      <point x="128" y="162" type="line" smooth="yes"/>
      <point x="113" y="125"/>
      <point x="93" y="78"/>
      <point x="84" y="48" type="curve"/>
      <point x="82" y="48" type="line"/>
      <point x="83" y="83"/>
      <point x="84" y="118"/>
      <point x="84" y="157" type="curve" smooth="yes"/>
      <point x="87" y="526" type="line"/>
      <point x="63" y="526" type="line"/>
    </contour>
  </outline>
</glyph>
<glyph name="w.serif" format="2">
  <advance width="594"/>
  <unicode hex="0077"/>
  <anchor x="240" y="0" name="bottom"/>
  <anchor x="354" y="536" name="top"/>
  <anchor x="631" y="536" name="topright"/>
  <outline>
    <contour>
      <point x="330" y="-10" type="curve"/>
      <point x="365" y="1" type="line"/>
      <point x="495" y="194"/>
      <point x="586" y="363"/>
      <point x="586" y="485" type="curve" smooth="yes"/>
      <point x="586" y="520"/>
      <point x="575" y="544"/>
      <point x="552" y="544" type="curve" smooth="yes"/>
      <point x="537" y="544"/>
      <point x="530" y="530"/>
      <point x="530" y="512" type="curve"/>
      <point x="551" y="512"/>
      <point x="558" y="501"/>
      <point x="558" y="481" type="curve" smooth="yes"/>
      <point x="558" y="379"/>
      <point x="476" y="217"/>
      <point x="361" y="39" type="curve"/>
      <point x="358" y="39" type="line"/>
      <point x="362" y="133"/>
      <point x="363" y="391"/>
      <point x="360" y="531" type="curve"/>
      <point x="334" y="527" type="line"/>
      <point x="266" y="364"/>
      <point x="193" y="202"/>
      <point x="117" y="39" type="curve"/>
      <point x="114" y="39" type="line"/>
      <point x="118" y="205"/>
      <point x="123" y="324"/>
      <point x="127" y="536" type="curve"/>
      <point x="48" y="536" type="line"/>
      <point x="43" y="516" type="line"/>
      <point x="51" y="516" type="line" smooth="yes"/>
      <point x="96" y="516"/>
      <point x="98" y="510"/>
      <point x="97" y="459" type="curve" smooth="yes"/>
      <point x="86" y="-13" type="line"/>
      <point x="128" y="1" type="line"/>
      <point x="200" y="153"/>
      <point x="269" y="306"/>
      <point x="333" y="458" type="curve"/>
      <point x="335" y="302"/>
      <point x="334" y="146"/>
    </contour>
  </outline>
</glyph>
<glyph name="x" format="2">
  <advance width="284"/>
  <unicode hex="0078"/>
  <anchor x="86" y="0" name="bottom"/>
  <anchor x="198" y="526" name="top"/>
  <anchor x="320" y="526" name="topright"/>
  <outline>
    <contour>
      <point x="-43" y="0" type="line"/>
      <point x="-14" y="0" type="line"/>
      <point x="138" y="247" type="line"/>
      <point x="184" y="0" type="line"/>
      <point x="210" y="0" type="line"/>
      <point x="158" y="268" type="line"/>
      <point x="317" y="526" type="line"/>
      <point x="288" y="526" type="line"/>
      <point x="148" y="295" type="line"/>
      <point x="106" y="526" type="line"/>
      <point x="80" y="526" type="line"/>
      <point x="128" y="275" type="line"/>
    </contour>
  </outline>
</glyph>
<glyph name="x.serif" format="2">
  <advance width="375"/>
  <unicode hex="0078"/>
  <anchor x="131" y="0" name="bottom"/>
  <anchor x="245" y="536" name="top"/>
  <anchor x="412" y="536" name="topright"/>
  <outline>
    <contour>
      <point x="-18" y="0" type="line"/>
      <point x="54" y="0" type="line"/>
      <point x="188" y="248" type="line"/>
      <point x="254" y="0" type="line"/>
      <point x="316" y="0" type="line"/>
      <point x="321" y="20" type="line"/>
      <point x="310" y="20" type="line" smooth="yes"/>
      <point x="279" y="20"/>
      <point x="276" y="34"/>
      <point x="259" y="94" type="curve" smooth="yes"/>
      <point x="206" y="279" type="line"/>
      <point x="310" y="467" type="line" smooth="yes"/>
      <point x="336" y="515"/>
      <point x="337" y="516"/>
      <point x="379" y="516" type="curve" smooth="yes"/>
      <point x="385" y="516" type="line"/>
      <point x="390" y="536" type="line"/>
      <point x="317" y="536" type="line"/>
      <point x="197" y="313" type="line"/>
      <point x="134" y="536" type="line"/>
      <point x="81" y="536" type="line"/>
      <point x="76" y="516" type="line"/>
      <point x="89" y="516" type="line" smooth="yes"/>
      <point x="109" y="516"/>
      <point x="110" y="515"/>
      <point x="128" y="454" type="curve" smooth="yes"/>
      <point x="179" y="282" type="line"/>
      <point x="61" y="70" type="line" smooth="yes"/>
      <point x="34" y="22"/>
      <point x="33" y="20"/>
      <point x="-7" y="20" type="curve" smooth="yes"/>
      <point x="-13" y="20" type="line"/>
    </contour>
  </outline>
</glyph>
<glyph name="y" format="2">
  <advance width="294"/>
  <unicode hex="0079"/>
  <anchor x="39" y="-243" name="bottom"/>
  <anchor x="203" y="526" name="top"/>
  <anchor x="330" y="526" name="topright"/>
  <outline>
    <contour>
      <point x="-73" y="-243" type="curve" smooth="yes"/>
      <point x="-14" y="-243"/>
      <point x="18" y="-210"/>
      <point x="55" y="-126" type="curve" smooth="yes"/>
      <point x="344" y="526" type="line"/>
      <point x="317" y="526" type="line"/>
      <point x="148" y="144" type="line" smooth="yes"/>
      <point x="138" y="122"/>
      <point x="123" y="87"/>
      <point x="111" y="57" type="curve"/>
      <point x="109" y="57" type="line"/>
      <point x="110" y="85"/>
      <point x="110" y="119"/>
      <point x="110" y="141" type="curve" smooth="yes"/>
      <point x="107" y="526" type="line"/>
      <point x="81" y="526" type="line"/>
      <point x="87" y="13" type="line"/>
      <point x="30" y="-118" type="line" smooth="yes"/>
      <point x="-2" y="-192"/>
      <point x="-29" y="-218"/>
      <point x="-71" y="-218" type="curve" smooth="yes"/>
      <point x="-88" y="-218"/>
      <point x="-100" y="-214"/>
      <point x="-109" y="-208" type="curve"/>
      <point x="-115" y="-233" type="line"/>
      <point x="-108" y="-238"/>
      <point x="-93" y="-243"/>
    </contour>
  </outline>
</glyph>
<glyph name="y.serif" format="2">
  <advance width="366"/>
  <unicode hex="0079"/>
  <anchor x="35" y="-240" name="bottom"/>
  <anchor x="210" y="536" name="top"/>
  <anchor x="393" y="536" name="topright"/>
  <outline>
    <contour>
      <point x="-77" y="-240" type="curve" smooth="yes"/>
      <point x="27" y="-240"/>
      <point x="91" y="-189"/>
      <point x="206" y="42" type="curve" smooth="yes"/>
      <point x="291" y="211"/>
      <point x="350" y="362"/>
      <point x="350" y="465" type="curve" smooth="yes"/>
      <point x="350" y="520"/>
      <point x="339" y="544"/>
      <point x="316" y="544" type="curve" smooth="yes"/>
      <point x="301" y="544"/>
      <point x="294" y="530"/>
      <point x="294" y="512" type="curve"/>
      <point x="315" y="512"/>
      <point x="322" y="493"/>
      <point x="322" y="454" type="curve" smooth="yes"/>
      <point x="322" y="355"/>
      <point x="253" y="200"/>
      <point x="186" y="61" type="curve"/>
      <point x="183" y="61" type="line"/>
      <point x="178" y="92"/>
      <point x="168" y="150"/>
      <point x="155" y="213" type="curve" smooth="yes"/>
      <point x="91" y="536" type="line"/>
      <point x="21" y="536" type="line"/>
      <point x="17" y="516" type="line"/>
      <point x="25" y="516" type="line" smooth="yes"/>
      <point x="56" y="516"/>
      <point x="68" y="503"/>
      <point x="76" y="463" type="curve" smooth="yes"/>
      <point x="164" y="21" type="line"/>
      <point x="70" y="-165"/>
      <point x="15" y="-215"/>
      <point x="-73" y="-215" type="curve" smooth="yes"/>
      <point x="-96" y="-215"/>
      <point x="-114" y="-211"/>
      <point x="-128" y="-203" type="curve"/>
      <point x="-140" y="-225" type="line"/>
      <point x="-124" y="-234"/>
      <point x="-100" y="-240"/>
    </contour>
  </outline>
</glyph>
<glyph name="z" format="2">
  <advance width="230"/>
  <unicode hex="007A"/>
  <anchor x="59" y="0" name="bottom"/>
  <anchor x="171" y="526" name="top"/>
  <anchor x="266" y="526" name="topright"/>
  <outline>
    <contour>
      <point x="-33" y="0" type="line"/>
      <point x="153" y="0" type="line"/>
      <point x="158" y="25" type="line"/>
      <point x="-1" y="25" type="line"/>
      <point x="257" y="502" type="line"/>
      <point x="262" y="526" type="line"/>
      <point x="93" y="526" type="line"/>
      <point x="88" y="501" type="line"/>
      <point x="230" y="501" type="line"/>
      <point x="-28" y="24" type="line"/>
    </contour>
  </outline>
</glyph>
<glyph name="z.serif" format="2">
  <advance width="357"/>
  <unicode hex="007A"/>
  <anchor x="122" y="0" name="bottom"/>
  <anchor x="236" y="536" name="top"/>
  <anchor x="394" y="536" name="topright"/>
  <outline>
    <contour>
      <point x="-9" y="0" type="line"/>
      <point x="249" y="0" type="line"/>
      <point x="282" y="126" type="line"/>
      <point x="260" y="126" type="line"/>
      <point x="253" y="103" type="line" smooth="yes"/>
      <point x="230" y="28"/>
      <point x="227" y="25"/>
      <point x="182" y="25" type="curve" smooth="yes"/>
      <point x="29" y="25" type="line"/>
      <point x="338" y="519" type="line"/>
      <point x="340" y="536" type="line"/>
      <point x="120" y="536" type="line"/>
      <point x="87" y="431" type="line"/>
      <point x="109" y="431" type="line"/>
      <point x="113" y="442" type="line" smooth="yes"/>
      <point x="138" y="510"/>
      <point x="142" y="511"/>
      <point x="184" y="511" type="curve" smooth="yes"/>
      <point x="303" y="511" type="line"/>
      <point x="-6" y="16" type="line"/>
    </contour>
  </outline>
</glyph>
<glyph name="braceleft" format="2">
  <advance width="310"/>
  <unicode hex="007B"/>
  <outline>
    <contour>
      <point x="176" y="-158" type="curve" smooth="yes"/>
      <point x="185" y="-158" type="line"/>
      <point x="191" y="-133" type="line"/>
      <point x="122" y="-133"/>
      <point x="93" y="-116"/>
      <point x="93" y="-63" type="curve" smooth="yes"/>
      <point x="93" y="-48"/>
      <point x="96" y="-32"/>
      <point x="100" y="-11" type="curve" smooth="yes"/>
      <point x="136" y="160" type="line" smooth="yes"/>
      <point x="140" y="178"/>
      <point x="142" y="194"/>
      <point x="142" y="208" type="curve" smooth="yes"/>
      <point x="142" y="251"/>
      <point x="122" y="269"/>
      <point x="92" y="276" type="curve"/>
      <point x="92" y="277" type="line"/>
      <point x="144" y="284"/>
      <point x="170" y="318"/>
      <point x="183" y="379" type="curve" smooth="yes"/>
      <point x="225" y="579" type="line" smooth="yes"/>
      <point x="242" y="658"/>
      <point x="277" y="689"/>
      <point x="365" y="689" type="curve"/>
      <point x="371" y="714" type="line"/>
      <point x="364" y="714" type="line" smooth="yes"/>
      <point x="267" y="714"/>
      <point x="220" y="679"/>
      <point x="200" y="587" type="curve" smooth="yes"/>
      <point x="158" y="390" type="line" smooth="yes"/>
      <point x="141" y="310"/>
      <point x="113" y="290"/>
      <point x="38" y="290" type="curve"/>
      <point x="33" y="265" type="line"/>
      <point x="93" y="265"/>
      <point x="115" y="251"/>
      <point x="115" y="209" type="curve" smooth="yes"/>
      <point x="115" y="193"/>
      <point x="112" y="174"/>
      <point x="107" y="150" type="curve" smooth="yes"/>
      <point x="73" y="-10" type="line" smooth="yes"/>
      <point x="69" y="-30"/>
      <point x="66" y="-48"/>
      <point x="66" y="-64" type="curve" smooth="yes"/>
      <point x="66" y="-125"/>
      <point x="101" y="-158"/>
    </contour>
  </outline>
</glyph>
<glyph name="bar" format="2">
  <advance width="343"/>
  <unicode hex="007C"/>
  <outline>
    <contour>
      <point x="156" y="-244" type="line"/>
      <point x="182" y="-244" type="line"/>
      <point x="182" y="761" type="line"/>
      <point x="156" y="761" type="line"/>
    </contour>
  </outline>
</glyph>
<glyph name="braceright" format="2">
  <advance width="308"/>
  <unicode hex="007D"/>
  <outline>
    <contour>
      <point x="-60" y="-133" type="curve"/>
      <point x="-66" y="-158" type="line"/>
      <point x="-59" y="-158" type="line" smooth="yes"/>
      <point x="38" y="-158"/>
      <point x="85" y="-123"/>
      <point x="105" y="-31" type="curve" smooth="yes"/>
      <point x="147" y="165" type="line" smooth="yes"/>
      <point x="164" y="245"/>
      <point x="192" y="265"/>
      <point x="267" y="265" type="curve"/>
      <point x="272" y="290" type="line"/>
      <point x="212" y="290"/>
      <point x="190" y="304"/>
      <point x="190" y="346" type="curve" smooth="yes"/>
      <point x="190" y="362"/>
      <point x="193" y="381"/>
      <point x="198" y="405" type="curve" smooth="yes"/>
      <point x="232" y="566" type="line" smooth="yes"/>
      <point x="236" y="586"/>
      <point x="239" y="604"/>
      <point x="239" y="620" type="curve" smooth="yes"/>
      <point x="239" y="681"/>
      <point x="204" y="714"/>
      <point x="129" y="714" type="curve" smooth="yes"/>
      <point x="120" y="714" type="line"/>
      <point x="114" y="689" type="line"/>
      <point x="183" y="689"/>
      <point x="212" y="672"/>
      <point x="212" y="619" type="curve" smooth="yes"/>
      <point x="212" y="604"/>
      <point x="209" y="588"/>
      <point x="205" y="567" type="curve" smooth="yes"/>
      <point x="169" y="395" type="line" smooth="yes"/>
      <point x="165" y="377"/>
      <point x="163" y="361"/>
      <point x="163" y="347" type="curve" smooth="yes"/>
      <point x="163" y="304"/>
      <point x="183" y="286"/>
      <point x="213" y="279" type="curve"/>
      <point x="213" y="278" type="line"/>
      <point x="161" y="271"/>
      <point x="135" y="237"/>
      <point x="122" y="176" type="curve" smooth="yes"/>
      <point x="80" y="-23" type="line" smooth="yes"/>
      <point x="63" y="-102"/>
      <point x="28" y="-133"/>
    </contour>
  </outline>
</glyph>
<glyph name="exclamdown" format="2">
  <advance width="203"/>
  <unicode hex="00A1"/>
  <outline>
    <contour>
      <point x="-9" y="-180" type="line"/>
      <point x="19" y="-180" type="line"/>
      <point x="137" y="368" type="line"/>
      <point x="117" y="368" type="line"/>
    </contour>
    <contour>
      <point x="153" y="466" type="curve" smooth="yes"/>
      <point x="173" y="466"/>
      <point x="182" y="492"/>
      <point x="182" y="511" type="curve" smooth="yes"/>
      <point x="182" y="526"/>
      <point x="175" y="535"/>
      <point x="164" y="535" type="curve" smooth="yes"/>
      <point x="144" y="535"/>
      <point x="135" y="508"/>
      <point x="135" y="491" type="curve" smooth="yes"/>
      <point x="135" y="474"/>
      <point x="142" y="466"/>
    </contour>
  </outline>
</glyph>
<glyph name="exclamdown.serif" format="2">
  <advance width="205"/>
  <unicode hex="00A1"/>
  <outline>
    <contour>
      <point x="-15" y="-179" type="line"/>
      <point x="15" y="-179" type="line"/>
      <point x="125" y="348" type="line"/>
      <point x="101" y="348" type="line"/>
    </contour>
    <contour>
      <point x="145" y="462" type="curve" smooth="yes"/>
      <point x="164" y="462"/>
      <point x="175" y="479"/>
      <point x="175" y="505" type="curve" smooth="yes"/>
      <point x="175" y="529"/>
      <point x="163" y="540"/>
      <point x="146" y="540" type="curve" smooth="yes"/>
      <point x="131" y="540"/>
      <point x="116" y="528"/>
      <point x="116" y="497" type="curve" smooth="yes"/>
      <point x="116" y="473"/>
      <point x="129" y="462"/>
    </contour>
  </outline>
</glyph>
<glyph name="cent" format="2">
  <advance width="342"/>
  <unicode hex="00A2"/>
  <outline>
    <contour>
      <point x="146" y="97" type="curve"/>
      <point x="123" y="-10" type="line"/>
      <point x="149" y="-10" type="line"/>
      <point x="171" y="94" type="line"/>
      <point x="198" y="94"/>
      <point x="220" y="98"/>
      <point x="242" y="108" type="curve"/>
      <point x="242" y="134" type="line"/>
      <point x="223" y="125"/>
      <point x="201" y="119"/>
      <point x="178" y="119" type="curve" smooth="yes"/>
      <point x="121" y="119"/>
      <point x="93" y="154"/>
      <point x="93" y="253" type="curve" smooth="yes"/>
      <point x="93" y="405"/>
      <point x="159" y="615"/>
      <point x="275" y="615" type="curve" smooth="yes"/>
      <point x="293" y="615"/>
      <point x="310" y="612"/>
      <point x="326" y="604" type="curve"/>
      <point x="335" y="629" type="line"/>
      <point x="323" y="635"/>
      <point x="306" y="638"/>
      <point x="288" y="640" type="curve"/>
      <point x="305" y="724" type="line"/>
      <point x="279" y="724" type="line"/>
      <point x="261" y="639" type="line"/>
      <point x="130" y="625"/>
      <point x="67" y="402"/>
      <point x="67" y="251" type="curve" smooth="yes"/>
      <point x="67" y="153"/>
      <point x="93" y="108"/>
    </contour>
  </outline>
</glyph>
<glyph name="cent.serif" format="2">
  <advance width="424"/>
  <unicode hex="00A2"/>
  <outline>
    <contour>
      <point x="175" y="94" type="curve"/>
      <point x="155" y="0" type="line"/>
      <point x="183" y="0" type="line"/>
      <point x="202" y="92" type="line"/>
      <point x="281" y="95"/>
      <point x="312" y="155"/>
      <point x="312" y="184" type="curve" smooth="yes"/>
      <point x="312" y="192"/>
      <point x="307" y="197"/>
      <point x="302" y="197" type="curve"/>
      <point x="283" y="158"/>
      <point x="256" y="121"/>
      <point x="208" y="117" type="curve"/>
      <point x="314" y="618" type="line"/>
      <point x="348" y="612"/>
      <point x="364" y="582"/>
      <point x="364" y="520" type="curve"/>
      <point x="380" y="520"/>
      <point x="391" y="532"/>
      <point x="391" y="549" type="curve" smooth="yes"/>
      <point x="391" y="592"/>
      <point x="370" y="635"/>
      <point x="319" y="643" type="curve"/>
      <point x="334" y="714" type="line"/>
      <point x="306" y="714" type="line"/>
      <point x="291" y="643" type="line"/>
      <point x="164" y="632"/>
      <point x="92" y="420"/>
      <point x="92" y="281" type="curve" smooth="yes"/>
      <point x="92" y="168"/>
      <point x="122" y="107"/>
    </contour>
    <contour>
      <point x="286" y="618" type="curve"/>
      <point x="180" y="119" type="line"/>
      <point x="143" y="132"/>
      <point x="120" y="189"/>
      <point x="120" y="280" type="curve" smooth="yes"/>
      <point x="120" y="392"/>
      <point x="177" y="602"/>
    </contour>
  </outline>
</glyph>
<glyph name="sterling" format="2">
  <advance width="345"/>
  <unicode hex="00A3"/>
  <outline>
    <contour>
      <point x="-28" y="22" type="curve"/>
      <point x="-33" y="0" type="line"/>
      <point x="251" y="0" type="line"/>
      <point x="256" y="25" type="line"/>
      <point x="23" y="25" type="line"/>
      <point x="50" y="41"/>
      <point x="81" y="76"/>
      <point x="103" y="181" type="curve" smooth="yes"/>
      <point x="137" y="340" type="line"/>
      <point x="245" y="340" type="line"/>
      <point x="250" y="365" type="line"/>
      <point x="142" y="365" type="line"/>
      <point x="186" y="576" type="line" smooth="yes"/>
      <point x="202" y="651"/>
      <point x="223" y="699"/>
      <point x="292" y="699" type="curve" smooth="yes"/>
      <point x="331" y="699"/>
      <point x="354" y="682"/>
      <point x="372" y="665" type="curve"/>
      <point x="389" y="684" type="line"/>
      <point x="369" y="704"/>
      <point x="341" y="724"/>
      <point x="294" y="724" type="curve" smooth="yes"/>
      <point x="207" y="724"/>
      <point x="179" y="666"/>
      <point x="160" y="576" type="curve" smooth="yes"/>
      <point x="115" y="365" type="line"/>
      <point x="44" y="365" type="line"/>
      <point x="39" y="340" type="line"/>
      <point x="111" y="340" type="line"/>
      <point x="77" y="181" type="line" smooth="yes"/>
      <point x="55" y="76"/>
      <point x="23" y="36"/>
    </contour>
  </outline>
</glyph>
<glyph name="sterling.serif" format="2">
  <advance width="424"/>
  <unicode hex="00A3"/>
  <outline>
    <contour>
      <point x="225" y="-10" type="curve" smooth="yes"/>
      <point x="279" y="-10"/>
      <point x="322" y="28"/>
      <point x="357" y="76" type="curve"/>
      <point x="337" y="91" type="line"/>
      <point x="302" y="45"/>
      <point x="265" y="15"/>
      <point x="228" y="15" type="curve" smooth="yes"/>
      <point x="193" y="15"/>
      <point x="161" y="63"/>
      <point x="120" y="63" type="curve" smooth="yes"/>
      <point x="105" y="63"/>
      <point x="97" y="61"/>
      <point x="81" y="53" type="curve"/>
      <point x="79" y="56" type="line"/>
      <point x="160" y="123"/>
      <point x="183" y="175"/>
      <point x="183" y="259" type="curve" smooth="yes"/>
      <point x="183" y="287"/>
      <point x="181" y="311"/>
      <point x="178" y="332" type="curve"/>
      <point x="287" y="332" type="line"/>
      <point x="292" y="355" type="line"/>
      <point x="175" y="355" type="line"/>
      <point x="170" y="392"/>
      <point x="163" y="422"/>
      <point x="163" y="462" type="curve"/>
      <point x="162" y="602"/>
      <point x="220" y="699"/>
      <point x="320" y="699" type="curve" smooth="yes"/>
      <point x="381" y="699"/>
      <point x="416" y="665"/>
      <point x="416" y="580" type="curve"/>
      <point x="436" y="580"/>
      <point x="443" y="590"/>
      <point x="443" y="610" type="curve" smooth="yes"/>
      <point x="443" y="678"/>
      <point x="401" y="724"/>
      <point x="323" y="724" type="curve" smooth="yes"/>
      <point x="217" y="724"/>
      <point x="135" y="641"/>
      <point x="135" y="462" type="curve" smooth="yes"/>
      <point x="135" y="423"/>
      <point x="141" y="391"/>
      <point x="147" y="355" type="curve"/>
      <point x="65" y="355" type="line"/>
      <point x="60" y="332" type="line"/>
      <point x="150" y="332" type="line"/>
      <point x="153" y="311"/>
      <point x="155" y="287"/>
      <point x="155" y="259" type="curve" smooth="yes"/>
      <point x="155" y="162"/>
      <point x="117" y="102"/>
      <point x="28" y="43" type="curve" smooth="yes"/>
      <point x="-5" y="21" type="line"/>
      <point x="7" y="-1" type="line"/>
      <point x="25" y="11" type="line" smooth="yes"/>
      <point x="54" y="31"/>
      <point x="84" y="39"/>
      <point x="107" y="39" type="curve" smooth="yes"/>
      <point x="150" y="39"/>
      <point x="176" y="-10"/>
    </contour>
  </outline>
</glyph>
<glyph name="currency" format="2">
  <advance width="569"/>
  <unicode hex="00A4"/>
  <outline>
    <contour>
      <point x="417" y="208" type="curve"/>
      <point x="494" y="133" type="line"/>
      <point x="510" y="148" type="line"/>
      <point x="434" y="224" type="line"/>
      <point x="467" y="263"/>
      <point x="483" y="310"/>
      <point x="483" y="354" type="curve" smooth="yes"/>
      <point x="483" y="399"/>
      <point x="467" y="446"/>
      <point x="434" y="483" type="curve"/>
      <point x="509" y="557" type="line"/>
      <point x="493" y="572" type="line"/>
      <point x="417" y="498" type="line"/>
      <point x="378" y="531"/>
      <point x="332" y="547"/>
      <point x="289" y="547" type="curve" smooth="yes"/>
      <point x="246" y="547"/>
      <point x="200" y="530"/>
      <point x="161" y="497" type="curve"/>
      <point x="84" y="573" type="line"/>
      <point x="69" y="558" type="line"/>
      <point x="144" y="482" type="line"/>
      <point x="112" y="444"/>
      <point x="96" y="398"/>
      <point x="96" y="354" type="curve" smooth="yes"/>
      <point x="96" y="310"/>
      <point x="112" y="263"/>
      <point x="144" y="224" type="curve"/>
      <point x="70" y="150" type="line"/>
      <point x="85" y="134" type="line"/>
      <point x="161" y="209" type="line"/>
      <point x="198" y="176"/>
      <point x="244" y="160"/>
      <point x="289" y="160" type="curve" smooth="yes"/>
      <point x="333" y="160"/>
      <point x="380" y="176"/>
    </contour>
    <contour>
      <point x="288" y="183" type="curve" smooth="yes"/>
      <point x="196" y="183"/>
      <point x="119" y="257"/>
      <point x="119" y="354" type="curve" smooth="yes"/>
      <point x="117" y="446"/>
      <point x="199" y="527"/>
      <point x="290" y="525" type="curve" smooth="yes"/>
      <point x="378" y="527"/>
      <point x="464" y="444"/>
      <point x="461" y="355" type="curve" smooth="yes"/>
      <point x="461" y="265"/>
      <point x="385" y="183"/>
    </contour>
  </outline>
</glyph>
<glyph name="currency.serif" format="2">
  <advance width="452"/>
  <unicode hex="00A4"/>
  <outline>
    <contour>
      <point x="65" y="151" type="line"/>
      <point x="138" y="224" type="line"/>
      <point x="169" y="197"/>
      <point x="210" y="181"/>
      <point x="254" y="181" type="curve" smooth="yes"/>
      <point x="298" y="181"/>
      <point x="338" y="197"/>
      <point x="369" y="223" type="curve"/>
      <point x="441" y="151" type="line"/>
      <point x="461" y="171" type="line"/>
      <point x="389" y="243" type="line"/>
      <point x="415" y="275"/>
      <point x="431" y="315"/>
      <point x="431" y="360" type="curve" smooth="yes"/>
      <point x="431" y="404"/>
      <point x="415" y="444"/>
      <point x="389" y="475" type="curve"/>
      <point x="461" y="547" type="line"/>
      <point x="441" y="567" type="line"/>
      <point x="369" y="495" type="line"/>
      <point x="338" y="521"/>
      <point x="298" y="537"/>
      <point x="254" y="537" type="curve" smooth="yes"/>
      <point x="209" y="537"/>
      <point x="169" y="521"/>
      <point x="137" y="495" type="curve"/>
      <point x="65" y="567" type="line"/>
      <point x="45" y="547" type="line"/>
      <point x="117" y="475" type="line"/>
      <point x="91" y="444"/>
      <point x="75" y="404"/>
      <point x="75" y="360" type="curve" smooth="yes"/>
      <point x="75" y="316"/>
      <point x="91" y="275"/>
      <point x="118" y="244" type="curve"/>
      <point x="45" y="171" type="line"/>
    </contour>
    <contour>
      <point x="253" y="209" type="curve" smooth="yes"/>
      <point x="170" y="209"/>
      <point x="103" y="276"/>
      <point x="103" y="359" type="curve" smooth="yes"/>
      <point x="103" y="442"/>
      <point x="170" y="509"/>
      <point x="253" y="509" type="curve" smooth="yes"/>
      <point x="336" y="509"/>
      <point x="403" y="442"/>
      <point x="403" y="359" type="curve" smooth="yes"/>
      <point x="403" y="275"/>
      <point x="336" y="209"/>
    </contour>
  </outline>
</glyph>
<glyph name="yen" format="2">
  <advance width="324"/>
  <unicode hex="00A5"/>
  <outline>
    <contour>
      <point x="78" y="0" type="line"/>
      <point x="104" y="0" type="line"/>
      <point x="138" y="153" type="line"/>
      <point x="233" y="153" type="line"/>
      <point x="238" y="178" type="line"/>
      <point x="143" y="178" type="line"/>
      <point x="166" y="286" type="line"/>
      <point x="262" y="286" type="line"/>
      <point x="267" y="311" type="line"/>
      <point x="179" y="311" type="line"/>
      <point x="365" y="714" type="line"/>
      <point x="337" y="714" type="line"/>
      <point x="163" y="332" type="line"/>
      <point x="149" y="714" type="line"/>
      <point x="124" y="714" type="line"/>
      <point x="140" y="311" type="line"/>
      <point x="54" y="311" type="line"/>
      <point x="48" y="286" type="line"/>
      <point x="140" y="286" type="line"/>
      <point x="117" y="178" type="line"/>
      <point x="24" y="178" type="line"/>
      <point x="19" y="153" type="line"/>
      <point x="112" y="153" type="line"/>
    </contour>
  </outline>
</glyph>
<glyph name="yen.serif" format="2">
  <advance width="424"/>
  <unicode hex="00A5"/>
  <outline>
    <contour>
      <point x="61" y="0" type="line"/>
      <point x="247" y="0" type="line"/>
      <point x="251" y="20" type="line"/>
      <point x="228" y="20" type="line" smooth="yes"/>
      <point x="195" y="20"/>
      <point x="182" y="25"/>
      <point x="182" y="51" type="curve" smooth="yes"/>
      <point x="182" y="64"/>
      <point x="185" y="82"/>
      <point x="191" y="108" type="curve" smooth="yes"/>
      <point x="211" y="202" type="line"/>
      <point x="323" y="202" type="line"/>
      <point x="328" y="225" type="line"/>
      <point x="216" y="225" type="line"/>
      <point x="235" y="317" type="line"/>
      <point x="347" y="317" type="line"/>
      <point x="352" y="340" type="line"/>
      <point x="244" y="340" type="line"/>
      <point x="424" y="622" type="line" smooth="yes"/>
      <point x="466" y="688"/>
      <point x="472" y="694"/>
      <point x="499" y="694" type="curve" smooth="yes"/>
      <point x="512" y="694" type="line"/>
      <point x="517" y="714" type="line"/>
      <point x="374" y="714" type="line"/>
      <point x="369" y="694" type="line"/>
      <point x="378" y="694" type="line" smooth="yes"/>
      <point x="414" y="694"/>
      <point x="419" y="693"/>
      <point x="419" y="681" type="curve" smooth="yes"/>
      <point x="419" y="671"/>
      <point x="415" y="659"/>
      <point x="388" y="615" type="curve" smooth="yes"/>
      <point x="274" y="431" type="line" smooth="yes"/>
      <point x="259" y="407"/>
      <point x="244" y="381"/>
      <point x="230" y="357" type="curve"/>
      <point x="226" y="380"/>
      <point x="221" y="405"/>
      <point x="216" y="428" type="curve" smooth="yes"/>
      <point x="177" y="620" type="line" smooth="yes"/>
      <point x="171" y="651"/>
      <point x="167" y="665"/>
      <point x="167" y="677" type="curve" smooth="yes"/>
      <point x="167" y="691"/>
      <point x="174" y="694"/>
      <point x="204" y="694" type="curve" smooth="yes"/>
      <point x="229" y="694" type="line"/>
      <point x="234" y="714" type="line"/>
      <point x="99" y="714" type="line"/>
      <point x="94" y="694" type="line"/>
      <point x="104" y="694" type="line" smooth="yes"/>
      <point x="130" y="694"/>
      <point x="135" y="689"/>
      <point x="145" y="641" type="curve" smooth="yes"/>
      <point x="210" y="340" type="line"/>
      <point x="100" y="340" type="line"/>
      <point x="95" y="317" type="line"/>
      <point x="207" y="317" type="line"/>
      <point x="188" y="225" type="line"/>
      <point x="76" y="225" type="line"/>
      <point x="71" y="202" type="line"/>
      <point x="183" y="202" type="line"/>
      <point x="163" y="108" type="line" smooth="yes"/>
      <point x="147" y="31"/>
      <point x="138" y="20"/>
      <point x="88" y="20" type="curve" smooth="yes"/>
      <point x="65" y="20" type="line"/>
    </contour>
  </outline>
</glyph>
<glyph name="brokenbar" format="2">
  <advance width="342"/>
  <unicode hex="00A6"/>
  <outline>
    <contour>
      <point x="155" y="377" type="line"/>
      <point x="182" y="377" type="line"/>
      <point x="182" y="758" type="line"/>
      <point x="155" y="758" type="line"/>
    </contour>
    <contour>
      <point x="155" y="-242" type="line"/>
      <point x="182" y="-242" type="line"/>
      <point x="182" y="139" type="line"/>
      <point x="155" y="139" type="line"/>
    </contour>
  </outline>
</glyph>
